  0
SECTION
  2
HEADER
  9
$ANGBASE
  50
0.0
  9
$ANGDIR
  70
1
  9
$MEASUREMENT
  70
0
  0
ENDSEC
  0
SECTION
  2
TABLES
  0
TABLE
  2
LTYPE
  70
4
  0
LTYPE
  5
40F
  2
CONTINUOUS
  70
0
  3
Solid line
  72
65
  73
0
  40
0.0
  0
LTYPE
  5
410
  2
DASHDOT
 70
0
  3
Dash Dot ____ _ ____ _
 72
65
 73
4
 40
2.0
 49
1.25
 49
-0.25
 49
0.25
 49
-0.25
  0
LTYPE
  5
411
  2
DASHED
 70
0
  3
Dashed __ __ __ __ __
 72
65
 73
2
 40
0.75
 49
0.5
 49
-0.25
  0
LTYPE
  5
43B
  2
DOTTED
 70
0
  3
Dotted .  .  .  .
 72
65
 73
2
 40
0.2
 49
0.0
 49
-0.2
  0
ENDTAB
  0
TABLE
  2
STYLE
  70
4
  0
STYLE
  2
KICAD
  70
0
  40
0
  41
1
  42
1
  50
0
  71
0
  3
isocp.shx
  0
STYLE
  2
KICADB
  70
0
  40
0
  41
1
  42
1
  50
0
  71
0
  3
isocp.shx
  0
STYLE
  2
KICADI
  70
0
  40
0
  41
1
  42
1
  50
15
  71
0
  3
isocp.shx
  0
STYLE
  2
KICADBI
  70
0
  40
0
  41
1
  42
1
  50
15
  71
0
  3
isocp.shx
  0
ENDTAB
  0
TABLE
  2
LAYER
  70
1
  0
LAYER
  2
BLACK
  70
0
  62
7
  6
CONTINUOUS
  0
ENDTAB
  0
ENDSEC
  0
SECTION
  2
ENTITIES
0
LINE
8
BLACK
6
CONTINUOUS
10
4.40232
20
-1.57151
11
4.40227
21
-1.57157
0
LINE
8
BLACK
6
CONTINUOUS
10
4.40227
20
-1.57157
11
4.40221
21
-1.57162
0
LINE
8
BLACK
6
CONTINUOUS
10
4.40221
20
-1.57162
11
4.40216
21
-1.57167
0
LINE
8
BLACK
6
CONTINUOUS
10
4.40216
20
-1.57167
11
4.40214
21
-1.57168
0
LINE
8
BLACK
6
CONTINUOUS
10
4.40214
20
-1.57168
11
4.40212
21
-1.57169
0
LINE
8
BLACK
6
CONTINUOUS
10
4.40212
20
-1.57169
11
4.40206
21
-1.57173
0
LINE
8
BLACK
6
CONTINUOUS
10
4.40206
20
-1.57173
11
4.40199
21
-1.57176
0
LINE
8
BLACK
6
CONTINUOUS
10
4.40199
20
-1.57176
11
4.40197
21
-1.57177
0
LINE
8
BLACK
6
CONTINUOUS
10
4.40197
20
-1.57177
11
4.40195
21
-1.57178
0
LINE
8
BLACK
6
CONTINUOUS
10
4.40195
20
-1.57178
11
4.40188
21
-1.5718
0
LINE
8
BLACK
6
CONTINUOUS
10
4.40188
20
-1.5718
11
4.4018
21
-1.57183
0
LINE
8
BLACK
6
CONTINUOUS
10
4.4018
20
-1.57183
11
4.40179
21
-1.57183
0
LINE
8
BLACK
6
CONTINUOUS
10
4.40179
20
-1.57183
11
4.40177
21
-1.57184
0
LINE
8
BLACK
6
CONTINUOUS
10
4.40177
20
-1.57184
11
4.40169
21
-1.57184
0
LINE
8
BLACK
6
CONTINUOUS
10
4.40169
20
-1.57184
11
4.40161
21
-1.57185
0
LINE
8
BLACK
6
CONTINUOUS
10
4.40161
20
-1.57185
11
4.40155
21
-1.57185
0
LINE
8
BLACK
6
CONTINUOUS
10
4.40155
20
-1.57185
11
3.69214
21
-1.57224
0
LINE
8
BLACK
6
CONTINUOUS
10
3.69214
20
-1.57224
11
3.53616
21
-1.72704
0
LINE
8
BLACK
6
CONTINUOUS
10
3.53616
20
-1.72704
11
3.53613
21
-1.72708
0
LINE
8
BLACK
6
CONTINUOUS
10
3.53613
20
-1.72708
11
3.53609
21
-1.72711
0
LINE
8
BLACK
6
CONTINUOUS
10
3.53609
20
-1.72711
11
3.53609
21
-1.72711
0
LINE
8
BLACK
6
CONTINUOUS
10
3.53609
20
-1.72711
11
3.53607
21
-1.72713
0
LINE
8
BLACK
6
CONTINUOUS
10
3.53607
20
-1.72713
11
3.53598
21
-1.7272
0
LINE
8
BLACK
6
CONTINUOUS
10
3.53598
20
-1.7272
11
3.53598
21
-1.7272
0
LINE
8
BLACK
6
CONTINUOUS
10
3.53598
20
-1.7272
11
3.53598
21
-1.7272
0
LINE
8
BLACK
6
CONTINUOUS
10
3.53598
20
-1.7272
11
3.5359
21
-1.72724
0
LINE
8
BLACK
6
CONTINUOUS
10
3.5359
20
-1.72724
11
3.53581
21
-1.72729
0
LINE
8
BLACK
6
CONTINUOUS
10
3.53581
20
-1.72729
11
3.53581
21
-1.72729
0
LINE
8
BLACK
6
CONTINUOUS
10
3.53581
20
-1.72729
11
3.53581
21
-1.72729
0
LINE
8
BLACK
6
CONTINUOUS
10
3.53581
20
-1.72729
11
3.53572
21
-1.72732
0
LINE
8
BLACK
6
CONTINUOUS
10
3.53572
20
-1.72732
11
3.53563
21
-1.72735
0
LINE
8
BLACK
6
CONTINUOUS
10
3.53563
20
-1.72735
11
3.53562
21
-1.72735
0
LINE
8
BLACK
6
CONTINUOUS
10
3.53562
20
-1.72735
11
3.53562
21
-1.72735
0
LINE
8
BLACK
6
CONTINUOUS
10
3.53562
20
-1.72735
11
3.53552
21
-1.72736
0
LINE
8
BLACK
6
CONTINUOUS
10
3.53552
20
-1.72736
11
3.53548
21
-1.72736
0
LINE
8
BLACK
6
CONTINUOUS
10
3.53548
20
-1.72736
11
3.53548
21
-1.72736
0
LINE
8
BLACK
6
CONTINUOUS
10
3.53548
20
-1.72736
11
3.53543
21
-1.72737
0
LINE
8
BLACK
6
CONTINUOUS
10
3.53543
20
-1.72737
11
3.53538
21
-1.72736
0
LINE
8
BLACK
6
CONTINUOUS
10
3.53538
20
-1.72736
11
3.20394
21
-1.72736
0
LINE
8
BLACK
6
CONTINUOUS
10
3.20394
20
-1.72736
11
3.20385
21
-1.72736
0
LINE
8
BLACK
6
CONTINUOUS
10
3.20385
20
-1.72736
11
3.20002
21
-1.72776
0
LINE
8
BLACK
6
CONTINUOUS
10
3.20002
20
-1.72776
11
3.19639
21
-1.72889
0
LINE
8
BLACK
6
CONTINUOUS
10
3.19639
20
-1.72889
11
3.19304
21
-1.7307
0
LINE
8
BLACK
6
CONTINUOUS
10
3.19304
20
-1.7307
11
3.19011
21
-1.73312
0
LINE
8
BLACK
6
CONTINUOUS
10
3.19011
20
-1.73312
11
3.18771
21
-1.73607
0
LINE
8
BLACK
6
CONTINUOUS
10
3.18771
20
-1.73607
11
3.18592
21
-1.73943
0
LINE
8
BLACK
6
CONTINUOUS
10
3.18592
20
-1.73943
11
3.18482
21
-1.74307
0
LINE
8
BLACK
6
CONTINUOUS
10
3.18482
20
-1.74307
11
3.18445
21
-1.74689
0
LINE
8
BLACK
6
CONTINUOUS
10
3.18445
20
-1.74689
11
3.18681
21
-1.88074
0
LINE
8
BLACK
6
CONTINUOUS
10
3.18681
20
-1.88074
11
3.18681
21
-1.88075
0
LINE
8
BLACK
6
CONTINUOUS
10
3.18681
20
-1.88075
11
3.18681
21
-1.8808
0
LINE
8
BLACK
6
CONTINUOUS
10
3.18681
20
-1.8808
11
3.18721
21
-1.88463
0
LINE
8
BLACK
6
CONTINUOUS
10
3.18721
20
-1.88463
11
3.18834
21
-1.88826
0
LINE
8
BLACK
6
CONTINUOUS
10
3.18834
20
-1.88826
11
3.19015
21
-1.8916
0
LINE
8
BLACK
6
CONTINUOUS
10
3.19015
20
-1.8916
11
3.19257
21
-1.89453
0
LINE
8
BLACK
6
CONTINUOUS
10
3.19257
20
-1.89453
11
3.19552
21
-1.89694
0
LINE
8
BLACK
6
CONTINUOUS
10
3.19552
20
-1.89694
11
3.19887
21
-1.89872
0
LINE
8
BLACK
6
CONTINUOUS
10
3.19887
20
-1.89872
11
3.20251
21
-1.89982
0
LINE
8
BLACK
6
CONTINUOUS
10
3.20251
20
-1.89982
11
3.20635
21
-1.9002
0
LINE
8
BLACK
6
CONTINUOUS
10
3.20635
20
-1.9002
11
3.54055
21
-1.9002
0
LINE
8
BLACK
6
CONTINUOUS
10
3.54055
20
-1.9002
11
3.55009
21
-1.89103
0
LINE
8
BLACK
6
CONTINUOUS
10
3.55009
20
-1.89103
11
3.69927
21
-1.73832
0
LINE
8
BLACK
6
CONTINUOUS
10
3.69927
20
-1.73832
11
3.6993
21
-1.73828
0
LINE
8
BLACK
6
CONTINUOUS
10
3.6993
20
-1.73828
11
3.69937
21
-1.73822
0
LINE
8
BLACK
6
CONTINUOUS
10
3.69937
20
-1.73822
11
3.69944
21
-1.73816
0
LINE
8
BLACK
6
CONTINUOUS
10
3.69944
20
-1.73816
11
3.69945
21
-1.73816
0
LINE
8
BLACK
6
CONTINUOUS
10
3.69945
20
-1.73816
11
3.69945
21
-1.73815
0
LINE
8
BLACK
6
CONTINUOUS
10
3.69945
20
-1.73815
11
3.69953
21
-1.73811
0
LINE
8
BLACK
6
CONTINUOUS
10
3.69953
20
-1.73811
11
3.69961
21
-1.73807
0
LINE
8
BLACK
6
CONTINUOUS
10
3.69961
20
-1.73807
11
3.69962
21
-1.73807
0
LINE
8
BLACK
6
CONTINUOUS
10
3.69962
20
-1.73807
11
3.69962
21
-1.73806
0
LINE
8
BLACK
6
CONTINUOUS
10
3.69962
20
-1.73806
11
3.69971
21
-1.73804
0
LINE
8
BLACK
6
CONTINUOUS
10
3.69971
20
-1.73804
11
3.6998
21
-1.73801
0
LINE
8
BLACK
6
CONTINUOUS
10
3.6998
20
-1.73801
11
3.6998
21
-1.73801
0
LINE
8
BLACK
6
CONTINUOUS
10
3.6998
20
-1.73801
11
3.69981
21
-1.73801
0
LINE
8
BLACK
6
CONTINUOUS
10
3.69981
20
-1.73801
11
3.6999
21
-1.738
0
LINE
8
BLACK
6
CONTINUOUS
10
3.6999
20
-1.738
11
3.69999
21
-1.73799
0
LINE
8
BLACK
6
CONTINUOUS
10
3.69999
20
-1.73799
11
3.70004
21
-1.73799
0
LINE
8
BLACK
6
CONTINUOUS
10
3.70004
20
-1.73799
11
4.40704
21
-1.73799
0
LINE
8
BLACK
6
CONTINUOUS
10
4.40704
20
-1.73799
11
4.41894
21
-1.72456
0
LINE
8
BLACK
6
CONTINUOUS
10
4.41894
20
-1.72456
11
4.41899
21
-1.7245
0
LINE
8
BLACK
6
CONTINUOUS
10
4.41899
20
-1.7245
11
4.41904
21
-1.72445
0
LINE
8
BLACK
6
CONTINUOUS
10
4.41904
20
-1.72445
11
4.41909
21
-1.72441
0
LINE
8
BLACK
6
CONTINUOUS
10
4.41909
20
-1.72441
11
4.41911
21
-1.72439
0
LINE
8
BLACK
6
CONTINUOUS
10
4.41911
20
-1.72439
11
4.41914
21
-1.72437
0
LINE
8
BLACK
6
CONTINUOUS
10
4.41914
20
-1.72437
11
4.41919
21
-1.72434
0
LINE
8
BLACK
6
CONTINUOUS
10
4.41919
20
-1.72434
11
4.41925
21
-1.72431
0
LINE
8
BLACK
6
CONTINUOUS
10
4.41925
20
-1.72431
11
4.41928
21
-1.7243
0
LINE
8
BLACK
6
CONTINUOUS
10
4.41928
20
-1.7243
11
4.41931
21
-1.72428
0
LINE
8
BLACK
6
CONTINUOUS
10
4.41931
20
-1.72428
11
4.41937
21
-1.72426
0
LINE
8
BLACK
6
CONTINUOUS
10
4.41937
20
-1.72426
11
4.41943
21
-1.72424
0
LINE
8
BLACK
6
CONTINUOUS
10
4.41943
20
-1.72424
11
4.41946
21
-1.72424
0
LINE
8
BLACK
6
CONTINUOUS
10
4.41946
20
-1.72424
11
4.41949
21
-1.72423
0
LINE
8
BLACK
6
CONTINUOUS
10
4.41949
20
-1.72423
11
4.41956
21
-1.72422
0
LINE
8
BLACK
6
CONTINUOUS
10
4.41956
20
-1.72422
11
4.41963
21
-1.72421
0
LINE
8
BLACK
6
CONTINUOUS
10
4.41963
20
-1.72421
11
4.4197
21
-1.72421
0
LINE
8
BLACK
6
CONTINUOUS
10
4.4197
20
-1.72421
11
4.73737
21
-1.72421
0
LINE
8
BLACK
6
CONTINUOUS
10
4.73737
20
-1.72421
11
4.73743
21
-1.72421
0
LINE
8
BLACK
6
CONTINUOUS
10
4.73743
20
-1.72421
11
4.73751
21
-1.72422
0
LINE
8
BLACK
6
CONTINUOUS
10
4.73751
20
-1.72422
11
4.73759
21
-1.72423
0
LINE
8
BLACK
6
CONTINUOUS
10
4.73759
20
-1.72423
11
4.73761
21
-1.72423
0
LINE
8
BLACK
6
CONTINUOUS
10
4.73761
20
-1.72423
11
4.73762
21
-1.72423
0
LINE
8
BLACK
6
CONTINUOUS
10
4.73762
20
-1.72423
11
4.7377
21
-1.72426
0
LINE
8
BLACK
6
CONTINUOUS
10
4.7377
20
-1.72426
11
4.73778
21
-1.72428
0
LINE
8
BLACK
6
CONTINUOUS
10
4.73778
20
-1.72428
11
4.73779
21
-1.72429
0
LINE
8
BLACK
6
CONTINUOUS
10
4.73779
20
-1.72429
11
4.73781
21
-1.7243
0
LINE
8
BLACK
6
CONTINUOUS
10
4.73781
20
-1.7243
11
4.73788
21
-1.72434
0
LINE
8
BLACK
6
CONTINUOUS
10
4.73788
20
-1.72434
11
4.73795
21
-1.72437
0
LINE
8
BLACK
6
CONTINUOUS
10
4.73795
20
-1.72437
11
4.73796
21
-1.72438
0
LINE
8
BLACK
6
CONTINUOUS
10
4.73796
20
-1.72438
11
4.73798
21
-1.72439
0
LINE
8
BLACK
6
CONTINUOUS
10
4.73798
20
-1.72439
11
4.73804
21
-1.72444
0
LINE
8
BLACK
6
CONTINUOUS
10
4.73804
20
-1.72444
11
4.7381
21
-1.7245
0
LINE
8
BLACK
6
CONTINUOUS
10
4.7381
20
-1.7245
11
4.73814
21
-1.72455
0
LINE
8
BLACK
6
CONTINUOUS
10
4.73814
20
-1.72455
11
4.75031
21
-1.7375
0
LINE
8
BLACK
6
CONTINUOUS
10
4.75031
20
-1.7375
11
4.82323
21
-1.80768
0
LINE
8
BLACK
6
CONTINUOUS
10
4.82323
20
-1.80768
11
5.27908
21
-1.80728
0
LINE
8
BLACK
6
CONTINUOUS
10
5.27908
20
-1.80728
11
5.27912
21
-1.80728
0
LINE
8
BLACK
6
CONTINUOUS
10
5.27912
20
-1.80728
11
5.27918
21
-1.80728
0
LINE
8
BLACK
6
CONTINUOUS
10
5.27918
20
-1.80728
11
5.27918
21
-1.80728
0
LINE
8
BLACK
6
CONTINUOUS
10
5.27918
20
-1.80728
11
5.27922
21
-1.80729
0
LINE
8
BLACK
6
CONTINUOUS
10
5.27922
20
-1.80729
11
5.27931
21
-1.8073
0
LINE
8
BLACK
6
CONTINUOUS
10
5.27931
20
-1.8073
11
5.27932
21
-1.8073
0
LINE
8
BLACK
6
CONTINUOUS
10
5.27932
20
-1.8073
11
5.27933
21
-1.8073
0
LINE
8
BLACK
6
CONTINUOUS
10
5.27933
20
-1.8073
11
5.27941
21
-1.80732
0
LINE
8
BLACK
6
CONTINUOUS
10
5.27941
20
-1.80732
11
5.2795
21
-1.80735
0
LINE
8
BLACK
6
CONTINUOUS
10
5.2795
20
-1.80735
11
5.27951
21
-1.80735
0
LINE
8
BLACK
6
CONTINUOUS
10
5.27951
20
-1.80735
11
5.27951
21
-1.80735
0
LINE
8
BLACK
6
CONTINUOUS
10
5.27951
20
-1.80735
11
5.27959
21
-1.8074
0
LINE
8
BLACK
6
CONTINUOUS
10
5.27959
20
-1.8074
11
5.27967
21
-1.80744
0
LINE
8
BLACK
6
CONTINUOUS
10
5.27967
20
-1.80744
11
5.27968
21
-1.80744
0
LINE
8
BLACK
6
CONTINUOUS
10
5.27968
20
-1.80744
11
5.27968
21
-1.80744
0
LINE
8
BLACK
6
CONTINUOUS
10
5.27968
20
-1.80744
11
5.27975
21
-1.8075
0
LINE
8
BLACK
6
CONTINUOUS
10
5.27975
20
-1.8075
11
5.27979
21
-1.80753
0
LINE
8
BLACK
6
CONTINUOUS
10
5.27979
20
-1.80753
11
5.27979
21
-1.80753
0
LINE
8
BLACK
6
CONTINUOUS
10
5.27979
20
-1.80753
11
5.27983
21
-1.80757
0
LINE
8
BLACK
6
CONTINUOUS
10
5.27983
20
-1.80757
11
5.27986
21
-1.8076
0
LINE
8
BLACK
6
CONTINUOUS
10
5.27986
20
-1.8076
11
5.59042
21
-2.11068
0
LINE
8
BLACK
6
CONTINUOUS
10
5.59042
20
-2.11068
11
5.59046
21
-2.11072
0
LINE
8
BLACK
6
CONTINUOUS
10
5.59046
20
-2.11072
11
5.59052
21
-2.11079
0
LINE
8
BLACK
6
CONTINUOUS
10
5.59052
20
-2.11079
11
5.59058
21
-2.11086
0
LINE
8
BLACK
6
CONTINUOUS
10
5.59058
20
-2.11086
11
5.59058
21
-2.11086
0
LINE
8
BLACK
6
CONTINUOUS
10
5.59058
20
-2.11086
11
5.59059
21
-2.11087
0
LINE
8
BLACK
6
CONTINUOUS
10
5.59059
20
-2.11087
11
5.59063
21
-2.11095
0
LINE
8
BLACK
6
CONTINUOUS
10
5.59063
20
-2.11095
11
5.59067
21
-2.11103
0
LINE
8
BLACK
6
CONTINUOUS
10
5.59067
20
-2.11103
11
5.59067
21
-2.11103
0
LINE
8
BLACK
6
CONTINUOUS
10
5.59067
20
-2.11103
11
5.59068
21
-2.11104
0
LINE
8
BLACK
6
CONTINUOUS
10
5.59068
20
-2.11104
11
5.5907
21
-2.11113
0
LINE
8
BLACK
6
CONTINUOUS
10
5.5907
20
-2.11113
11
5.59073
21
-2.11121
0
LINE
8
BLACK
6
CONTINUOUS
10
5.59073
20
-2.11121
11
5.59073
21
-2.11122
0
LINE
8
BLACK
6
CONTINUOUS
10
5.59073
20
-2.11122
11
5.59073
21
-2.11122
0
LINE
8
BLACK
6
CONTINUOUS
10
5.59073
20
-2.11122
11
5.59074
21
-2.11132
0
LINE
8
BLACK
6
CONTINUOUS
10
5.59074
20
-2.11132
11
5.59075
21
-2.11141
0
LINE
8
BLACK
6
CONTINUOUS
10
5.59075
20
-2.11141
11
5.59075
21
-2.11146
0
LINE
8
BLACK
6
CONTINUOUS
10
5.59075
20
-2.11146
11
5.59075
21
-2.32264
0
LINE
8
BLACK
6
CONTINUOUS
10
5.59075
20
-2.32264
11
6.23272
21
-2.32224
0
LINE
8
BLACK
6
CONTINUOUS
10
6.23272
20
-2.32224
11
6.23277
21
-2.32225
0
LINE
8
BLACK
6
CONTINUOUS
10
6.23277
20
-2.32225
11
6.23277
21
-2.32225
0
LINE
8
BLACK
6
CONTINUOUS
10
6.23277
20
-2.32225
11
6.23675
21
-2.32264
0
LINE
8
BLACK
6
CONTINUOUS
10
6.23675
20
-2.32264
11
6.23675
21
-2.32264
0
LINE
8
BLACK
6
CONTINUOUS
10
6.23675
20
-2.32264
11
6.23676
21
-2.32264
0
LINE
8
BLACK
6
CONTINUOUS
10
6.23676
20
-2.32264
11
6.23685
21
-2.32266
0
LINE
8
BLACK
6
CONTINUOUS
10
6.23685
20
-2.32266
11
6.23694
21
-2.32268
0
LINE
8
BLACK
6
CONTINUOUS
10
6.23694
20
-2.32268
11
6.24076
21
-2.32383
0
LINE
8
BLACK
6
CONTINUOUS
10
6.24076
20
-2.32383
11
6.24078
21
-2.32383
0
LINE
8
BLACK
6
CONTINUOUS
10
6.24078
20
-2.32383
11
6.24086
21
-2.32387
0
LINE
8
BLACK
6
CONTINUOUS
10
6.24086
20
-2.32387
11
6.24094
21
-2.3239
0
LINE
8
BLACK
6
CONTINUOUS
10
6.24094
20
-2.3239
11
6.24447
21
-2.32578
0
LINE
8
BLACK
6
CONTINUOUS
10
6.24447
20
-2.32578
11
6.24448
21
-2.32579
0
LINE
8
BLACK
6
CONTINUOUS
10
6.24448
20
-2.32579
11
6.24455
21
-2.32584
0
LINE
8
BLACK
6
CONTINUOUS
10
6.24455
20
-2.32584
11
6.24463
21
-2.32589
0
LINE
8
BLACK
6
CONTINUOUS
10
6.24463
20
-2.32589
11
6.24772
21
-2.32841
0
LINE
8
BLACK
6
CONTINUOUS
10
6.24772
20
-2.32841
11
6.24774
21
-2.32842
0
LINE
8
BLACK
6
CONTINUOUS
10
6.24774
20
-2.32842
11
6.2478
21
-2.32848
0
LINE
8
BLACK
6
CONTINUOUS
10
6.2478
20
-2.32848
11
6.24786
21
-2.32855
0
LINE
8
BLACK
6
CONTINUOUS
10
6.24786
20
-2.32855
11
6.25041
21
-2.33163
0
LINE
8
BLACK
6
CONTINUOUS
10
6.25041
20
-2.33163
11
6.25041
21
-2.33163
0
LINE
8
BLACK
6
CONTINUOUS
10
6.25041
20
-2.33163
11
6.25041
21
-2.33163
0
LINE
8
BLACK
6
CONTINUOUS
10
6.25041
20
-2.33163
11
6.25042
21
-2.33164
0
LINE
8
BLACK
6
CONTINUOUS
10
6.25042
20
-2.33164
11
6.25047
21
-2.33171
0
LINE
8
BLACK
6
CONTINUOUS
10
6.25047
20
-2.33171
11
6.25052
21
-2.33178
0
LINE
8
BLACK
6
CONTINUOUS
10
6.25052
20
-2.33178
11
6.25242
21
-2.3353
0
LINE
8
BLACK
6
CONTINUOUS
10
6.25242
20
-2.3353
11
6.25242
21
-2.3353
0
LINE
8
BLACK
6
CONTINUOUS
10
6.25242
20
-2.3353
11
6.25242
21
-2.3353
0
LINE
8
BLACK
6
CONTINUOUS
10
6.25242
20
-2.3353
11
6.25242
21
-2.33531
0
LINE
8
BLACK
6
CONTINUOUS
10
6.25242
20
-2.33531
11
6.25246
21
-2.3354
0
LINE
8
BLACK
6
CONTINUOUS
10
6.25246
20
-2.3354
11
6.25249
21
-2.33548
0
LINE
8
BLACK
6
CONTINUOUS
10
6.25249
20
-2.33548
11
6.25367
21
-2.33929
0
LINE
8
BLACK
6
CONTINUOUS
10
6.25367
20
-2.33929
11
6.25368
21
-2.33931
0
LINE
8
BLACK
6
CONTINUOUS
10
6.25368
20
-2.33931
11
6.25369
21
-2.33939
0
LINE
8
BLACK
6
CONTINUOUS
10
6.25369
20
-2.33939
11
6.25371
21
-2.33948
0
LINE
8
BLACK
6
CONTINUOUS
10
6.25371
20
-2.33948
11
6.25413
21
-2.34346
0
LINE
8
BLACK
6
CONTINUOUS
10
6.25413
20
-2.34346
11
6.25413
21
-2.34347
0
LINE
8
BLACK
6
CONTINUOUS
10
6.25413
20
-2.34347
11
6.25413
21
-2.34351
0
LINE
8
BLACK
6
CONTINUOUS
10
6.25413
20
-2.34351
11
6.25413
21
-2.34355
0
LINE
8
BLACK
6
CONTINUOUS
10
6.25413
20
-2.34355
11
6.25413
21
-2.34365
0
LINE
8
BLACK
6
CONTINUOUS
10
6.25413
20
-2.34365
11
6.25413
21
-2.34365
0
LINE
8
BLACK
6
CONTINUOUS
10
6.25413
20
-2.34365
11
6.25413
21
-2.34369
0
LINE
8
BLACK
6
CONTINUOUS
10
6.25413
20
-2.34369
11
6.25413
21
-2.3437
0
LINE
8
BLACK
6
CONTINUOUS
10
6.25413
20
-2.3437
11
6.25413
21
-2.3437
0
LINE
8
BLACK
6
CONTINUOUS
10
6.25413
20
-2.3437
11
6.25453
21
-3.7531
0
LINE
8
BLACK
6
CONTINUOUS
10
6.25453
20
-3.7531
11
6.25453
21
-3.75315
0
LINE
8
BLACK
6
CONTINUOUS
10
6.25453
20
-3.75315
11
6.25451
21
-3.75334
0
LINE
8
BLACK
6
CONTINUOUS
10
6.25451
20
-3.75334
11
6.25447
21
-3.75348
0
LINE
8
BLACK
6
CONTINUOUS
10
6.25447
20
-3.75348
11
6.25446
21
-3.75353
0
LINE
8
BLACK
6
CONTINUOUS
10
6.25446
20
-3.75353
11
6.25446
21
-3.75353
0
LINE
8
BLACK
6
CONTINUOUS
10
6.25446
20
-3.75353
11
6.25446
21
-3.75353
0
LINE
8
BLACK
6
CONTINUOUS
10
6.25446
20
-3.75353
11
6.25437
21
-3.7537
0
LINE
8
BLACK
6
CONTINUOUS
10
6.25437
20
-3.7537
11
6.25427
21
-3.75381
0
LINE
8
BLACK
6
CONTINUOUS
10
6.25427
20
-3.75381
11
6.25424
21
-3.75385
0
LINE
8
BLACK
6
CONTINUOUS
10
6.25424
20
-3.75385
11
6.25421
21
-3.75388
0
LINE
8
BLACK
6
CONTINUOUS
10
6.25421
20
-3.75388
11
6.11122
21
-3.89686
0
LINE
8
BLACK
6
CONTINUOUS
10
6.11122
20
-3.89686
11
6.11161
21
-4.95192
0
LINE
8
BLACK
6
CONTINUOUS
10
6.11161
20
-4.95192
11
6.11201
21
-5.52564
0
LINE
8
BLACK
6
CONTINUOUS
10
6.11201
20
-5.52564
11
6.112
21
-5.52569
0
LINE
8
BLACK
6
CONTINUOUS
10
6.112
20
-5.52569
11
6.112
21
-5.52569
0
LINE
8
BLACK
6
CONTINUOUS
10
6.112
20
-5.52569
11
6.11161
21
-5.52966
0
LINE
8
BLACK
6
CONTINUOUS
10
6.11161
20
-5.52966
11
6.11161
21
-5.52968
0
LINE
8
BLACK
6
CONTINUOUS
10
6.11161
20
-5.52968
11
6.11159
21
-5.52977
0
LINE
8
BLACK
6
CONTINUOUS
10
6.11159
20
-5.52977
11
6.11158
21
-5.52985
0
LINE
8
BLACK
6
CONTINUOUS
10
6.11158
20
-5.52985
11
6.11042
21
-5.53368
0
LINE
8
BLACK
6
CONTINUOUS
10
6.11042
20
-5.53368
11
6.11042
21
-5.53369
0
LINE
8
BLACK
6
CONTINUOUS
10
6.11042
20
-5.53369
11
6.11038
21
-5.53377
0
LINE
8
BLACK
6
CONTINUOUS
10
6.11038
20
-5.53377
11
6.11035
21
-5.53385
0
LINE
8
BLACK
6
CONTINUOUS
10
6.11035
20
-5.53385
11
6.10847
21
-5.53738
0
LINE
8
BLACK
6
CONTINUOUS
10
6.10847
20
-5.53738
11
6.10847
21
-5.53739
0
LINE
8
BLACK
6
CONTINUOUS
10
6.10847
20
-5.53739
11
6.10842
21
-5.53747
0
LINE
8
BLACK
6
CONTINUOUS
10
6.10842
20
-5.53747
11
6.10837
21
-5.53754
0
LINE
8
BLACK
6
CONTINUOUS
10
6.10837
20
-5.53754
11
6.10584
21
-5.54064
0
LINE
8
BLACK
6
CONTINUOUS
10
6.10584
20
-5.54064
11
6.10583
21
-5.54065
0
LINE
8
BLACK
6
CONTINUOUS
10
6.10583
20
-5.54065
11
6.10577
21
-5.54071
0
LINE
8
BLACK
6
CONTINUOUS
10
6.10577
20
-5.54071
11
6.10571
21
-5.54077
0
LINE
8
BLACK
6
CONTINUOUS
10
6.10571
20
-5.54077
11
6.10263
21
-5.54332
0
LINE
8
BLACK
6
CONTINUOUS
10
6.10263
20
-5.54332
11
6.10262
21
-5.54333
0
LINE
8
BLACK
6
CONTINUOUS
10
6.10262
20
-5.54333
11
6.10254
21
-5.54338
0
LINE
8
BLACK
6
CONTINUOUS
10
6.10254
20
-5.54338
11
6.10247
21
-5.54343
0
LINE
8
BLACK
6
CONTINUOUS
10
6.10247
20
-5.54343
11
6.09895
21
-5.54533
0
LINE
8
BLACK
6
CONTINUOUS
10
6.09895
20
-5.54533
11
6.09894
21
-5.54534
0
LINE
8
BLACK
6
CONTINUOUS
10
6.09894
20
-5.54534
11
6.09886
21
-5.54537
0
LINE
8
BLACK
6
CONTINUOUS
10
6.09886
20
-5.54537
11
6.09878
21
-5.5454
0
LINE
8
BLACK
6
CONTINUOUS
10
6.09878
20
-5.5454
11
6.09496
21
-5.54659
0
LINE
8
BLACK
6
CONTINUOUS
10
6.09496
20
-5.54659
11
6.09495
21
-5.54659
0
LINE
8
BLACK
6
CONTINUOUS
10
6.09495
20
-5.54659
11
6.09486
21
-5.54661
0
LINE
8
BLACK
6
CONTINUOUS
10
6.09486
20
-5.54661
11
6.09477
21
-5.54662
0
LINE
8
BLACK
6
CONTINUOUS
10
6.09477
20
-5.54662
11
6.0908
21
-5.54704
0
LINE
8
BLACK
6
CONTINUOUS
10
6.0908
20
-5.54704
11
6.09078
21
-5.54704
0
LINE
8
BLACK
6
CONTINUOUS
10
6.09078
20
-5.54704
11
6.09074
21
-5.54704
0
LINE
8
BLACK
6
CONTINUOUS
10
6.09074
20
-5.54704
11
6.0907
21
-5.54705
0
LINE
8
BLACK
6
CONTINUOUS
10
6.0907
20
-5.54705
11
6.0906
21
-5.54705
0
LINE
8
BLACK
6
CONTINUOUS
10
6.0906
20
-5.54705
11
6.0906
21
-5.54705
0
LINE
8
BLACK
6
CONTINUOUS
10
6.0906
20
-5.54705
11
6.09056
21
-5.54705
0
LINE
8
BLACK
6
CONTINUOUS
10
6.09056
20
-5.54705
11
6.09055
21
-5.54705
0
LINE
8
BLACK
6
CONTINUOUS
10
6.09055
20
-5.54705
11
6.09055
21
-5.54705
0
LINE
8
BLACK
6
CONTINUOUS
10
6.09055
20
-5.54705
11
4.0342
21
-5.54783
0
LINE
8
BLACK
6
CONTINUOUS
10
4.0342
20
-5.54783
11
4.03416
21
-5.54783
0
LINE
8
BLACK
6
CONTINUOUS
10
4.03416
20
-5.54783
11
4.03416
21
-5.54783
0
LINE
8
BLACK
6
CONTINUOUS
10
4.03416
20
-5.54783
11
4.03018
21
-5.54744
0
LINE
8
BLACK
6
CONTINUOUS
10
4.03018
20
-5.54744
11
4.03017
21
-5.54744
0
LINE
8
BLACK
6
CONTINUOUS
10
4.03017
20
-5.54744
11
4.03008
21
-5.54742
0
LINE
8
BLACK
6
CONTINUOUS
10
4.03008
20
-5.54742
11
4.02999
21
-5.5474
0
LINE
8
BLACK
6
CONTINUOUS
10
4.02999
20
-5.5474
11
4.02617
21
-5.54625
0
LINE
8
BLACK
6
CONTINUOUS
10
4.02617
20
-5.54625
11
4.02615
21
-5.54624
0
LINE
8
BLACK
6
CONTINUOUS
10
4.02615
20
-5.54624
11
4.02607
21
-5.54621
0
LINE
8
BLACK
6
CONTINUOUS
10
4.02607
20
-5.54621
11
4.02599
21
-5.54617
0
LINE
8
BLACK
6
CONTINUOUS
10
4.02599
20
-5.54617
11
4.02246
21
-5.5443
0
LINE
8
BLACK
6
CONTINUOUS
10
4.02246
20
-5.5443
11
4.02245
21
-5.54429
0
LINE
8
BLACK
6
CONTINUOUS
10
4.02245
20
-5.54429
11
4.02238
21
-5.54424
0
LINE
8
BLACK
6
CONTINUOUS
10
4.02238
20
-5.54424
11
4.0223
21
-5.54419
0
LINE
8
BLACK
6
CONTINUOUS
10
4.0223
20
-5.54419
11
4.0192
21
-5.54167
0
LINE
8
BLACK
6
CONTINUOUS
10
4.0192
20
-5.54167
11
4.01919
21
-5.54166
0
LINE
8
BLACK
6
CONTINUOUS
10
4.01919
20
-5.54166
11
4.01913
21
-5.5416
0
LINE
8
BLACK
6
CONTINUOUS
10
4.01913
20
-5.5416
11
4.01907
21
-5.54153
0
LINE
8
BLACK
6
CONTINUOUS
10
4.01907
20
-5.54153
11
4.01652
21
-5.53845
0
LINE
8
BLACK
6
CONTINUOUS
10
4.01652
20
-5.53845
11
4.01651
21
-5.53844
0
LINE
8
BLACK
6
CONTINUOUS
10
4.01651
20
-5.53844
11
4.01646
21
-5.53837
0
LINE
8
BLACK
6
CONTINUOUS
10
4.01646
20
-5.53837
11
4.01641
21
-5.53829
0
LINE
8
BLACK
6
CONTINUOUS
10
4.01641
20
-5.53829
11
4.01451
21
-5.53478
0
LINE
8
BLACK
6
CONTINUOUS
10
4.01451
20
-5.53478
11
4.01451
21
-5.53477
0
LINE
8
BLACK
6
CONTINUOUS
10
4.01451
20
-5.53477
11
4.01447
21
-5.53468
0
LINE
8
BLACK
6
CONTINUOUS
10
4.01447
20
-5.53468
11
4.01444
21
-5.5346
0
LINE
8
BLACK
6
CONTINUOUS
10
4.01444
20
-5.5346
11
4.01326
21
-5.53079
0
LINE
8
BLACK
6
CONTINUOUS
10
4.01326
20
-5.53079
11
4.01325
21
-5.53077
0
LINE
8
BLACK
6
CONTINUOUS
10
4.01325
20
-5.53077
11
4.01324
21
-5.53068
0
LINE
8
BLACK
6
CONTINUOUS
10
4.01324
20
-5.53068
11
4.01322
21
-5.5306
0
LINE
8
BLACK
6
CONTINUOUS
10
4.01322
20
-5.5306
11
4.0128
21
-5.52662
0
LINE
8
BLACK
6
CONTINUOUS
10
4.0128
20
-5.52662
11
4.0128
21
-5.52661
0
LINE
8
BLACK
6
CONTINUOUS
10
4.0128
20
-5.52661
11
4.0128
21
-5.52657
0
LINE
8
BLACK
6
CONTINUOUS
10
4.0128
20
-5.52657
11
4.0128
21
-5.52652
0
LINE
8
BLACK
6
CONTINUOUS
10
4.0128
20
-5.52652
11
4.0128
21
-5.52643
0
LINE
8
BLACK
6
CONTINUOUS
10
4.0128
20
-5.52643
11
4.0128
21
-5.52643
0
LINE
8
BLACK
6
CONTINUOUS
10
4.0128
20
-5.52643
11
4.0128
21
-5.52639
0
LINE
8
BLACK
6
CONTINUOUS
10
4.0128
20
-5.52639
11
4.0128
21
-5.52638
0
LINE
8
BLACK
6
CONTINUOUS
10
4.0128
20
-5.52638
11
4.0128
21
-5.52637
0
LINE
8
BLACK
6
CONTINUOUS
10
4.0128
20
-5.52637
11
4.0128
21
-4.91497
0
LINE
8
BLACK
6
CONTINUOUS
10
4.0128
20
-4.91497
11
3.89644
21
-4.79862
0
LINE
8
BLACK
6
CONTINUOUS
10
3.89644
20
-4.79862
11
1.03381
21
-4.79941
0
LINE
8
BLACK
6
CONTINUOUS
10
1.03381
20
-4.79941
11
1.03376
21
-4.7994
0
LINE
8
BLACK
6
CONTINUOUS
10
1.03376
20
-4.7994
11
1.03376
21
-4.7994
0
LINE
8
BLACK
6
CONTINUOUS
10
1.03376
20
-4.7994
11
1.02979
21
-4.79901
0
LINE
8
BLACK
6
CONTINUOUS
10
1.02979
20
-4.79901
11
1.02977
21
-4.79901
0
LINE
8
BLACK
6
CONTINUOUS
10
1.02977
20
-4.79901
11
1.02968
21
-4.79899
0
LINE
8
BLACK
6
CONTINUOUS
10
1.02968
20
-4.79899
11
1.0296
21
-4.79898
0
LINE
8
BLACK
6
CONTINUOUS
10
1.0296
20
-4.79898
11
1.02577
21
-4.79782
0
LINE
8
BLACK
6
CONTINUOUS
10
1.02577
20
-4.79782
11
1.02576
21
-4.79782
0
LINE
8
BLACK
6
CONTINUOUS
10
1.02576
20
-4.79782
11
1.02568
21
-4.79778
0
LINE
8
BLACK
6
CONTINUOUS
10
1.02568
20
-4.79778
11
1.02559
21
-4.79775
0
LINE
8
BLACK
6
CONTINUOUS
10
1.02559
20
-4.79775
11
1.02207
21
-4.79587
0
LINE
8
BLACK
6
CONTINUOUS
10
1.02207
20
-4.79587
11
1.02205
21
-4.79587
0
LINE
8
BLACK
6
CONTINUOUS
10
1.02205
20
-4.79587
11
1.02198
21
-4.79582
0
LINE
8
BLACK
6
CONTINUOUS
10
1.02198
20
-4.79582
11
1.02191
21
-4.79577
0
LINE
8
BLACK
6
CONTINUOUS
10
1.02191
20
-4.79577
11
1.01881
21
-4.79324
0
LINE
8
BLACK
6
CONTINUOUS
10
1.01881
20
-4.79324
11
1.0188
21
-4.79323
0
LINE
8
BLACK
6
CONTINUOUS
10
1.0188
20
-4.79323
11
1.01874
21
-4.79317
0
LINE
8
BLACK
6
CONTINUOUS
10
1.01874
20
-4.79317
11
1.01867
21
-4.79311
0
LINE
8
BLACK
6
CONTINUOUS
10
1.01867
20
-4.79311
11
1.01613
21
-4.79003
0
LINE
8
BLACK
6
CONTINUOUS
10
1.01613
20
-4.79003
11
1.01612
21
-4.79002
0
LINE
8
BLACK
6
CONTINUOUS
10
1.01612
20
-4.79002
11
1.01607
21
-4.78994
0
LINE
8
BLACK
6
CONTINUOUS
10
1.01607
20
-4.78994
11
1.01602
21
-4.78987
0
LINE
8
BLACK
6
CONTINUOUS
10
1.01602
20
-4.78987
11
1.01412
21
-4.78635
0
LINE
8
BLACK
6
CONTINUOUS
10
1.01412
20
-4.78635
11
1.01411
21
-4.78634
0
LINE
8
BLACK
6
CONTINUOUS
10
1.01411
20
-4.78634
11
1.01408
21
-4.78626
0
LINE
8
BLACK
6
CONTINUOUS
10
1.01408
20
-4.78626
11
1.01405
21
-4.78618
0
LINE
8
BLACK
6
CONTINUOUS
10
1.01405
20
-4.78618
11
1.01286
21
-4.78236
0
LINE
8
BLACK
6
CONTINUOUS
10
1.01286
20
-4.78236
11
1.01286
21
-4.78235
0
LINE
8
BLACK
6
CONTINUOUS
10
1.01286
20
-4.78235
11
1.01284
21
-4.78226
0
LINE
8
BLACK
6
CONTINUOUS
10
1.01284
20
-4.78226
11
1.01283
21
-4.78217
0
LINE
8
BLACK
6
CONTINUOUS
10
1.01283
20
-4.78217
11
1.01241
21
-4.7782
0
LINE
8
BLACK
6
CONTINUOUS
10
1.01241
20
-4.7782
11
1.01241
21
-4.77818
0
LINE
8
BLACK
6
CONTINUOUS
10
1.01241
20
-4.77818
11
1.01241
21
-4.77814
0
LINE
8
BLACK
6
CONTINUOUS
10
1.01241
20
-4.77814
11
1.0124
21
-4.7781
0
LINE
8
BLACK
6
CONTINUOUS
10
1.0124
20
-4.7781
11
1.0124
21
-4.778
0
LINE
8
BLACK
6
CONTINUOUS
10
1.0124
20
-4.778
11
1.0124
21
-4.778
0
LINE
8
BLACK
6
CONTINUOUS
10
1.0124
20
-4.778
11
1.0128
21
-1.92603
0
LINE
8
BLACK
6
CONTINUOUS
10
1.0128
20
-1.92603
11
1.0128
21
-1.92603
0
LINE
8
BLACK
6
CONTINUOUS
10
1.0128
20
-1.92603
11
1.0128
21
-1.922
0
LINE
8
BLACK
6
CONTINUOUS
10
1.0128
20
-1.922
11
1.0128
21
-1.92195
0
LINE
8
BLACK
6
CONTINUOUS
10
1.0128
20
-1.92195
11
1.0128
21
-1.92195
0
LINE
8
BLACK
6
CONTINUOUS
10
1.0128
20
-1.92195
11
1.01319
21
-1.91797
0
LINE
8
BLACK
6
CONTINUOUS
10
1.01319
20
-1.91797
11
1.01319
21
-1.91796
0
LINE
8
BLACK
6
CONTINUOUS
10
1.01319
20
-1.91796
11
1.01321
21
-1.91787
0
LINE
8
BLACK
6
CONTINUOUS
10
1.01321
20
-1.91787
11
1.01323
21
-1.91779
0
LINE
8
BLACK
6
CONTINUOUS
10
1.01323
20
-1.91779
11
1.01438
21
-1.91396
0
LINE
8
BLACK
6
CONTINUOUS
10
1.01438
20
-1.91396
11
1.01439
21
-1.91395
0
LINE
8
BLACK
6
CONTINUOUS
10
1.01439
20
-1.91395
11
1.01442
21
-1.91387
0
LINE
8
BLACK
6
CONTINUOUS
10
1.01442
20
-1.91387
11
1.01446
21
-1.91378
0
LINE
8
BLACK
6
CONTINUOUS
10
1.01446
20
-1.91378
11
1.01633
21
-1.91026
0
LINE
8
BLACK
6
CONTINUOUS
10
1.01633
20
-1.91026
11
1.01634
21
-1.91024
0
LINE
8
BLACK
6
CONTINUOUS
10
1.01634
20
-1.91024
11
1.01639
21
-1.91017
0
LINE
8
BLACK
6
CONTINUOUS
10
1.01639
20
-1.91017
11
1.01644
21
-1.9101
0
LINE
8
BLACK
6
CONTINUOUS
10
1.01644
20
-1.9101
11
1.01896
21
-1.907
0
LINE
8
BLACK
6
CONTINUOUS
10
1.01896
20
-1.907
11
1.01897
21
-1.90699
0
LINE
8
BLACK
6
CONTINUOUS
10
1.01897
20
-1.90699
11
1.01903
21
-1.90693
0
LINE
8
BLACK
6
CONTINUOUS
10
1.01903
20
-1.90693
11
1.0191
21
-1.90686
0
LINE
8
BLACK
6
CONTINUOUS
10
1.0191
20
-1.90686
11
1.02218
21
-1.90432
0
LINE
8
BLACK
6
CONTINUOUS
10
1.02218
20
-1.90432
11
1.02218
21
-1.90432
0
LINE
8
BLACK
6
CONTINUOUS
10
1.02218
20
-1.90432
11
1.02218
21
-1.90432
0
LINE
8
BLACK
6
CONTINUOUS
10
1.02218
20
-1.90432
11
1.02219
21
-1.90431
0
LINE
8
BLACK
6
CONTINUOUS
10
1.02219
20
-1.90431
11
1.02226
21
-1.90426
0
LINE
8
BLACK
6
CONTINUOUS
10
1.02226
20
-1.90426
11
1.02234
21
-1.90421
0
LINE
8
BLACK
6
CONTINUOUS
10
1.02234
20
-1.90421
11
1.02585
21
-1.90231
0
LINE
8
BLACK
6
CONTINUOUS
10
1.02585
20
-1.90231
11
1.02585
21
-1.90231
0
LINE
8
BLACK
6
CONTINUOUS
10
1.02585
20
-1.90231
11
1.02585
21
-1.90231
0
LINE
8
BLACK
6
CONTINUOUS
10
1.02585
20
-1.90231
11
1.02586
21
-1.9023
0
LINE
8
BLACK
6
CONTINUOUS
10
1.02586
20
-1.9023
11
1.02595
21
-1.90227
0
LINE
8
BLACK
6
CONTINUOUS
10
1.02595
20
-1.90227
11
1.02603
21
-1.90223
0
LINE
8
BLACK
6
CONTINUOUS
10
1.02603
20
-1.90223
11
1.02984
21
-1.90105
0
LINE
8
BLACK
6
CONTINUOUS
10
1.02984
20
-1.90105
11
1.02984
21
-1.90105
0
LINE
8
BLACK
6
CONTINUOUS
10
1.02984
20
-1.90105
11
1.02986
21
-1.90105
0
LINE
8
BLACK
6
CONTINUOUS
10
1.02986
20
-1.90105
11
1.02995
21
-1.90103
0
LINE
8
BLACK
6
CONTINUOUS
10
1.02995
20
-1.90103
11
1.03003
21
-1.90101
0
LINE
8
BLACK
6
CONTINUOUS
10
1.03003
20
-1.90101
11
1.03401
21
-1.9006
0
LINE
8
BLACK
6
CONTINUOUS
10
1.03401
20
-1.9006
11
1.03402
21
-1.9006
0
LINE
8
BLACK
6
CONTINUOUS
10
1.03402
20
-1.9006
11
1.03406
21
-1.9006
0
LINE
8
BLACK
6
CONTINUOUS
10
1.03406
20
-1.9006
11
1.03411
21
-1.90059
0
LINE
8
BLACK
6
CONTINUOUS
10
1.03411
20
-1.90059
11
1.0342
21
-1.90059
0
LINE
8
BLACK
6
CONTINUOUS
10
1.0342
20
-1.90059
11
1.0342
21
-1.90059
0
LINE
8
BLACK
6
CONTINUOUS
10
1.0342
20
-1.90059
11
2.90984
21
-1.90059
0
LINE
8
BLACK
6
CONTINUOUS
10
2.90984
20
-1.90059
11
2.90993
21
-1.90059
0
LINE
8
BLACK
6
CONTINUOUS
10
2.90993
20
-1.90059
11
2.91376
21
-1.90019
0
LINE
8
BLACK
6
CONTINUOUS
10
2.91376
20
-1.90019
11
2.91739
21
-1.89906
0
LINE
8
BLACK
6
CONTINUOUS
10
2.91739
20
-1.89906
11
2.92074
21
-1.89725
0
LINE
8
BLACK
6
CONTINUOUS
10
2.92074
20
-1.89725
11
2.92367
21
-1.89483
0
LINE
8
BLACK
6
CONTINUOUS
10
2.92367
20
-1.89483
11
2.92607
21
-1.89188
0
LINE
8
BLACK
6
CONTINUOUS
10
2.92607
20
-1.89188
11
2.92786
21
-1.88853
0
LINE
8
BLACK
6
CONTINUOUS
10
2.92786
20
-1.88853
11
2.92895
21
-1.88489
0
LINE
8
BLACK
6
CONTINUOUS
10
2.92895
20
-1.88489
11
2.92933
21
-1.88106
0
LINE
8
BLACK
6
CONTINUOUS
10
2.92933
20
-1.88106
11
2.92697
21
-1.74761
0
LINE
8
BLACK
6
CONTINUOUS
10
2.92697
20
-1.74761
11
2.92697
21
-1.7476
0
LINE
8
BLACK
6
CONTINUOUS
10
2.92697
20
-1.7476
11
2.92697
21
-1.74755
0
LINE
8
BLACK
6
CONTINUOUS
10
2.92697
20
-1.74755
11
2.92657
21
-1.74372
0
LINE
8
BLACK
6
CONTINUOUS
10
2.92657
20
-1.74372
11
2.92544
21
-1.74009
0
LINE
8
BLACK
6
CONTINUOUS
10
2.92544
20
-1.74009
11
2.92363
21
-1.73674
0
LINE
8
BLACK
6
CONTINUOUS
10
2.92363
20
-1.73674
11
2.92121
21
-1.73381
0
LINE
8
BLACK
6
CONTINUOUS
10
2.92121
20
-1.73381
11
2.91826
21
-1.73141
0
LINE
8
BLACK
6
CONTINUOUS
10
2.91826
20
-1.73141
11
2.9149
21
-1.72962
0
LINE
8
BLACK
6
CONTINUOUS
10
2.9149
20
-1.72962
11
2.91126
21
-1.72853
0
LINE
8
BLACK
6
CONTINUOUS
10
2.91126
20
-1.72853
11
2.90743
21
-1.72815
0
LINE
8
BLACK
6
CONTINUOUS
10
2.90743
20
-1.72815
11
2.50861
21
-1.72697
0
LINE
8
BLACK
6
CONTINUOUS
10
2.50861
20
-1.72697
11
2.50857
21
-1.72696
0
LINE
8
BLACK
6
CONTINUOUS
10
2.50857
20
-1.72696
11
2.50857
21
-1.72696
0
LINE
8
BLACK
6
CONTINUOUS
10
2.50857
20
-1.72696
11
2.50459
21
-1.72657
0
LINE
8
BLACK
6
CONTINUOUS
10
2.50459
20
-1.72657
11
2.50458
21
-1.72657
0
LINE
8
BLACK
6
CONTINUOUS
10
2.50458
20
-1.72657
11
2.50449
21
-1.72655
0
LINE
8
BLACK
6
CONTINUOUS
10
2.50449
20
-1.72655
11
2.5044
21
-1.72654
0
LINE
8
BLACK
6
CONTINUOUS
10
2.5044
20
-1.72654
11
2.50058
21
-1.72538
0
LINE
8
BLACK
6
CONTINUOUS
10
2.50058
20
-1.72538
11
2.50056
21
-1.72538
0
LINE
8
BLACK
6
CONTINUOUS
10
2.50056
20
-1.72538
11
2.50048
21
-1.72534
0
LINE
8
BLACK
6
CONTINUOUS
10
2.50048
20
-1.72534
11
2.5004
21
-1.72531
0
LINE
8
BLACK
6
CONTINUOUS
10
2.5004
20
-1.72531
11
2.49687
21
-1.72343
0
LINE
8
BLACK
6
CONTINUOUS
10
2.49687
20
-1.72343
11
2.49686
21
-1.72343
0
LINE
8
BLACK
6
CONTINUOUS
10
2.49686
20
-1.72343
11
2.49678
21
-1.72338
0
LINE
8
BLACK
6
CONTINUOUS
10
2.49678
20
-1.72338
11
2.49671
21
-1.72333
0
LINE
8
BLACK
6
CONTINUOUS
10
2.49671
20
-1.72333
11
2.49361
21
-1.7208
0
LINE
8
BLACK
6
CONTINUOUS
10
2.49361
20
-1.7208
11
2.4936
21
-1.72079
0
LINE
8
BLACK
6
CONTINUOUS
10
2.4936
20
-1.72079
11
2.49354
21
-1.72073
0
LINE
8
BLACK
6
CONTINUOUS
10
2.49354
20
-1.72073
11
2.49348
21
-1.72067
0
LINE
8
BLACK
6
CONTINUOUS
10
2.49348
20
-1.72067
11
2.49093
21
-1.71759
0
LINE
8
BLACK
6
CONTINUOUS
10
2.49093
20
-1.71759
11
2.49092
21
-1.71758
0
LINE
8
BLACK
6
CONTINUOUS
10
2.49092
20
-1.71758
11
2.49087
21
-1.7175
0
LINE
8
BLACK
6
CONTINUOUS
10
2.49087
20
-1.7175
11
2.49082
21
-1.71743
0
LINE
8
BLACK
6
CONTINUOUS
10
2.49082
20
-1.71743
11
2.48892
21
-1.71391
0
LINE
8
BLACK
6
CONTINUOUS
10
2.48892
20
-1.71391
11
2.48892
21
-1.7139
0
LINE
8
BLACK
6
CONTINUOUS
10
2.48892
20
-1.7139
11
2.48888
21
-1.71382
0
LINE
8
BLACK
6
CONTINUOUS
10
2.48888
20
-1.71382
11
2.48885
21
-1.71374
0
LINE
8
BLACK
6
CONTINUOUS
10
2.48885
20
-1.71374
11
2.48767
21
-1.70992
0
LINE
8
BLACK
6
CONTINUOUS
10
2.48767
20
-1.70992
11
2.48766
21
-1.70991
0
LINE
8
BLACK
6
CONTINUOUS
10
2.48766
20
-1.70991
11
2.48765
21
-1.70982
0
LINE
8
BLACK
6
CONTINUOUS
10
2.48765
20
-1.70982
11
2.48763
21
-1.70973
0
LINE
8
BLACK
6
CONTINUOUS
10
2.48763
20
-1.70973
11
2.48721
21
-1.70576
0
LINE
8
BLACK
6
CONTINUOUS
10
2.48721
20
-1.70576
11
2.48721
21
-1.70574
0
LINE
8
BLACK
6
CONTINUOUS
10
2.48721
20
-1.70574
11
2.48721
21
-1.7057
0
LINE
8
BLACK
6
CONTINUOUS
10
2.48721
20
-1.7057
11
2.48721
21
-1.70566
0
LINE
8
BLACK
6
CONTINUOUS
10
2.48721
20
-1.70566
11
2.4872
21
-1.70556
0
LINE
8
BLACK
6
CONTINUOUS
10
2.4872
20
-1.70556
11
2.4872
21
-1.70556
0
LINE
8
BLACK
6
CONTINUOUS
10
2.4872
20
-1.70556
11
2.4872
21
-1.6192
0
LINE
8
BLACK
6
CONTINUOUS
10
2.4872
20
-1.6192
11
2.42625
21
-1.52894
0
LINE
8
BLACK
6
CONTINUOUS
10
2.42625
20
-1.52894
11
1.38027
21
-1.52933
0
LINE
8
BLACK
6
CONTINUOUS
10
1.38027
20
-1.52933
11
1.38022
21
-1.52933
0
LINE
8
BLACK
6
CONTINUOUS
10
1.38022
20
-1.52933
11
1.38022
21
-1.52933
0
LINE
8
BLACK
6
CONTINUOUS
10
1.38022
20
-1.52933
11
1.37624
21
-1.52894
0
LINE
8
BLACK
6
CONTINUOUS
10
1.37624
20
-1.52894
11
1.37623
21
-1.52893
0
LINE
8
BLACK
6
CONTINUOUS
10
1.37623
20
-1.52893
11
1.37614
21
-1.52892
0
LINE
8
BLACK
6
CONTINUOUS
10
1.37614
20
-1.52892
11
1.37605
21
-1.5289
0
LINE
8
BLACK
6
CONTINUOUS
10
1.37605
20
-1.5289
11
1.37223
21
-1.52774
0
LINE
8
BLACK
6
CONTINUOUS
10
1.37223
20
-1.52774
11
1.37222
21
-1.52774
0
LINE
8
BLACK
6
CONTINUOUS
10
1.37222
20
-1.52774
11
1.37213
21
-1.5277
0
LINE
8
BLACK
6
CONTINUOUS
10
1.37213
20
-1.5277
11
1.37205
21
-1.52767
0
LINE
8
BLACK
6
CONTINUOUS
10
1.37205
20
-1.52767
11
1.36852
21
-1.5258
0
LINE
8
BLACK
6
CONTINUOUS
10
1.36852
20
-1.5258
11
1.36851
21
-1.52579
0
LINE
8
BLACK
6
CONTINUOUS
10
1.36851
20
-1.52579
11
1.36844
21
-1.52574
0
LINE
8
BLACK
6
CONTINUOUS
10
1.36844
20
-1.52574
11
1.36836
21
-1.52569
0
LINE
8
BLACK
6
CONTINUOUS
10
1.36836
20
-1.52569
11
1.36527
21
-1.52316
0
LINE
8
BLACK
6
CONTINUOUS
10
1.36527
20
-1.52316
11
1.36526
21
-1.52315
0
LINE
8
BLACK
6
CONTINUOUS
10
1.36526
20
-1.52315
11
1.36519
21
-1.52309
0
LINE
8
BLACK
6
CONTINUOUS
10
1.36519
20
-1.52309
11
1.36513
21
-1.52303
0
LINE
8
BLACK
6
CONTINUOUS
10
1.36513
20
-1.52303
11
1.36258
21
-1.51995
0
LINE
8
BLACK
6
CONTINUOUS
10
1.36258
20
-1.51995
11
1.36258
21
-1.51994
0
LINE
8
BLACK
6
CONTINUOUS
10
1.36258
20
-1.51994
11
1.36253
21
-1.51986
0
LINE
8
BLACK
6
CONTINUOUS
10
1.36253
20
-1.51986
11
1.36248
21
-1.51979
0
LINE
8
BLACK
6
CONTINUOUS
10
1.36248
20
-1.51979
11
1.36058
21
-1.51628
0
LINE
8
BLACK
6
CONTINUOUS
10
1.36058
20
-1.51628
11
1.36057
21
-1.51626
0
LINE
8
BLACK
6
CONTINUOUS
10
1.36057
20
-1.51626
11
1.36054
21
-1.51618
0
LINE
8
BLACK
6
CONTINUOUS
10
1.36054
20
-1.51618
11
1.3605
21
-1.5161
0
LINE
8
BLACK
6
CONTINUOUS
10
1.3605
20
-1.5161
11
1.35932
21
-1.51228
0
LINE
8
BLACK
6
CONTINUOUS
10
1.35932
20
-1.51228
11
1.35932
21
-1.51227
0
LINE
8
BLACK
6
CONTINUOUS
10
1.35932
20
-1.51227
11
1.3593
21
-1.51218
0
LINE
8
BLACK
6
CONTINUOUS
10
1.3593
20
-1.51218
11
1.35928
21
-1.51209
0
LINE
8
BLACK
6
CONTINUOUS
10
1.35928
20
-1.51209
11
1.35886
21
-1.50812
0
LINE
8
BLACK
6
CONTINUOUS
10
1.35886
20
-1.50812
11
1.35886
21
-1.50811
0
LINE
8
BLACK
6
CONTINUOUS
10
1.35886
20
-1.50811
11
1.35886
21
-1.50806
0
LINE
8
BLACK
6
CONTINUOUS
10
1.35886
20
-1.50806
11
1.35886
21
-1.50802
0
LINE
8
BLACK
6
CONTINUOUS
10
1.35886
20
-1.50802
11
1.35886
21
-1.50792
0
LINE
8
BLACK
6
CONTINUOUS
10
1.35886
20
-1.50792
11
1.35886
21
-1.50792
0
LINE
8
BLACK
6
CONTINUOUS
10
1.35886
20
-1.50792
11
1.35807
21
-0.95704
0
LINE
8
BLACK
6
CONTINUOUS
10
1.35807
20
-0.95704
11
1.35808
21
-0.956991
0
LINE
8
BLACK
6
CONTINUOUS
10
1.35808
20
-0.956991
11
1.35808
21
-0.956991
0
LINE
8
BLACK
6
CONTINUOUS
10
1.35808
20
-0.956991
11
1.35847
21
-0.953014
0
LINE
8
BLACK
6
CONTINUOUS
10
1.35847
20
-0.953014
11
1.35847
21
-0.953
0
LINE
8
BLACK
6
CONTINUOUS
10
1.35847
20
-0.953
11
1.35849
21
-0.952913
0
LINE
8
BLACK
6
CONTINUOUS
10
1.35849
20
-0.952913
11
1.3585
21
-0.952826
0
LINE
8
BLACK
6
CONTINUOUS
10
1.3585
20
-0.952826
11
1.35966
21
-0.949001
0
LINE
8
BLACK
6
CONTINUOUS
10
1.35966
20
-0.949001
11
1.35966
21
-0.948988
0
LINE
8
BLACK
6
CONTINUOUS
10
1.35966
20
-0.948988
11
1.3597
21
-0.948905
0
LINE
8
BLACK
6
CONTINUOUS
10
1.3597
20
-0.948905
11
1.35973
21
-0.948823
0
LINE
8
BLACK
6
CONTINUOUS
10
1.35973
20
-0.948823
11
1.36161
21
-0.945295
0
LINE
8
BLACK
6
CONTINUOUS
10
1.36161
20
-0.945295
11
1.36161
21
-0.945283
0
LINE
8
BLACK
6
CONTINUOUS
10
1.36161
20
-0.945283
11
1.36166
21
-0.94521
0
LINE
8
BLACK
6
CONTINUOUS
10
1.36166
20
-0.94521
11
1.36171
21
-0.945135
0
LINE
8
BLACK
6
CONTINUOUS
10
1.36171
20
-0.945135
11
1.36424
21
-0.942039
0
LINE
8
BLACK
6
CONTINUOUS
10
1.36424
20
-0.942039
11
1.36425
21
-0.942028
0
LINE
8
BLACK
6
CONTINUOUS
10
1.36425
20
-0.942028
11
1.36431
21
-0.941966
0
LINE
8
BLACK
6
CONTINUOUS
10
1.36431
20
-0.941966
11
1.36437
21
-0.941903
0
LINE
8
BLACK
6
CONTINUOUS
10
1.36437
20
-0.941903
11
1.36745
21
-0.939356
0
LINE
8
BLACK
6
CONTINUOUS
10
1.36745
20
-0.939356
11
1.36745
21
-0.939356
0
LINE
8
BLACK
6
CONTINUOUS
10
1.36745
20
-0.939356
11
1.36745
21
-0.939356
0
LINE
8
BLACK
6
CONTINUOUS
10
1.36745
20
-0.939356
11
1.36746
21
-0.939347
0
LINE
8
BLACK
6
CONTINUOUS
10
1.36746
20
-0.939347
11
1.36754
21
-0.939298
0
LINE
8
BLACK
6
CONTINUOUS
10
1.36754
20
-0.939298
11
1.36761
21
-0.939248
0
LINE
8
BLACK
6
CONTINUOUS
10
1.36761
20
-0.939248
11
1.37113
21
-0.937348
0
LINE
8
BLACK
6
CONTINUOUS
10
1.37113
20
-0.937348
11
1.37113
21
-0.937348
0
LINE
8
BLACK
6
CONTINUOUS
10
1.37113
20
-0.937348
11
1.37113
21
-0.937348
0
LINE
8
BLACK
6
CONTINUOUS
10
1.37113
20
-0.937348
11
1.37114
21
-0.937342
0
LINE
8
BLACK
6
CONTINUOUS
10
1.37114
20
-0.937342
11
1.37122
21
-0.937308
0
LINE
8
BLACK
6
CONTINUOUS
10
1.37122
20
-0.937308
11
1.3713
21
-0.937274
0
LINE
8
BLACK
6
CONTINUOUS
10
1.3713
20
-0.937274
11
1.37512
21
-0.936092
0
LINE
8
BLACK
6
CONTINUOUS
10
1.37512
20
-0.936092
11
1.37512
21
-0.936092
0
LINE
8
BLACK
6
CONTINUOUS
10
1.37512
20
-0.936092
11
1.37513
21
-0.936088
0
LINE
8
BLACK
6
CONTINUOUS
10
1.37513
20
-0.936088
11
1.37522
21
-0.936071
0
LINE
8
BLACK
6
CONTINUOUS
10
1.37522
20
-0.936071
11
1.37531
21
-0.936053
0
LINE
8
BLACK
6
CONTINUOUS
10
1.37531
20
-0.936053
11
1.37928
21
-0.935636
0
LINE
8
BLACK
6
CONTINUOUS
10
1.37928
20
-0.935636
11
1.3793
21
-0.935634
0
LINE
8
BLACK
6
CONTINUOUS
10
1.3793
20
-0.935634
11
1.37934
21
-0.935635
0
LINE
8
BLACK
6
CONTINUOUS
10
1.37934
20
-0.935635
11
1.37938
21
-0.93563
0
LINE
8
BLACK
6
CONTINUOUS
10
1.37938
20
-0.93563
11
1.37952
21
-0.93563
0
LINE
8
BLACK
6
CONTINUOUS
10
1.37952
20
-0.93563
11
1.37953
21
-0.93563
0
LINE
8
BLACK
6
CONTINUOUS
10
1.37953
20
-0.93563
11
4.30977
21
-0.923032
0
LINE
8
BLACK
6
CONTINUOUS
10
4.30977
20
-0.923032
11
4.30979
21
-0.923028
0
LINE
8
BLACK
6
CONTINUOUS
10
4.30979
20
-0.923028
11
4.30986
21
-0.923031
0
LINE
8
BLACK
6
CONTINUOUS
10
4.30986
20
-0.923031
11
4.30989
21
-0.923031
0
LINE
8
BLACK
6
CONTINUOUS
10
4.30989
20
-0.923031
11
4.30991
21
-0.923034
0
LINE
8
BLACK
6
CONTINUOUS
10
4.30991
20
-0.923034
11
4.30999
21
-0.923037
0
LINE
8
BLACK
6
CONTINUOUS
10
4.30999
20
-0.923037
11
4.31001
21
-0.923043
0
LINE
8
BLACK
6
CONTINUOUS
10
4.31001
20
-0.923043
11
4.31003
21
-0.923045
0
LINE
8
BLACK
6
CONTINUOUS
10
4.31003
20
-0.923045
11
4.3101
21
-0.923066
0
LINE
8
BLACK
6
CONTINUOUS
10
4.3101
20
-0.923066
11
4.31017
21
-0.923084
0
LINE
8
BLACK
6
CONTINUOUS
10
4.31017
20
-0.923084
11
4.31019
21
-0.923094
0
LINE
8
BLACK
6
CONTINUOUS
10
4.31019
20
-0.923094
11
4.31022
21
-0.9231
0
LINE
8
BLACK
6
CONTINUOUS
10
4.31022
20
-0.9231
11
4.31028
21
-0.923135
0
LINE
8
BLACK
6
CONTINUOUS
10
4.31028
20
-0.923135
11
4.31035
21
-0.923166
0
LINE
8
BLACK
6
CONTINUOUS
10
4.31035
20
-0.923166
11
4.31037
21
-0.92318
0
LINE
8
BLACK
6
CONTINUOUS
10
4.31037
20
-0.92318
11
4.31039
21
-0.923191
0
LINE
8
BLACK
6
CONTINUOUS
10
4.31039
20
-0.923191
11
4.31045
21
-0.923238
0
LINE
8
BLACK
6
CONTINUOUS
10
4.31045
20
-0.923238
11
4.31047
21
-0.923253
0
LINE
8
BLACK
6
CONTINUOUS
10
4.31047
20
-0.923253
11
4.31048
21
-0.923268
0
LINE
8
BLACK
6
CONTINUOUS
10
4.31048
20
-0.923268
11
4.31054
21
-0.923313
0
LINE
8
BLACK
6
CONTINUOUS
10
4.31054
20
-0.923313
11
4.31056
21
-0.923333
0
LINE
8
BLACK
6
CONTINUOUS
10
4.31056
20
-0.923333
11
4.44369
21
-1.0435
0
LINE
8
BLACK
6
CONTINUOUS
10
4.44369
20
-1.0435
11
4.6716
21
-1.0435
0
LINE
8
BLACK
6
CONTINUOUS
10
4.6716
20
-1.0435
11
4.67163
21
-1.0435
0
LINE
8
BLACK
6
CONTINUOUS
10
4.67163
20
-1.0435
11
4.67169
21
-1.0435
0
LINE
8
BLACK
6
CONTINUOUS
10
4.67169
20
-1.0435
11
4.6717
21
-1.0435
0
LINE
8
BLACK
6
CONTINUOUS
10
4.6717
20
-1.0435
11
4.67174
21
-1.04351
0
LINE
8
BLACK
6
CONTINUOUS
10
4.67174
20
-1.04351
11
4.67183
21
-1.04351
0
LINE
8
BLACK
6
CONTINUOUS
10
4.67183
20
-1.04351
11
4.67184
21
-1.04352
0
LINE
8
BLACK
6
CONTINUOUS
10
4.67184
20
-1.04352
11
4.67185
21
-1.04352
0
LINE
8
BLACK
6
CONTINUOUS
10
4.67185
20
-1.04352
11
4.67193
21
-1.04354
0
LINE
8
BLACK
6
CONTINUOUS
10
4.67193
20
-1.04354
11
4.67201
21
-1.04357
0
LINE
8
BLACK
6
CONTINUOUS
10
4.67201
20
-1.04357
11
4.67202
21
-1.04357
0
LINE
8
BLACK
6
CONTINUOUS
10
4.67202
20
-1.04357
11
4.67203
21
-1.04357
0
LINE
8
BLACK
6
CONTINUOUS
10
4.67203
20
-1.04357
11
4.67211
21
-1.04362
0
LINE
8
BLACK
6
CONTINUOUS
10
4.67211
20
-1.04362
11
4.67214
21
-1.04363
0
LINE
8
BLACK
6
CONTINUOUS
10
4.67214
20
-1.04363
11
4.67215
21
-1.04364
0
LINE
8
BLACK
6
CONTINUOUS
10
4.67215
20
-1.04364
11
4.6722
21
-1.04367
0
LINE
8
BLACK
6
CONTINUOUS
10
4.6722
20
-1.04367
11
4.67223
21
-1.04369
0
LINE
8
BLACK
6
CONTINUOUS
10
4.67223
20
-1.04369
11
4.7442
21
-1.0897
0
LINE
8
BLACK
6
CONTINUOUS
10
4.7442
20
-1.0897
11
4.74425
21
-1.08973
0
LINE
8
BLACK
6
CONTINUOUS
10
4.74425
20
-1.08973
11
4.74432
21
-1.08978
0
LINE
8
BLACK
6
CONTINUOUS
10
4.74432
20
-1.08978
11
4.74439
21
-1.08984
0
LINE
8
BLACK
6
CONTINUOUS
10
4.74439
20
-1.08984
11
4.74439
21
-1.08985
0
LINE
8
BLACK
6
CONTINUOUS
10
4.74439
20
-1.08985
11
4.7444
21
-1.08985
0
LINE
8
BLACK
6
CONTINUOUS
10
4.7444
20
-1.08985
11
4.74446
21
-1.08992
0
LINE
8
BLACK
6
CONTINUOUS
10
4.74446
20
-1.08992
11
4.74451
21
-1.08999
0
LINE
8
BLACK
6
CONTINUOUS
10
4.74451
20
-1.08999
11
4.74452
21
-1.08999
0
LINE
8
BLACK
6
CONTINUOUS
10
4.74452
20
-1.08999
11
4.74452
21
-1.09
0
LINE
8
BLACK
6
CONTINUOUS
10
4.74452
20
-1.09
11
4.74456
21
-1.09008
0
LINE
8
BLACK
6
CONTINUOUS
10
4.74456
20
-1.09008
11
4.74461
21
-1.09015
0
LINE
8
BLACK
6
CONTINUOUS
10
4.74461
20
-1.09015
11
4.74461
21
-1.09016
0
LINE
8
BLACK
6
CONTINUOUS
10
4.74461
20
-1.09016
11
4.74461
21
-1.09017
0
LINE
8
BLACK
6
CONTINUOUS
10
4.74461
20
-1.09017
11
4.74464
21
-1.09025
0
LINE
8
BLACK
6
CONTINUOUS
10
4.74464
20
-1.09025
11
4.74467
21
-1.09034
0
LINE
8
BLACK
6
CONTINUOUS
10
4.74467
20
-1.09034
11
4.74467
21
-1.09035
0
LINE
8
BLACK
6
CONTINUOUS
10
4.74467
20
-1.09035
11
4.74467
21
-1.09036
0
LINE
8
BLACK
6
CONTINUOUS
10
4.74467
20
-1.09036
11
4.74468
21
-1.09044
0
LINE
8
BLACK
6
CONTINUOUS
10
4.74468
20
-1.09044
11
4.74469
21
-1.09053
0
LINE
8
BLACK
6
CONTINUOUS
10
4.74469
20
-1.09053
11
4.74469
21
-1.09059
0
LINE
8
BLACK
6
CONTINUOUS
10
4.74469
20
-1.09059
11
4.74469
21
-1.38942
0
LINE
8
BLACK
6
CONTINUOUS
10
4.74469
20
-1.38942
11
4.74468
21
-1.38947
0
LINE
8
BLACK
6
CONTINUOUS
10
4.74468
20
-1.38947
11
4.74468
21
-1.38947
0
LINE
8
BLACK
6
CONTINUOUS
10
4.74468
20
-1.38947
11
4.74429
21
-1.39344
0
LINE
8
BLACK
6
CONTINUOUS
10
4.74429
20
-1.39344
11
4.74429
21
-1.39346
0
LINE
8
BLACK
6
CONTINUOUS
10
4.74429
20
-1.39346
11
4.74427
21
-1.39354
0
LINE
8
BLACK
6
CONTINUOUS
10
4.74427
20
-1.39354
11
4.74425
21
-1.39363
0
LINE
8
BLACK
6
CONTINUOUS
10
4.74425
20
-1.39363
11
4.7431
21
-1.39746
0
LINE
8
BLACK
6
CONTINUOUS
10
4.7431
20
-1.39746
11
4.74309
21
-1.39747
0
LINE
8
BLACK
6
CONTINUOUS
10
4.74309
20
-1.39747
11
4.74306
21
-1.39755
0
LINE
8
BLACK
6
CONTINUOUS
10
4.74306
20
-1.39755
11
4.74303
21
-1.39763
0
LINE
8
BLACK
6
CONTINUOUS
10
4.74303
20
-1.39763
11
4.74115
21
-1.40116
0
LINE
8
BLACK
6
CONTINUOUS
10
4.74115
20
-1.40116
11
4.74114
21
-1.40117
0
LINE
8
BLACK
6
CONTINUOUS
10
4.74114
20
-1.40117
11
4.74109
21
-1.40125
0
LINE
8
BLACK
6
CONTINUOUS
10
4.74109
20
-1.40125
11
4.74104
21
-1.40132
0
LINE
8
BLACK
6
CONTINUOUS
10
4.74104
20
-1.40132
11
4.73852
21
-1.40442
0
LINE
8
BLACK
6
CONTINUOUS
10
4.73852
20
-1.40442
11
4.73851
21
-1.40443
0
LINE
8
BLACK
6
CONTINUOUS
10
4.73851
20
-1.40443
11
4.73845
21
-1.40449
0
LINE
8
BLACK
6
CONTINUOUS
10
4.73845
20
-1.40449
11
4.73838
21
-1.40455
0
LINE
8
BLACK
6
CONTINUOUS
10
4.73838
20
-1.40455
11
4.7353
21
-1.4071
0
LINE
8
BLACK
6
CONTINUOUS
10
4.7353
20
-1.4071
11
4.73529
21
-1.40711
0
LINE
8
BLACK
6
CONTINUOUS
10
4.73529
20
-1.40711
11
4.73522
21
-1.40716
0
LINE
8
BLACK
6
CONTINUOUS
10
4.73522
20
-1.40716
11
4.73514
21
-1.40721
0
LINE
8
BLACK
6
CONTINUOUS
10
4.73514
20
-1.40721
11
4.73163
21
-1.40911
0
LINE
8
BLACK
6
CONTINUOUS
10
4.73163
20
-1.40911
11
4.73162
21
-1.40912
0
LINE
8
BLACK
6
CONTINUOUS
10
4.73162
20
-1.40912
11
4.73154
21
-1.40915
0
LINE
8
BLACK
6
CONTINUOUS
10
4.73154
20
-1.40915
11
4.73145
21
-1.40918
0
LINE
8
BLACK
6
CONTINUOUS
10
4.73145
20
-1.40918
11
4.72764
21
-1.41036
0
LINE
8
BLACK
6
CONTINUOUS
10
4.72764
20
-1.41036
11
4.72762
21
-1.41037
0
LINE
8
BLACK
6
CONTINUOUS
10
4.72762
20
-1.41037
11
4.72753
21
-1.41039
0
LINE
8
BLACK
6
CONTINUOUS
10
4.72753
20
-1.41039
11
4.72745
21
-1.4104
0
LINE
8
BLACK
6
CONTINUOUS
10
4.72745
20
-1.4104
11
4.72347
21
-1.41082
0
LINE
8
BLACK
6
CONTINUOUS
10
4.72347
20
-1.41082
11
4.72346
21
-1.41082
0
LINE
8
BLACK
6
CONTINUOUS
10
4.72346
20
-1.41082
11
4.72342
21
-1.41082
0
LINE
8
BLACK
6
CONTINUOUS
10
4.72342
20
-1.41082
11
4.72337
21
-1.41083
0
LINE
8
BLACK
6
CONTINUOUS
10
4.72337
20
-1.41083
11
4.72328
21
-1.41083
0
LINE
8
BLACK
6
CONTINUOUS
10
4.72328
20
-1.41083
11
4.72328
21
-1.41083
0
LINE
8
BLACK
6
CONTINUOUS
10
4.72328
20
-1.41083
11
4.55122
21
-1.41083
0
LINE
8
BLACK
6
CONTINUOUS
10
4.55122
20
-1.41083
11
4.40232
21
-1.57151
0
LINE
8
BLACK
6
CONTINUOUS
10
2.91157
20
-1.72658
11
2.91165
21
-1.7266
0
LINE
8
BLACK
6
CONTINUOUS
10
2.91165
20
-1.7266
11
2.91174
21
-1.72661
0
LINE
8
BLACK
6
CONTINUOUS
10
2.91174
20
-1.72661
11
2.91557
21
-1.72777
0
LINE
8
BLACK
6
CONTINUOUS
10
2.91557
20
-1.72777
11
2.91558
21
-1.72777
0
LINE
8
BLACK
6
CONTINUOUS
10
2.91558
20
-1.72777
11
2.91566
21
-1.72781
0
LINE
8
BLACK
6
CONTINUOUS
10
2.91566
20
-1.72781
11
2.91574
21
-1.72784
0
LINE
8
BLACK
6
CONTINUOUS
10
2.91574
20
-1.72784
11
2.91927
21
-1.72972
0
LINE
8
BLACK
6
CONTINUOUS
10
2.91927
20
-1.72972
11
2.91928
21
-1.72972
0
LINE
8
BLACK
6
CONTINUOUS
10
2.91928
20
-1.72972
11
2.91936
21
-1.72977
0
LINE
8
BLACK
6
CONTINUOUS
10
2.91936
20
-1.72977
11
2.91943
21
-1.72982
0
LINE
8
BLACK
6
CONTINUOUS
10
2.91943
20
-1.72982
11
2.92253
21
-1.73235
0
LINE
8
BLACK
6
CONTINUOUS
10
2.92253
20
-1.73235
11
2.92254
21
-1.73236
0
LINE
8
BLACK
6
CONTINUOUS
10
2.92254
20
-1.73236
11
2.9226
21
-1.73242
0
LINE
8
BLACK
6
CONTINUOUS
10
2.9226
20
-1.73242
11
2.92266
21
-1.73248
0
LINE
8
BLACK
6
CONTINUOUS
10
2.92266
20
-1.73248
11
2.92521
21
-1.73556
0
LINE
8
BLACK
6
CONTINUOUS
10
2.92521
20
-1.73556
11
2.92521
21
-1.73556
0
LINE
8
BLACK
6
CONTINUOUS
10
2.92521
20
-1.73556
11
2.92521
21
-1.73556
0
LINE
8
BLACK
6
CONTINUOUS
10
2.92521
20
-1.73556
11
2.92522
21
-1.73557
0
LINE
8
BLACK
6
CONTINUOUS
10
2.92522
20
-1.73557
11
2.92527
21
-1.73565
0
LINE
8
BLACK
6
CONTINUOUS
10
2.92527
20
-1.73565
11
2.92532
21
-1.73572
0
LINE
8
BLACK
6
CONTINUOUS
10
2.92532
20
-1.73572
11
2.92722
21
-1.73924
0
LINE
8
BLACK
6
CONTINUOUS
10
2.92722
20
-1.73924
11
2.92722
21
-1.73924
0
LINE
8
BLACK
6
CONTINUOUS
10
2.92722
20
-1.73924
11
2.92722
21
-1.73924
0
LINE
8
BLACK
6
CONTINUOUS
10
2.92722
20
-1.73924
11
2.92723
21
-1.73925
0
LINE
8
BLACK
6
CONTINUOUS
10
2.92723
20
-1.73925
11
2.92726
21
-1.73933
0
LINE
8
BLACK
6
CONTINUOUS
10
2.92726
20
-1.73933
11
2.92729
21
-1.73941
0
LINE
8
BLACK
6
CONTINUOUS
10
2.92729
20
-1.73941
11
2.92847
21
-1.74323
0
LINE
8
BLACK
6
CONTINUOUS
10
2.92847
20
-1.74323
11
2.92848
21
-1.74324
0
LINE
8
BLACK
6
CONTINUOUS
10
2.92848
20
-1.74324
11
2.9285
21
-1.74333
0
LINE
8
BLACK
6
CONTINUOUS
10
2.9285
20
-1.74333
11
2.92851
21
-1.74342
0
LINE
8
BLACK
6
CONTINUOUS
10
2.92851
20
-1.74342
11
2.92893
21
-1.74739
0
LINE
8
BLACK
6
CONTINUOUS
10
2.92893
20
-1.74739
11
2.92893
21
-1.74741
0
LINE
8
BLACK
6
CONTINUOUS
10
2.92893
20
-1.74741
11
2.92893
21
-1.74745
0
LINE
8
BLACK
6
CONTINUOUS
10
2.92893
20
-1.74745
11
2.92894
21
-1.74749
0
LINE
8
BLACK
6
CONTINUOUS
10
2.92894
20
-1.74749
11
2.92894
21
-1.74763
0
LINE
8
BLACK
6
CONTINUOUS
10
2.92894
20
-1.74763
11
2.9313
21
-1.88113
0
LINE
8
BLACK
6
CONTINUOUS
10
2.9313
20
-1.88113
11
2.93129
21
-1.88128
0
LINE
8
BLACK
6
CONTINUOUS
10
2.93129
20
-1.88128
11
2.93129
21
-1.88129
0
LINE
8
BLACK
6
CONTINUOUS
10
2.93129
20
-1.88129
11
2.9309
21
-1.88517
0
LINE
8
BLACK
6
CONTINUOUS
10
2.9309
20
-1.88517
11
2.9309
21
-1.88519
0
LINE
8
BLACK
6
CONTINUOUS
10
2.9309
20
-1.88519
11
2.93088
21
-1.88528
0
LINE
8
BLACK
6
CONTINUOUS
10
2.93088
20
-1.88528
11
2.93087
21
-1.88536
0
LINE
8
BLACK
6
CONTINUOUS
10
2.93087
20
-1.88536
11
2.92971
21
-1.88919
0
LINE
8
BLACK
6
CONTINUOUS
10
2.92971
20
-1.88919
11
2.92971
21
-1.8892
0
LINE
8
BLACK
6
CONTINUOUS
10
2.92971
20
-1.8892
11
2.92967
21
-1.88928
0
LINE
8
BLACK
6
CONTINUOUS
10
2.92967
20
-1.88928
11
2.92964
21
-1.88937
0
LINE
8
BLACK
6
CONTINUOUS
10
2.92964
20
-1.88937
11
2.92776
21
-1.89289
0
LINE
8
BLACK
6
CONTINUOUS
10
2.92776
20
-1.89289
11
2.92776
21
-1.89291
0
LINE
8
BLACK
6
CONTINUOUS
10
2.92776
20
-1.89291
11
2.92771
21
-1.89298
0
LINE
8
BLACK
6
CONTINUOUS
10
2.92771
20
-1.89298
11
2.92766
21
-1.89305
0
LINE
8
BLACK
6
CONTINUOUS
10
2.92766
20
-1.89305
11
2.92513
21
-1.89615
0
LINE
8
BLACK
6
CONTINUOUS
10
2.92513
20
-1.89615
11
2.92512
21
-1.89616
0
LINE
8
BLACK
6
CONTINUOUS
10
2.92512
20
-1.89616
11
2.92506
21
-1.89622
0
LINE
8
BLACK
6
CONTINUOUS
10
2.92506
20
-1.89622
11
2.925
21
-1.89629
0
LINE
8
BLACK
6
CONTINUOUS
10
2.925
20
-1.89629
11
2.92192
21
-1.89883
0
LINE
8
BLACK
6
CONTINUOUS
10
2.92192
20
-1.89883
11
2.92191
21
-1.89884
0
LINE
8
BLACK
6
CONTINUOUS
10
2.92191
20
-1.89884
11
2.92183
21
-1.89889
0
LINE
8
BLACK
6
CONTINUOUS
10
2.92183
20
-1.89889
11
2.92176
21
-1.89894
0
LINE
8
BLACK
6
CONTINUOUS
10
2.92176
20
-1.89894
11
2.91824
21
-1.90084
0
LINE
8
BLACK
6
CONTINUOUS
10
2.91824
20
-1.90084
11
2.91823
21
-1.90085
0
LINE
8
BLACK
6
CONTINUOUS
10
2.91823
20
-1.90085
11
2.91815
21
-1.90088
0
LINE
8
BLACK
6
CONTINUOUS
10
2.91815
20
-1.90088
11
2.91807
21
-1.90092
0
LINE
8
BLACK
6
CONTINUOUS
10
2.91807
20
-1.90092
11
2.91425
21
-1.9021
0
LINE
8
BLACK
6
CONTINUOUS
10
2.91425
20
-1.9021
11
2.91424
21
-1.9021
0
LINE
8
BLACK
6
CONTINUOUS
10
2.91424
20
-1.9021
11
2.91415
21
-1.90212
0
LINE
8
BLACK
6
CONTINUOUS
10
2.91415
20
-1.90212
11
2.91406
21
-1.90214
0
LINE
8
BLACK
6
CONTINUOUS
10
2.91406
20
-1.90214
11
2.91009
21
-1.90255
0
LINE
8
BLACK
6
CONTINUOUS
10
2.91009
20
-1.90255
11
2.91007
21
-1.90255
0
LINE
8
BLACK
6
CONTINUOUS
10
2.91007
20
-1.90255
11
2.91003
21
-1.90255
0
LINE
8
BLACK
6
CONTINUOUS
10
2.91003
20
-1.90255
11
2.90999
21
-1.90256
0
LINE
8
BLACK
6
CONTINUOUS
10
2.90999
20
-1.90256
11
2.90989
21
-1.90256
0
LINE
8
BLACK
6
CONTINUOUS
10
2.90989
20
-1.90256
11
2.90989
21
-1.90256
0
LINE
8
BLACK
6
CONTINUOUS
10
2.90989
20
-1.90256
11
1.03426
21
-1.90256
0
LINE
8
BLACK
6
CONTINUOUS
10
1.03426
20
-1.90256
11
1.03416
21
-1.90256
0
LINE
8
BLACK
6
CONTINUOUS
10
1.03416
20
-1.90256
11
1.03033
21
-1.90296
0
LINE
8
BLACK
6
CONTINUOUS
10
1.03033
20
-1.90296
11
1.0267
21
-1.90409
0
LINE
8
BLACK
6
CONTINUOUS
10
1.0267
20
-1.90409
11
1.02336
21
-1.90589
0
LINE
8
BLACK
6
CONTINUOUS
10
1.02336
20
-1.90589
11
1.02043
21
-1.90832
0
LINE
8
BLACK
6
CONTINUOUS
10
1.02043
20
-1.90832
11
1.01802
21
-1.91127
0
LINE
8
BLACK
6
CONTINUOUS
10
1.01802
20
-1.91127
11
1.01624
21
-1.91462
0
LINE
8
BLACK
6
CONTINUOUS
10
1.01624
20
-1.91462
11
1.01514
21
-1.91826
0
LINE
8
BLACK
6
CONTINUOUS
10
1.01514
20
-1.91826
11
1.01476
21
-1.9221
0
LINE
8
BLACK
6
CONTINUOUS
10
1.01476
20
-1.9221
11
1.01476
21
-1.92594
0
LINE
8
BLACK
6
CONTINUOUS
10
1.01476
20
-1.92594
11
1.01437
21
-4.77795
0
LINE
8
BLACK
6
CONTINUOUS
10
1.01437
20
-4.77795
11
1.01437
21
-4.77795
0
LINE
8
BLACK
6
CONTINUOUS
10
1.01437
20
-4.77795
11
1.01437
21
-4.77804
0
LINE
8
BLACK
6
CONTINUOUS
10
1.01437
20
-4.77804
11
1.01477
21
-4.78187
0
LINE
8
BLACK
6
CONTINUOUS
10
1.01477
20
-4.78187
11
1.0159
21
-4.7855
0
LINE
8
BLACK
6
CONTINUOUS
10
1.0159
20
-4.7855
11
1.01771
21
-4.78885
0
LINE
8
BLACK
6
CONTINUOUS
10
1.01771
20
-4.78885
11
1.02013
21
-4.79178
0
LINE
8
BLACK
6
CONTINUOUS
10
1.02013
20
-4.79178
11
1.02308
21
-4.79418
0
LINE
8
BLACK
6
CONTINUOUS
10
1.02308
20
-4.79418
11
1.02643
21
-4.79597
0
LINE
8
BLACK
6
CONTINUOUS
10
1.02643
20
-4.79597
11
1.03007
21
-4.79707
0
LINE
8
BLACK
6
CONTINUOUS
10
1.03007
20
-4.79707
11
1.03391
21
-4.79744
0
LINE
8
BLACK
6
CONTINUOUS
10
1.03391
20
-4.79744
11
3.8968
21
-4.79665
0
LINE
8
BLACK
6
CONTINUOUS
10
3.8968
20
-4.79665
11
3.89685
21
-4.79665
0
LINE
8
BLACK
6
CONTINUOUS
10
3.89685
20
-4.79665
11
3.89699
21
-4.79666
0
LINE
8
BLACK
6
CONTINUOUS
10
3.89699
20
-4.79666
11
3.89704
21
-4.79667
0
LINE
8
BLACK
6
CONTINUOUS
10
3.89704
20
-4.79667
11
3.89704
21
-4.79667
0
LINE
8
BLACK
6
CONTINUOUS
10
3.89704
20
-4.79667
11
3.89704
21
-4.79667
0
LINE
8
BLACK
6
CONTINUOUS
10
3.89704
20
-4.79667
11
3.89713
21
-4.79669
0
LINE
8
BLACK
6
CONTINUOUS
10
3.89713
20
-4.79669
11
3.89723
21
-4.79672
0
LINE
8
BLACK
6
CONTINUOUS
10
3.89723
20
-4.79672
11
3.89723
21
-4.79672
0
LINE
8
BLACK
6
CONTINUOUS
10
3.89723
20
-4.79672
11
3.89723
21
-4.79672
0
LINE
8
BLACK
6
CONTINUOUS
10
3.89723
20
-4.79672
11
3.89729
21
-4.79676
0
LINE
8
BLACK
6
CONTINUOUS
10
3.89729
20
-4.79676
11
3.8974
21
-4.79682
0
LINE
8
BLACK
6
CONTINUOUS
10
3.8974
20
-4.79682
11
3.89755
21
-4.79694
0
LINE
8
BLACK
6
CONTINUOUS
10
3.89755
20
-4.79694
11
3.89758
21
-4.79698
0
LINE
8
BLACK
6
CONTINUOUS
10
3.89758
20
-4.79698
11
4.01444
21
-4.91384
0
LINE
8
BLACK
6
CONTINUOUS
10
4.01444
20
-4.91384
11
4.01448
21
-4.91387
0
LINE
8
BLACK
6
CONTINUOUS
10
4.01448
20
-4.91387
11
4.0146
21
-4.91402
0
LINE
8
BLACK
6
CONTINUOUS
10
4.0146
20
-4.91402
11
4.01469
21
-4.91419
0
LINE
8
BLACK
6
CONTINUOUS
10
4.01469
20
-4.91419
11
4.01469
21
-4.91419
0
LINE
8
BLACK
6
CONTINUOUS
10
4.01469
20
-4.91419
11
4.01475
21
-4.91437
0
LINE
8
BLACK
6
CONTINUOUS
10
4.01475
20
-4.91437
11
4.01477
21
-4.91457
0
LINE
8
BLACK
6
CONTINUOUS
10
4.01477
20
-4.91457
11
4.01476
21
-4.91461
0
LINE
8
BLACK
6
CONTINUOUS
10
4.01476
20
-4.91461
11
4.01476
21
-5.52637
0
LINE
8
BLACK
6
CONTINUOUS
10
4.01476
20
-5.52637
11
4.01476
21
-5.52647
0
LINE
8
BLACK
6
CONTINUOUS
10
4.01476
20
-5.52647
11
4.01517
21
-5.5303
0
LINE
8
BLACK
6
CONTINUOUS
10
4.01517
20
-5.5303
11
4.01629
21
-5.53393
0
LINE
8
BLACK
6
CONTINUOUS
10
4.01629
20
-5.53393
11
4.0181
21
-5.53727
0
LINE
8
BLACK
6
CONTINUOUS
10
4.0181
20
-5.53727
11
4.02052
21
-5.5402
0
LINE
8
BLACK
6
CONTINUOUS
10
4.02052
20
-5.5402
11
4.02347
21
-5.54261
0
LINE
8
BLACK
6
CONTINUOUS
10
4.02347
20
-5.54261
11
4.02683
21
-5.54439
0
LINE
8
BLACK
6
CONTINUOUS
10
4.02683
20
-5.54439
11
4.03047
21
-5.54549
0
LINE
8
BLACK
6
CONTINUOUS
10
4.03047
20
-5.54549
11
4.0343
21
-5.54587
0
LINE
8
BLACK
6
CONTINUOUS
10
4.0343
20
-5.54587
11
6.09055
21
-5.54508
0
LINE
8
BLACK
6
CONTINUOUS
10
6.09055
20
-5.54508
11
6.09055
21
-5.54508
0
LINE
8
BLACK
6
CONTINUOUS
10
6.09055
20
-5.54508
11
6.09064
21
-5.54508
0
LINE
8
BLACK
6
CONTINUOUS
10
6.09064
20
-5.54508
11
6.09447
21
-5.54468
0
LINE
8
BLACK
6
CONTINUOUS
10
6.09447
20
-5.54468
11
6.0981
21
-5.54355
0
LINE
8
BLACK
6
CONTINUOUS
10
6.0981
20
-5.54355
11
6.10145
21
-5.54174
0
LINE
8
BLACK
6
CONTINUOUS
10
6.10145
20
-5.54174
11
6.10438
21
-5.53932
0
LINE
8
BLACK
6
CONTINUOUS
10
6.10438
20
-5.53932
11
6.10678
21
-5.53637
0
LINE
8
BLACK
6
CONTINUOUS
10
6.10678
20
-5.53637
11
6.10856
21
-5.53302
0
LINE
8
BLACK
6
CONTINUOUS
10
6.10856
20
-5.53302
11
6.10966
21
-5.52937
0
LINE
8
BLACK
6
CONTINUOUS
10
6.10966
20
-5.52937
11
6.11004
21
-5.52554
0
LINE
8
BLACK
6
CONTINUOUS
10
6.11004
20
-5.52554
11
6.10965
21
-4.95202
0
LINE
8
BLACK
6
CONTINUOUS
10
6.10965
20
-4.95202
11
6.10965
21
-4.95202
0
LINE
8
BLACK
6
CONTINUOUS
10
6.10965
20
-4.95202
11
6.10925
21
-3.8965
0
LINE
8
BLACK
6
CONTINUOUS
10
6.10925
20
-3.8965
11
6.10925
21
-3.89646
0
LINE
8
BLACK
6
CONTINUOUS
10
6.10925
20
-3.89646
11
6.10927
21
-3.89626
0
LINE
8
BLACK
6
CONTINUOUS
10
6.10927
20
-3.89626
11
6.1093
21
-3.89616
0
LINE
8
BLACK
6
CONTINUOUS
10
6.1093
20
-3.89616
11
6.10932
21
-3.89608
0
LINE
8
BLACK
6
CONTINUOUS
10
6.10932
20
-3.89608
11
6.10932
21
-3.89608
0
LINE
8
BLACK
6
CONTINUOUS
10
6.10932
20
-3.89608
11
6.10932
21
-3.89608
0
LINE
8
BLACK
6
CONTINUOUS
10
6.10932
20
-3.89608
11
6.10935
21
-3.89603
0
LINE
8
BLACK
6
CONTINUOUS
10
6.10935
20
-3.89603
11
6.10941
21
-3.89591
0
LINE
8
BLACK
6
CONTINUOUS
10
6.10941
20
-3.89591
11
6.10954
21
-3.89576
0
LINE
8
BLACK
6
CONTINUOUS
10
6.10954
20
-3.89576
11
6.10957
21
-3.89573
0
LINE
8
BLACK
6
CONTINUOUS
10
6.10957
20
-3.89573
11
6.25256
21
-3.75274
0
LINE
8
BLACK
6
CONTINUOUS
10
6.25256
20
-3.75274
11
6.25217
21
-2.3437
0
LINE
8
BLACK
6
CONTINUOUS
10
6.25217
20
-2.3437
11
6.25217
21
-2.34361
0
LINE
8
BLACK
6
CONTINUOUS
10
6.25217
20
-2.34361
11
6.25176
21
-2.33978
0
LINE
8
BLACK
6
CONTINUOUS
10
6.25176
20
-2.33978
11
6.25064
21
-2.33615
0
LINE
8
BLACK
6
CONTINUOUS
10
6.25064
20
-2.33615
11
6.24883
21
-2.33281
0
LINE
8
BLACK
6
CONTINUOUS
10
6.24883
20
-2.33281
11
6.24641
21
-2.32988
0
LINE
8
BLACK
6
CONTINUOUS
10
6.24641
20
-2.32988
11
6.24346
21
-2.32747
0
LINE
8
BLACK
6
CONTINUOUS
10
6.24346
20
-2.32747
11
6.2401
21
-2.32569
0
LINE
8
BLACK
6
CONTINUOUS
10
6.2401
20
-2.32569
11
6.23646
21
-2.32459
0
LINE
8
BLACK
6
CONTINUOUS
10
6.23646
20
-2.32459
11
6.23263
21
-2.32421
0
LINE
8
BLACK
6
CONTINUOUS
10
6.23263
20
-2.32421
11
5.58981
21
-2.32461
0
LINE
8
BLACK
6
CONTINUOUS
10
5.58981
20
-2.32461
11
5.58976
21
-2.32461
0
LINE
8
BLACK
6
CONTINUOUS
10
5.58976
20
-2.32461
11
5.5896
21
-2.3246
0
LINE
8
BLACK
6
CONTINUOUS
10
5.5896
20
-2.3246
11
5.58957
21
-2.32459
0
LINE
8
BLACK
6
CONTINUOUS
10
5.58957
20
-2.32459
11
5.58957
21
-2.32459
0
LINE
8
BLACK
6
CONTINUOUS
10
5.58957
20
-2.32459
11
5.58957
21
-2.32459
0
LINE
8
BLACK
6
CONTINUOUS
10
5.58957
20
-2.32459
11
5.58941
21
-2.32454
0
LINE
8
BLACK
6
CONTINUOUS
10
5.58941
20
-2.32454
11
5.58939
21
-2.32454
0
LINE
8
BLACK
6
CONTINUOUS
10
5.58939
20
-2.32454
11
5.58939
21
-2.32454
0
LINE
8
BLACK
6
CONTINUOUS
10
5.58939
20
-2.32454
11
5.58939
21
-2.32454
0
LINE
8
BLACK
6
CONTINUOUS
10
5.58939
20
-2.32454
11
5.58926
21
-2.32447
0
LINE
8
BLACK
6
CONTINUOUS
10
5.58926
20
-2.32447
11
5.58921
21
-2.32444
0
LINE
8
BLACK
6
CONTINUOUS
10
5.58921
20
-2.32444
11
5.58921
21
-2.32444
0
LINE
8
BLACK
6
CONTINUOUS
10
5.58921
20
-2.32444
11
5.58921
21
-2.32444
0
LINE
8
BLACK
6
CONTINUOUS
10
5.58921
20
-2.32444
11
5.5891
21
-2.32435
0
LINE
8
BLACK
6
CONTINUOUS
10
5.5891
20
-2.32435
11
5.58906
21
-2.32432
0
LINE
8
BLACK
6
CONTINUOUS
10
5.58906
20
-2.32432
11
5.58906
21
-2.32432
0
LINE
8
BLACK
6
CONTINUOUS
10
5.58906
20
-2.32432
11
5.58906
21
-2.32432
0
LINE
8
BLACK
6
CONTINUOUS
10
5.58906
20
-2.32432
11
5.58898
21
-2.32421
0
LINE
8
BLACK
6
CONTINUOUS
10
5.58898
20
-2.32421
11
5.58894
21
-2.32417
0
LINE
8
BLACK
6
CONTINUOUS
10
5.58894
20
-2.32417
11
5.58894
21
-2.32417
0
LINE
8
BLACK
6
CONTINUOUS
10
5.58894
20
-2.32417
11
5.58894
21
-2.32417
0
LINE
8
BLACK
6
CONTINUOUS
10
5.58894
20
-2.32417
11
5.5889
21
-2.32409
0
LINE
8
BLACK
6
CONTINUOUS
10
5.5889
20
-2.32409
11
5.58885
21
-2.324
0
LINE
8
BLACK
6
CONTINUOUS
10
5.58885
20
-2.324
11
5.58885
21
-2.324
0
LINE
8
BLACK
6
CONTINUOUS
10
5.58885
20
-2.324
11
5.58885
21
-2.324
0
LINE
8
BLACK
6
CONTINUOUS
10
5.58885
20
-2.324
11
5.5888
21
-2.32383
0
LINE
8
BLACK
6
CONTINUOUS
10
5.5888
20
-2.32383
11
5.58879
21
-2.32382
0
LINE
8
BLACK
6
CONTINUOUS
10
5.58879
20
-2.32382
11
5.58879
21
-2.32382
0
LINE
8
BLACK
6
CONTINUOUS
10
5.58879
20
-2.32382
11
5.58879
21
-2.32381
0
LINE
8
BLACK
6
CONTINUOUS
10
5.58879
20
-2.32381
11
5.58878
21
-2.32367
0
LINE
8
BLACK
6
CONTINUOUS
10
5.58878
20
-2.32367
11
5.58878
21
-2.32367
0
LINE
8
BLACK
6
CONTINUOUS
10
5.58878
20
-2.32367
11
5.58877
21
-2.32362
0
LINE
8
BLACK
6
CONTINUOUS
10
5.58877
20
-2.32362
11
5.58878
21
-2.32357
0
LINE
8
BLACK
6
CONTINUOUS
10
5.58878
20
-2.32357
11
5.58878
21
-2.11183
0
LINE
8
BLACK
6
CONTINUOUS
10
5.58878
20
-2.11183
11
5.27873
21
-1.80925
0
LINE
8
BLACK
6
CONTINUOUS
10
5.27873
20
-1.80925
11
4.82289
21
-1.80965
0
LINE
8
BLACK
6
CONTINUOUS
10
4.82289
20
-1.80965
11
4.82285
21
-1.80965
0
LINE
8
BLACK
6
CONTINUOUS
10
4.82285
20
-1.80965
11
4.8228
21
-1.80965
0
LINE
8
BLACK
6
CONTINUOUS
10
4.8228
20
-1.80965
11
4.82279
21
-1.80965
0
LINE
8
BLACK
6
CONTINUOUS
10
4.82279
20
-1.80965
11
4.82275
21
-1.80964
0
LINE
8
BLACK
6
CONTINUOUS
10
4.82275
20
-1.80964
11
4.82266
21
-1.80963
0
LINE
8
BLACK
6
CONTINUOUS
10
4.82266
20
-1.80963
11
4.82265
21
-1.80963
0
LINE
8
BLACK
6
CONTINUOUS
10
4.82265
20
-1.80963
11
4.82264
21
-1.80963
0
LINE
8
BLACK
6
CONTINUOUS
10
4.82264
20
-1.80963
11
4.82256
21
-1.80961
0
LINE
8
BLACK
6
CONTINUOUS
10
4.82256
20
-1.80961
11
4.82247
21
-1.80958
0
LINE
8
BLACK
6
CONTINUOUS
10
4.82247
20
-1.80958
11
4.82247
21
-1.80958
0
LINE
8
BLACK
6
CONTINUOUS
10
4.82247
20
-1.80958
11
4.82246
21
-1.80958
0
LINE
8
BLACK
6
CONTINUOUS
10
4.82246
20
-1.80958
11
4.82238
21
-1.80953
0
LINE
8
BLACK
6
CONTINUOUS
10
4.82238
20
-1.80953
11
4.8223
21
-1.80949
0
LINE
8
BLACK
6
CONTINUOUS
10
4.8223
20
-1.80949
11
4.82229
21
-1.80949
0
LINE
8
BLACK
6
CONTINUOUS
10
4.82229
20
-1.80949
11
4.82229
21
-1.80948
0
LINE
8
BLACK
6
CONTINUOUS
10
4.82229
20
-1.80948
11
4.82222
21
-1.80943
0
LINE
8
BLACK
6
CONTINUOUS
10
4.82222
20
-1.80943
11
4.82219
21
-1.8094
0
LINE
8
BLACK
6
CONTINUOUS
10
4.82219
20
-1.8094
11
4.82218
21
-1.8094
0
LINE
8
BLACK
6
CONTINUOUS
10
4.82218
20
-1.8094
11
4.82214
21
-1.80936
0
LINE
8
BLACK
6
CONTINUOUS
10
4.82214
20
-1.80936
11
4.82211
21
-1.80933
0
LINE
8
BLACK
6
CONTINUOUS
10
4.82211
20
-1.80933
11
4.74894
21
-1.73891
0
LINE
8
BLACK
6
CONTINUOUS
10
4.74894
20
-1.73891
11
4.74892
21
-1.7389
0
LINE
8
BLACK
6
CONTINUOUS
10
4.74892
20
-1.7389
11
4.74891
21
-1.73888
0
LINE
8
BLACK
6
CONTINUOUS
10
4.74891
20
-1.73888
11
4.74889
21
-1.73886
0
LINE
8
BLACK
6
CONTINUOUS
10
4.74889
20
-1.73886
11
4.74887
21
-1.73885
0
LINE
8
BLACK
6
CONTINUOUS
10
4.74887
20
-1.73885
11
4.73698
21
-1.72618
0
LINE
8
BLACK
6
CONTINUOUS
10
4.73698
20
-1.72618
11
4.42013
21
-1.72618
0
LINE
8
BLACK
6
CONTINUOUS
10
4.42013
20
-1.72618
11
4.40823
21
-1.73961
0
LINE
8
BLACK
6
CONTINUOUS
10
4.40823
20
-1.73961
11
4.40818
21
-1.73968
0
LINE
8
BLACK
6
CONTINUOUS
10
4.40818
20
-1.73968
11
4.40813
21
-1.73972
0
LINE
8
BLACK
6
CONTINUOUS
10
4.40813
20
-1.73972
11
4.40808
21
-1.73976
0
LINE
8
BLACK
6
CONTINUOUS
10
4.40808
20
-1.73976
11
4.40805
21
-1.73978
0
LINE
8
BLACK
6
CONTINUOUS
10
4.40805
20
-1.73978
11
4.40803
21
-1.7398
0
LINE
8
BLACK
6
CONTINUOUS
10
4.40803
20
-1.7398
11
4.40797
21
-1.73983
0
LINE
8
BLACK
6
CONTINUOUS
10
4.40797
20
-1.73983
11
4.40791
21
-1.73987
0
LINE
8
BLACK
6
CONTINUOUS
10
4.40791
20
-1.73987
11
4.40789
21
-1.73988
0
LINE
8
BLACK
6
CONTINUOUS
10
4.40789
20
-1.73988
11
4.40786
21
-1.73989
0
LINE
8
BLACK
6
CONTINUOUS
10
4.40786
20
-1.73989
11
4.40779
21
-1.73991
0
LINE
8
BLACK
6
CONTINUOUS
10
4.40779
20
-1.73991
11
4.40773
21
-1.73993
0
LINE
8
BLACK
6
CONTINUOUS
10
4.40773
20
-1.73993
11
4.4077
21
-1.73994
0
LINE
8
BLACK
6
CONTINUOUS
10
4.4077
20
-1.73994
11
4.40767
21
-1.73995
0
LINE
8
BLACK
6
CONTINUOUS
10
4.40767
20
-1.73995
11
4.40761
21
-1.73995
0
LINE
8
BLACK
6
CONTINUOUS
10
4.40761
20
-1.73995
11
4.40754
21
-1.73996
0
LINE
8
BLACK
6
CONTINUOUS
10
4.40754
20
-1.73996
11
4.40746
21
-1.73996
0
LINE
8
BLACK
6
CONTINUOUS
10
4.40746
20
-1.73996
11
3.70041
21
-1.73996
0
LINE
8
BLACK
6
CONTINUOUS
10
3.70041
20
-1.73996
11
3.55151
21
-1.8924
0
LINE
8
BLACK
6
CONTINUOUS
10
3.55151
20
-1.8924
11
3.5515
21
-1.89241
0
LINE
8
BLACK
6
CONTINUOUS
10
3.5515
20
-1.89241
11
3.55148
21
-1.89243
0
LINE
8
BLACK
6
CONTINUOUS
10
3.55148
20
-1.89243
11
3.55146
21
-1.89245
0
LINE
8
BLACK
6
CONTINUOUS
10
3.55146
20
-1.89245
11
3.55145
21
-1.89246
0
LINE
8
BLACK
6
CONTINUOUS
10
3.55145
20
-1.89246
11
3.54167
21
-1.90185
0
LINE
8
BLACK
6
CONTINUOUS
10
3.54167
20
-1.90185
11
3.54164
21
-1.90188
0
LINE
8
BLACK
6
CONTINUOUS
10
3.54164
20
-1.90188
11
3.5416
21
-1.90192
0
LINE
8
BLACK
6
CONTINUOUS
10
3.5416
20
-1.90192
11
3.54159
21
-1.90192
0
LINE
8
BLACK
6
CONTINUOUS
10
3.54159
20
-1.90192
11
3.54156
21
-1.90195
0
LINE
8
BLACK
6
CONTINUOUS
10
3.54156
20
-1.90195
11
3.54149
21
-1.902
0
LINE
8
BLACK
6
CONTINUOUS
10
3.54149
20
-1.902
11
3.54149
21
-1.90201
0
LINE
8
BLACK
6
CONTINUOUS
10
3.54149
20
-1.90201
11
3.54148
21
-1.90201
0
LINE
8
BLACK
6
CONTINUOUS
10
3.54148
20
-1.90201
11
3.5414
21
-1.90205
0
LINE
8
BLACK
6
CONTINUOUS
10
3.5414
20
-1.90205
11
3.54132
21
-1.90209
0
LINE
8
BLACK
6
CONTINUOUS
10
3.54132
20
-1.90209
11
3.54131
21
-1.9021
0
LINE
8
BLACK
6
CONTINUOUS
10
3.54131
20
-1.9021
11
3.5413
21
-1.9021
0
LINE
8
BLACK
6
CONTINUOUS
10
3.5413
20
-1.9021
11
3.54122
21
-1.90213
0
LINE
8
BLACK
6
CONTINUOUS
10
3.54122
20
-1.90213
11
3.54114
21
-1.90215
0
LINE
8
BLACK
6
CONTINUOUS
10
3.54114
20
-1.90215
11
3.54113
21
-1.90215
0
LINE
8
BLACK
6
CONTINUOUS
10
3.54113
20
-1.90215
11
3.54112
21
-1.90215
0
LINE
8
BLACK
6
CONTINUOUS
10
3.54112
20
-1.90215
11
3.54103
21
-1.90216
0
LINE
8
BLACK
6
CONTINUOUS
10
3.54103
20
-1.90216
11
3.54099
21
-1.90217
0
LINE
8
BLACK
6
CONTINUOUS
10
3.54099
20
-1.90217
11
3.54098
21
-1.90217
0
LINE
8
BLACK
6
CONTINUOUS
10
3.54098
20
-1.90217
11
3.54092
21
-1.90217
0
LINE
8
BLACK
6
CONTINUOUS
10
3.54092
20
-1.90217
11
3.54089
21
-1.90217
0
LINE
8
BLACK
6
CONTINUOUS
10
3.54089
20
-1.90217
11
3.20625
21
-1.90217
0
LINE
8
BLACK
6
CONTINUOUS
10
3.20625
20
-1.90217
11
3.2062
21
-1.90216
0
LINE
8
BLACK
6
CONTINUOUS
10
3.2062
20
-1.90216
11
3.2062
21
-1.90216
0
LINE
8
BLACK
6
CONTINUOUS
10
3.2062
20
-1.90216
11
3.20223
21
-1.90177
0
LINE
8
BLACK
6
CONTINUOUS
10
3.20223
20
-1.90177
11
3.20221
21
-1.90177
0
LINE
8
BLACK
6
CONTINUOUS
10
3.20221
20
-1.90177
11
3.20212
21
-1.90175
0
LINE
8
BLACK
6
CONTINUOUS
10
3.20212
20
-1.90175
11
3.20204
21
-1.90173
0
LINE
8
BLACK
6
CONTINUOUS
10
3.20204
20
-1.90173
11
3.19821
21
-1.90058
0
LINE
8
BLACK
6
CONTINUOUS
10
3.19821
20
-1.90058
11
3.1982
21
-1.90057
0
LINE
8
BLACK
6
CONTINUOUS
10
3.1982
20
-1.90057
11
3.19812
21
-1.90054
0
LINE
8
BLACK
6
CONTINUOUS
10
3.19812
20
-1.90054
11
3.19804
21
-1.90051
0
LINE
8
BLACK
6
CONTINUOUS
10
3.19804
20
-1.90051
11
3.19451
21
-1.89863
0
LINE
8
BLACK
6
CONTINUOUS
10
3.19451
20
-1.89863
11
3.1945
21
-1.89862
0
LINE
8
BLACK
6
CONTINUOUS
10
3.1945
20
-1.89862
11
3.19442
21
-1.89857
0
LINE
8
BLACK
6
CONTINUOUS
10
3.19442
20
-1.89857
11
3.19435
21
-1.89852
0
LINE
8
BLACK
6
CONTINUOUS
10
3.19435
20
-1.89852
11
3.19125
21
-1.896
0
LINE
8
BLACK
6
CONTINUOUS
10
3.19125
20
-1.896
11
3.19124
21
-1.89599
0
LINE
8
BLACK
6
CONTINUOUS
10
3.19124
20
-1.89599
11
3.19118
21
-1.89593
0
LINE
8
BLACK
6
CONTINUOUS
10
3.19118
20
-1.89593
11
3.19112
21
-1.89586
0
LINE
8
BLACK
6
CONTINUOUS
10
3.19112
20
-1.89586
11
3.18857
21
-1.89278
0
LINE
8
BLACK
6
CONTINUOUS
10
3.18857
20
-1.89278
11
3.18856
21
-1.89277
0
LINE
8
BLACK
6
CONTINUOUS
10
3.18856
20
-1.89277
11
3.18851
21
-1.8927
0
LINE
8
BLACK
6
CONTINUOUS
10
3.18851
20
-1.8927
11
3.18846
21
-1.89262
0
LINE
8
BLACK
6
CONTINUOUS
10
3.18846
20
-1.89262
11
3.18656
21
-1.88911
0
LINE
8
BLACK
6
CONTINUOUS
10
3.18656
20
-1.88911
11
3.18655
21
-1.8891
0
LINE
8
BLACK
6
CONTINUOUS
10
3.18655
20
-1.8891
11
3.18652
21
-1.88902
0
LINE
8
BLACK
6
CONTINUOUS
10
3.18652
20
-1.88902
11
3.18649
21
-1.88893
0
LINE
8
BLACK
6
CONTINUOUS
10
3.18649
20
-1.88893
11
3.1853
21
-1.88512
0
LINE
8
BLACK
6
CONTINUOUS
10
3.1853
20
-1.88512
11
3.1853
21
-1.8851
0
LINE
8
BLACK
6
CONTINUOUS
10
3.1853
20
-1.8851
11
3.18528
21
-1.88502
0
LINE
8
BLACK
6
CONTINUOUS
10
3.18528
20
-1.88502
11
3.18527
21
-1.88493
0
LINE
8
BLACK
6
CONTINUOUS
10
3.18527
20
-1.88493
11
3.18485
21
-1.88095
0
LINE
8
BLACK
6
CONTINUOUS
10
3.18485
20
-1.88095
11
3.18485
21
-1.88094
0
LINE
8
BLACK
6
CONTINUOUS
10
3.18485
20
-1.88094
11
3.18485
21
-1.8809
0
LINE
8
BLACK
6
CONTINUOUS
10
3.18485
20
-1.8809
11
3.18484
21
-1.88086
0
LINE
8
BLACK
6
CONTINUOUS
10
3.18484
20
-1.88086
11
3.18484
21
-1.88072
0
LINE
8
BLACK
6
CONTINUOUS
10
3.18484
20
-1.88072
11
3.18248
21
-1.74682
0
LINE
8
BLACK
6
CONTINUOUS
10
3.18248
20
-1.74682
11
3.18249
21
-1.74667
0
LINE
8
BLACK
6
CONTINUOUS
10
3.18249
20
-1.74667
11
3.18249
21
-1.74667
0
LINE
8
BLACK
6
CONTINUOUS
10
3.18249
20
-1.74667
11
3.18287
21
-1.74278
0
LINE
8
BLACK
6
CONTINUOUS
10
3.18287
20
-1.74278
11
3.18288
21
-1.74276
0
LINE
8
BLACK
6
CONTINUOUS
10
3.18288
20
-1.74276
11
3.18289
21
-1.74268
0
LINE
8
BLACK
6
CONTINUOUS
10
3.18289
20
-1.74268
11
3.18291
21
-1.74259
0
LINE
8
BLACK
6
CONTINUOUS
10
3.18291
20
-1.74259
11
3.18407
21
-1.73876
0
LINE
8
BLACK
6
CONTINUOUS
10
3.18407
20
-1.73876
11
3.18407
21
-1.73875
0
LINE
8
BLACK
6
CONTINUOUS
10
3.18407
20
-1.73875
11
3.18411
21
-1.73867
0
LINE
8
BLACK
6
CONTINUOUS
10
3.18411
20
-1.73867
11
3.18414
21
-1.73859
0
LINE
8
BLACK
6
CONTINUOUS
10
3.18414
20
-1.73859
11
3.18602
21
-1.73506
0
LINE
8
BLACK
6
CONTINUOUS
10
3.18602
20
-1.73506
11
3.18602
21
-1.73505
0
LINE
8
BLACK
6
CONTINUOUS
10
3.18602
20
-1.73505
11
3.18607
21
-1.73497
0
LINE
8
BLACK
6
CONTINUOUS
10
3.18607
20
-1.73497
11
3.18612
21
-1.7349
0
LINE
8
BLACK
6
CONTINUOUS
10
3.18612
20
-1.7349
11
3.18865
21
-1.7318
0
LINE
8
BLACK
6
CONTINUOUS
10
3.18865
20
-1.7318
11
3.18866
21
-1.73179
0
LINE
8
BLACK
6
CONTINUOUS
10
3.18866
20
-1.73179
11
3.18872
21
-1.73173
0
LINE
8
BLACK
6
CONTINUOUS
10
3.18872
20
-1.73173
11
3.18878
21
-1.73167
0
LINE
8
BLACK
6
CONTINUOUS
10
3.18878
20
-1.73167
11
3.19186
21
-1.72912
0
LINE
8
BLACK
6
CONTINUOUS
10
3.19186
20
-1.72912
11
3.19186
21
-1.72912
0
LINE
8
BLACK
6
CONTINUOUS
10
3.19186
20
-1.72912
11
3.19186
21
-1.72912
0
LINE
8
BLACK
6
CONTINUOUS
10
3.19186
20
-1.72912
11
3.19187
21
-1.72911
0
LINE
8
BLACK
6
CONTINUOUS
10
3.19187
20
-1.72911
11
3.19195
21
-1.72906
0
LINE
8
BLACK
6
CONTINUOUS
10
3.19195
20
-1.72906
11
3.19202
21
-1.72901
0
LINE
8
BLACK
6
CONTINUOUS
10
3.19202
20
-1.72901
11
3.19554
21
-1.72711
0
LINE
8
BLACK
6
CONTINUOUS
10
3.19554
20
-1.72711
11
3.19554
21
-1.72711
0
LINE
8
BLACK
6
CONTINUOUS
10
3.19554
20
-1.72711
11
3.19554
21
-1.72711
0
LINE
8
BLACK
6
CONTINUOUS
10
3.19554
20
-1.72711
11
3.19555
21
-1.72711
0
LINE
8
BLACK
6
CONTINUOUS
10
3.19555
20
-1.72711
11
3.19563
21
-1.72707
0
LINE
8
BLACK
6
CONTINUOUS
10
3.19563
20
-1.72707
11
3.19571
21
-1.72704
0
LINE
8
BLACK
6
CONTINUOUS
10
3.19571
20
-1.72704
11
3.19953
21
-1.72586
0
LINE
8
BLACK
6
CONTINUOUS
10
3.19953
20
-1.72586
11
3.19953
21
-1.72586
0
LINE
8
BLACK
6
CONTINUOUS
10
3.19953
20
-1.72586
11
3.19954
21
-1.72585
0
LINE
8
BLACK
6
CONTINUOUS
10
3.19954
20
-1.72585
11
3.19963
21
-1.72583
0
LINE
8
BLACK
6
CONTINUOUS
10
3.19963
20
-1.72583
11
3.19972
21
-1.72582
0
LINE
8
BLACK
6
CONTINUOUS
10
3.19972
20
-1.72582
11
3.20369
21
-1.7254
0
LINE
8
BLACK
6
CONTINUOUS
10
3.20369
20
-1.7254
11
3.2037
21
-1.7254
0
LINE
8
BLACK
6
CONTINUOUS
10
3.2037
20
-1.7254
11
3.20375
21
-1.7254
0
LINE
8
BLACK
6
CONTINUOUS
10
3.20375
20
-1.7254
11
3.20379
21
-1.72539
0
LINE
8
BLACK
6
CONTINUOUS
10
3.20379
20
-1.72539
11
3.20389
21
-1.72539
0
LINE
8
BLACK
6
CONTINUOUS
10
3.20389
20
-1.72539
11
3.20389
21
-1.72539
0
LINE
8
BLACK
6
CONTINUOUS
10
3.20389
20
-1.72539
11
3.53503
21
-1.72539
0
LINE
8
BLACK
6
CONTINUOUS
10
3.53503
20
-1.72539
11
3.691
21
-1.5706
0
LINE
8
BLACK
6
CONTINUOUS
10
3.691
20
-1.5706
11
3.69103
21
-1.57056
0
LINE
8
BLACK
6
CONTINUOUS
10
3.69103
20
-1.57056
11
3.69107
21
-1.57053
0
LINE
8
BLACK
6
CONTINUOUS
10
3.69107
20
-1.57053
11
3.69107
21
-1.57053
0
LINE
8
BLACK
6
CONTINUOUS
10
3.69107
20
-1.57053
11
3.69111
21
-1.5705
0
LINE
8
BLACK
6
CONTINUOUS
10
3.69111
20
-1.5705
11
3.69118
21
-1.57044
0
LINE
8
BLACK
6
CONTINUOUS
10
3.69118
20
-1.57044
11
3.69118
21
-1.57044
0
LINE
8
BLACK
6
CONTINUOUS
10
3.69118
20
-1.57044
11
3.69119
21
-1.57044
0
LINE
8
BLACK
6
CONTINUOUS
10
3.69119
20
-1.57044
11
3.69127
21
-1.57039
0
LINE
8
BLACK
6
CONTINUOUS
10
3.69127
20
-1.57039
11
3.69135
21
-1.57035
0
LINE
8
BLACK
6
CONTINUOUS
10
3.69135
20
-1.57035
11
3.69136
21
-1.57035
0
LINE
8
BLACK
6
CONTINUOUS
10
3.69136
20
-1.57035
11
3.69136
21
-1.57034
0
LINE
8
BLACK
6
CONTINUOUS
10
3.69136
20
-1.57034
11
3.69146
21
-1.57032
0
LINE
8
BLACK
6
CONTINUOUS
10
3.69146
20
-1.57032
11
3.69154
21
-1.57029
0
LINE
8
BLACK
6
CONTINUOUS
10
3.69154
20
-1.57029
11
3.69154
21
-1.57029
0
LINE
8
BLACK
6
CONTINUOUS
10
3.69154
20
-1.57029
11
3.69154
21
-1.57029
0
LINE
8
BLACK
6
CONTINUOUS
10
3.69154
20
-1.57029
11
3.69164
21
-1.57028
0
LINE
8
BLACK
6
CONTINUOUS
10
3.69164
20
-1.57028
11
3.69168
21
-1.57028
0
LINE
8
BLACK
6
CONTINUOUS
10
3.69168
20
-1.57028
11
3.69169
21
-1.57028
0
LINE
8
BLACK
6
CONTINUOUS
10
3.69169
20
-1.57028
11
3.69174
21
-1.57027
0
LINE
8
BLACK
6
CONTINUOUS
10
3.69174
20
-1.57027
11
3.69178
21
-1.57028
0
LINE
8
BLACK
6
CONTINUOUS
10
3.69178
20
-1.57028
11
4.40114
21
-1.56988
0
LINE
8
BLACK
6
CONTINUOUS
10
4.40114
20
-1.56988
11
4.55005
21
-1.4092
0
LINE
8
BLACK
6
CONTINUOUS
10
4.55005
20
-1.4092
11
4.55009
21
-1.40914
0
LINE
8
BLACK
6
CONTINUOUS
10
4.55009
20
-1.40914
11
4.55015
21
-1.40909
0
LINE
8
BLACK
6
CONTINUOUS
10
4.55015
20
-1.40909
11
4.55021
21
-1.40904
0
LINE
8
BLACK
6
CONTINUOUS
10
4.55021
20
-1.40904
11
4.55022
21
-1.40903
0
LINE
8
BLACK
6
CONTINUOUS
10
4.55022
20
-1.40903
11
4.55024
21
-1.40902
0
LINE
8
BLACK
6
CONTINUOUS
10
4.55024
20
-1.40902
11
4.55031
21
-1.40898
0
LINE
8
BLACK
6
CONTINUOUS
10
4.55031
20
-1.40898
11
4.55037
21
-1.40894
0
LINE
8
BLACK
6
CONTINUOUS
10
4.55037
20
-1.40894
11
4.55039
21
-1.40894
0
LINE
8
BLACK
6
CONTINUOUS
10
4.55039
20
-1.40894
11
4.55041
21
-1.40893
0
LINE
8
BLACK
6
CONTINUOUS
10
4.55041
20
-1.40893
11
4.55048
21
-1.40891
0
LINE
8
BLACK
6
CONTINUOUS
10
4.55048
20
-1.40891
11
4.55056
21
-1.40888
0
LINE
8
BLACK
6
CONTINUOUS
10
4.55056
20
-1.40888
11
4.55058
21
-1.40888
0
LINE
8
BLACK
6
CONTINUOUS
10
4.55058
20
-1.40888
11
4.55059
21
-1.40887
0
LINE
8
BLACK
6
CONTINUOUS
10
4.55059
20
-1.40887
11
4.55067
21
-1.40886
0
LINE
8
BLACK
6
CONTINUOUS
10
4.55067
20
-1.40886
11
4.55075
21
-1.40885
0
LINE
8
BLACK
6
CONTINUOUS
10
4.55075
20
-1.40885
11
4.55082
21
-1.40886
0
LINE
8
BLACK
6
CONTINUOUS
10
4.55082
20
-1.40886
11
4.72322
21
-1.40886
0
LINE
8
BLACK
6
CONTINUOUS
10
4.72322
20
-1.40886
11
4.72332
21
-1.40886
0
LINE
8
BLACK
6
CONTINUOUS
10
4.72332
20
-1.40886
11
4.72715
21
-1.40846
0
LINE
8
BLACK
6
CONTINUOUS
10
4.72715
20
-1.40846
11
4.73078
21
-1.40733
0
LINE
8
BLACK
6
CONTINUOUS
10
4.73078
20
-1.40733
11
4.73412
21
-1.40552
0
LINE
8
BLACK
6
CONTINUOUS
10
4.73412
20
-1.40552
11
4.73705
21
-1.4031
0
LINE
8
BLACK
6
CONTINUOUS
10
4.73705
20
-1.4031
11
4.73946
21
-1.40015
0
LINE
8
BLACK
6
CONTINUOUS
10
4.73946
20
-1.40015
11
4.74124
21
-1.39679
0
LINE
8
BLACK
6
CONTINUOUS
10
4.74124
20
-1.39679
11
4.74234
21
-1.39315
0
LINE
8
BLACK
6
CONTINUOUS
10
4.74234
20
-1.39315
11
4.74272
21
-1.38932
0
LINE
8
BLACK
6
CONTINUOUS
10
4.74272
20
-1.38932
11
4.74272
21
-1.09109
0
LINE
8
BLACK
6
CONTINUOUS
10
4.74272
20
-1.09109
11
4.67137
21
-1.04547
0
LINE
8
BLACK
6
CONTINUOUS
10
4.67137
20
-1.04547
11
4.44338
21
-1.04547
0
LINE
8
BLACK
6
CONTINUOUS
10
4.44338
20
-1.04547
11
4.44336
21
-1.04548
0
LINE
8
BLACK
6
CONTINUOUS
10
4.44336
20
-1.04548
11
4.44328
21
-1.04547
0
LINE
8
BLACK
6
CONTINUOUS
10
4.44328
20
-1.04547
11
4.44326
21
-1.04547
0
LINE
8
BLACK
6
CONTINUOUS
10
4.44326
20
-1.04547
11
4.44324
21
-1.04547
0
LINE
8
BLACK
6
CONTINUOUS
10
4.44324
20
-1.04547
11
4.44316
21
-1.04547
0
LINE
8
BLACK
6
CONTINUOUS
10
4.44316
20
-1.04547
11
4.44314
21
-1.04546
0
LINE
8
BLACK
6
CONTINUOUS
10
4.44314
20
-1.04546
11
4.44311
21
-1.04546
0
LINE
8
BLACK
6
CONTINUOUS
10
4.44311
20
-1.04546
11
4.44305
21
-1.04544
0
LINE
8
BLACK
6
CONTINUOUS
10
4.44305
20
-1.04544
11
4.44298
21
-1.04542
0
LINE
8
BLACK
6
CONTINUOUS
10
4.44298
20
-1.04542
11
4.44295
21
-1.04541
0
LINE
8
BLACK
6
CONTINUOUS
10
4.44295
20
-1.04541
11
4.44293
21
-1.0454
0
LINE
8
BLACK
6
CONTINUOUS
10
4.44293
20
-1.0454
11
4.44287
21
-1.04537
0
LINE
8
BLACK
6
CONTINUOUS
10
4.44287
20
-1.04537
11
4.4428
21
-1.04534
0
LINE
8
BLACK
6
CONTINUOUS
10
4.4428
20
-1.04534
11
4.44278
21
-1.04532
0
LINE
8
BLACK
6
CONTINUOUS
10
4.44278
20
-1.04532
11
4.44276
21
-1.04531
0
LINE
8
BLACK
6
CONTINUOUS
10
4.44276
20
-1.04531
11
4.4427
21
-1.04526
0
LINE
8
BLACK
6
CONTINUOUS
10
4.4427
20
-1.04526
11
4.44268
21
-1.04525
0
LINE
8
BLACK
6
CONTINUOUS
10
4.44268
20
-1.04525
11
4.44266
21
-1.04523
0
LINE
8
BLACK
6
CONTINUOUS
10
4.44266
20
-1.04523
11
4.44261
21
-1.04519
0
LINE
8
BLACK
6
CONTINUOUS
10
4.44261
20
-1.04519
11
4.44259
21
-1.04517
0
LINE
8
BLACK
6
CONTINUOUS
10
4.44259
20
-1.04517
11
4.30947
21
-0.925002
0
LINE
8
BLACK
6
CONTINUOUS
10
4.30947
20
-0.925002
11
1.37953
21
-0.937598
0
LINE
8
BLACK
6
CONTINUOUS
10
1.37953
20
-0.937598
11
1.37953
21
-0.937598
0
LINE
8
BLACK
6
CONTINUOUS
10
1.37953
20
-0.937598
11
1.37952
21
-0.937598
0
LINE
8
BLACK
6
CONTINUOUS
10
1.37952
20
-0.937598
11
1.37948
21
-0.937599
0
LINE
8
BLACK
6
CONTINUOUS
10
1.37948
20
-0.937599
11
1.37948
21
-0.937599
0
LINE
8
BLACK
6
CONTINUOUS
10
1.37948
20
-0.937599
11
1.37944
21
-0.937599
0
LINE
8
BLACK
6
CONTINUOUS
10
1.37944
20
-0.937599
11
1.37561
21
-0.938001
0
LINE
8
BLACK
6
CONTINUOUS
10
1.37561
20
-0.938001
11
1.37198
21
-0.939126
0
LINE
8
BLACK
6
CONTINUOUS
10
1.37198
20
-0.939126
11
1.36863
21
-0.940934
0
LINE
8
BLACK
6
CONTINUOUS
10
1.36863
20
-0.940934
11
1.3657
21
-0.943358
0
LINE
8
BLACK
6
CONTINUOUS
10
1.3657
20
-0.943358
11
1.3633
21
-0.946305
0
LINE
8
BLACK
6
CONTINUOUS
10
1.3633
20
-0.946305
11
1.36151
21
-0.949662
0
LINE
8
BLACK
6
CONTINUOUS
10
1.36151
20
-0.949662
11
1.36042
21
-0.953302
0
LINE
8
BLACK
6
CONTINUOUS
10
1.36042
20
-0.953302
11
1.36004
21
-0.957134
0
LINE
8
BLACK
6
CONTINUOUS
10
1.36004
20
-0.957134
11
1.36083
21
-1.50787
0
LINE
8
BLACK
6
CONTINUOUS
10
1.36083
20
-1.50787
11
1.36083
21
-1.50787
0
LINE
8
BLACK
6
CONTINUOUS
10
1.36083
20
-1.50787
11
1.36083
21
-1.50796
0
LINE
8
BLACK
6
CONTINUOUS
10
1.36083
20
-1.50796
11
1.36123
21
-1.51179
0
LINE
8
BLACK
6
CONTINUOUS
10
1.36123
20
-1.51179
11
1.36235
21
-1.51542
0
LINE
8
BLACK
6
CONTINUOUS
10
1.36235
20
-1.51542
11
1.36416
21
-1.51877
0
LINE
8
BLACK
6
CONTINUOUS
10
1.36416
20
-1.51877
11
1.36659
21
-1.5217
0
LINE
8
BLACK
6
CONTINUOUS
10
1.36659
20
-1.5217
11
1.36953
21
-1.5241
0
LINE
8
BLACK
6
CONTINUOUS
10
1.36953
20
-1.5241
11
1.37289
21
-1.52589
0
LINE
8
BLACK
6
CONTINUOUS
10
1.37289
20
-1.52589
11
1.37653
21
-1.52699
0
LINE
8
BLACK
6
CONTINUOUS
10
1.37653
20
-1.52699
11
1.38036
21
-1.52736
0
LINE
8
BLACK
6
CONTINUOUS
10
1.38036
20
-1.52736
11
2.42672
21
-1.52697
0
LINE
8
BLACK
6
CONTINUOUS
10
2.42672
20
-1.52697
11
2.42677
21
-1.52696
0
LINE
8
BLACK
6
CONTINUOUS
10
2.42677
20
-1.52696
11
2.42682
21
-1.52697
0
LINE
8
BLACK
6
CONTINUOUS
10
2.42682
20
-1.52697
11
2.42682
21
-1.52697
0
LINE
8
BLACK
6
CONTINUOUS
10
2.42682
20
-1.52697
11
2.42686
21
-1.52697
0
LINE
8
BLACK
6
CONTINUOUS
10
2.42686
20
-1.52697
11
2.42696
21
-1.52698
0
LINE
8
BLACK
6
CONTINUOUS
10
2.42696
20
-1.52698
11
2.42696
21
-1.52698
0
LINE
8
BLACK
6
CONTINUOUS
10
2.42696
20
-1.52698
11
2.42696
21
-1.52698
0
LINE
8
BLACK
6
CONTINUOUS
10
2.42696
20
-1.52698
11
2.42705
21
-1.52701
0
LINE
8
BLACK
6
CONTINUOUS
10
2.42705
20
-1.52701
11
2.42715
21
-1.52704
0
LINE
8
BLACK
6
CONTINUOUS
10
2.42715
20
-1.52704
11
2.42715
21
-1.52704
0
LINE
8
BLACK
6
CONTINUOUS
10
2.42715
20
-1.52704
11
2.42715
21
-1.52704
0
LINE
8
BLACK
6
CONTINUOUS
10
2.42715
20
-1.52704
11
2.42723
21
-1.52708
0
LINE
8
BLACK
6
CONTINUOUS
10
2.42723
20
-1.52708
11
2.42732
21
-1.52713
0
LINE
8
BLACK
6
CONTINUOUS
10
2.42732
20
-1.52713
11
2.42732
21
-1.52713
0
LINE
8
BLACK
6
CONTINUOUS
10
2.42732
20
-1.52713
11
2.42732
21
-1.52713
0
LINE
8
BLACK
6
CONTINUOUS
10
2.42732
20
-1.52713
11
2.4274
21
-1.52719
0
LINE
8
BLACK
6
CONTINUOUS
10
2.4274
20
-1.52719
11
2.42747
21
-1.52725
0
LINE
8
BLACK
6
CONTINUOUS
10
2.42747
20
-1.52725
11
2.42747
21
-1.52725
0
LINE
8
BLACK
6
CONTINUOUS
10
2.42747
20
-1.52725
11
2.42747
21
-1.52725
0
LINE
8
BLACK
6
CONTINUOUS
10
2.42747
20
-1.52725
11
2.42753
21
-1.52733
0
LINE
8
BLACK
6
CONTINUOUS
10
2.42753
20
-1.52733
11
2.42756
21
-1.52736
0
LINE
8
BLACK
6
CONTINUOUS
10
2.42756
20
-1.52736
11
2.42756
21
-1.52736
0
LINE
8
BLACK
6
CONTINUOUS
10
2.42756
20
-1.52736
11
2.42759
21
-1.5274
0
LINE
8
BLACK
6
CONTINUOUS
10
2.42759
20
-1.5274
11
2.42762
21
-1.52744
0
LINE
8
BLACK
6
CONTINUOUS
10
2.42762
20
-1.52744
11
2.48898
21
-1.61831
0
LINE
8
BLACK
6
CONTINUOUS
10
2.48898
20
-1.61831
11
2.48901
21
-1.61835
0
LINE
8
BLACK
6
CONTINUOUS
10
2.48901
20
-1.61835
11
2.48906
21
-1.61844
0
LINE
8
BLACK
6
CONTINUOUS
10
2.48906
20
-1.61844
11
2.4891
21
-1.61851
0
LINE
8
BLACK
6
CONTINUOUS
10
2.4891
20
-1.61851
11
2.4891
21
-1.61852
0
LINE
8
BLACK
6
CONTINUOUS
10
2.4891
20
-1.61852
11
2.4891
21
-1.61852
0
LINE
8
BLACK
6
CONTINUOUS
10
2.4891
20
-1.61852
11
2.48913
21
-1.61861
0
LINE
8
BLACK
6
CONTINUOUS
10
2.48913
20
-1.61861
11
2.48916
21
-1.6187
0
LINE
8
BLACK
6
CONTINUOUS
10
2.48916
20
-1.6187
11
2.48916
21
-1.6187
0
LINE
8
BLACK
6
CONTINUOUS
10
2.48916
20
-1.6187
11
2.48916
21
-1.6187
0
LINE
8
BLACK
6
CONTINUOUS
10
2.48916
20
-1.6187
11
2.48917
21
-1.6188
0
LINE
8
BLACK
6
CONTINUOUS
10
2.48917
20
-1.6188
11
2.48918
21
-1.61889
0
LINE
8
BLACK
6
CONTINUOUS
10
2.48918
20
-1.61889
11
2.48917
21
-1.61894
0
LINE
8
BLACK
6
CONTINUOUS
10
2.48917
20
-1.61894
11
2.48917
21
-1.70551
0
LINE
8
BLACK
6
CONTINUOUS
10
2.48917
20
-1.70551
11
2.48917
21
-1.7056
0
LINE
8
BLACK
6
CONTINUOUS
10
2.48917
20
-1.7056
11
2.48958
21
-1.70943
0
LINE
8
BLACK
6
CONTINUOUS
10
2.48958
20
-1.70943
11
2.4907
21
-1.71306
0
LINE
8
BLACK
6
CONTINUOUS
10
2.4907
20
-1.71306
11
2.49251
21
-1.71641
0
LINE
8
BLACK
6
CONTINUOUS
10
2.49251
20
-1.71641
11
2.49493
21
-1.71934
0
LINE
8
BLACK
6
CONTINUOUS
10
2.49493
20
-1.71934
11
2.49788
21
-1.72174
0
LINE
8
BLACK
6
CONTINUOUS
10
2.49788
20
-1.72174
11
2.50124
21
-1.72353
0
LINE
8
BLACK
6
CONTINUOUS
10
2.50124
20
-1.72353
11
2.50488
21
-1.72462
0
LINE
8
BLACK
6
CONTINUOUS
10
2.50488
20
-1.72462
11
2.50871
21
-1.725
0
LINE
8
BLACK
6
CONTINUOUS
10
2.50871
20
-1.725
11
2.90753
21
-1.72618
0
LINE
8
BLACK
6
CONTINUOUS
10
2.90753
20
-1.72618
11
2.90758
21
-1.72619
0
LINE
8
BLACK
6
CONTINUOUS
10
2.90758
20
-1.72619
11
2.90758
21
-1.72619
0
LINE
8
BLACK
6
CONTINUOUS
10
2.90758
20
-1.72619
11
2.91155
21
-1.72658
0
LINE
8
BLACK
6
CONTINUOUS
10
2.91155
20
-1.72658
11
2.91155
21
-1.72658
0
LINE
8
BLACK
6
CONTINUOUS
10
2.91155
20
-1.72658
11
2.91157
21
-1.72658
  0
ENDSEC
  0
EOF
