  0
SECTION
  2
HEADER
  9
$ANGBASE
  50
0.0
  9
$ANGDIR
  70
1
  9
$MEASUREMENT
  70
0
  0
ENDSEC
  0
SECTION
  2
TABLES
  0
TABLE
  2
LTYPE
  70
4
  0
LTYPE
  5
40F
  2
CONTINUOUS
  70
0
  3
Solid line
  72
65
  73
0
  40
0.0
  0
LTYPE
  5
410
  2
DASHDOT
 70
0
  3
Dash Dot ____ _ ____ _
 72
65
 73
4
 40
2.0
 49
1.25
 49
-0.25
 49
0.25
 49
-0.25
  0
LTYPE
  5
411
  2
DASHED
 70
0
  3
Dashed __ __ __ __ __
 72
65
 73
2
 40
0.75
 49
0.5
 49
-0.25
  0
LTYPE
  5
43B
  2
DOTTED
 70
0
  3
Dotted .  .  .  .
 72
65
 73
2
 40
0.2
 49
0.0
 49
-0.2
  0
ENDTAB
  0
TABLE
  2
STYLE
  70
4
  0
STYLE
  2
KICAD
  70
0
  40
0
  41
1
  42
1
  50
0
  71
0
  3
isocp.shx
  0
STYLE
  2
KICADB
  70
0
  40
0
  41
1
  42
1
  50
0
  71
0
  3
isocp.shx
  0
STYLE
  2
KICADI
  70
0
  40
0
  41
1
  42
1
  50
15
  71
0
  3
isocp.shx
  0
STYLE
  2
KICADBI
  70
0
  40
0
  41
1
  42
1
  50
15
  71
0
  3
isocp.shx
  0
ENDTAB
  0
TABLE
  2
LAYER
  70
1
  0
LAYER
  2
BLACK
  70
0
  62
7
  6
CONTINUOUS
  0
ENDTAB
  0
ENDSEC
  0
SECTION
  2
ENTITIES
0
LINE
8
BLACK
6
CONTINUOUS
10
4.70748
20
-5.24537
11
4.66024
21
-5.24537
0
LINE
8
BLACK
6
CONTINUOUS
10
4.66024
20
-5.24537
11
4.66024
21
-5.18238
0
LINE
8
BLACK
6
CONTINUOUS
10
4.66024
20
-5.18238
11
4.70748
21
-5.18238
0
LINE
8
BLACK
6
CONTINUOUS
10
4.70748
20
-5.18238
11
4.70748
21
-5.24537
0
LINE
8
BLACK
6
CONTINUOUS
10
5.4626
20
-5.22362
11
5.41535
21
-5.22362
0
LINE
8
BLACK
6
CONTINUOUS
10
5.41535
20
-5.22362
11
5.41535
21
-5.16063
0
LINE
8
BLACK
6
CONTINUOUS
10
5.41535
20
-5.16063
11
5.4626
21
-5.16063
0
LINE
8
BLACK
6
CONTINUOUS
10
5.4626
20
-5.16063
11
5.4626
21
-5.22362
0
LINE
8
BLACK
6
CONTINUOUS
10
4.70748
20
-5.13514
11
4.66024
21
-5.13514
0
LINE
8
BLACK
6
CONTINUOUS
10
4.66024
20
-5.13514
11
4.66024
21
-5.07215
0
LINE
8
BLACK
6
CONTINUOUS
10
4.66024
20
-5.07215
11
4.70748
21
-5.07215
0
LINE
8
BLACK
6
CONTINUOUS
10
4.70748
20
-5.07215
11
4.70748
21
-5.13514
0
LINE
8
BLACK
6
CONTINUOUS
10
5.4626
20
-5.11339
11
5.41535
21
-5.11339
0
LINE
8
BLACK
6
CONTINUOUS
10
5.41535
20
-5.11339
11
5.41535
21
-5.05039
0
LINE
8
BLACK
6
CONTINUOUS
10
5.41535
20
-5.05039
11
5.4626
21
-5.05039
0
LINE
8
BLACK
6
CONTINUOUS
10
5.4626
20
-5.05039
11
5.4626
21
-5.11339
0
LINE
8
BLACK
6
CONTINUOUS
10
5.02323
20
-4.88622
11
4.96024
21
-4.88622
0
LINE
8
BLACK
6
CONTINUOUS
10
4.96024
20
-4.88622
11
4.96024
21
-4.83898
0
LINE
8
BLACK
6
CONTINUOUS
10
4.96024
20
-4.83898
11
5.02323
21
-4.83898
0
LINE
8
BLACK
6
CONTINUOUS
10
5.02323
20
-4.83898
11
5.02323
21
-4.88622
0
LINE
8
BLACK
6
CONTINUOUS
10
5.13346
20
-4.88622
11
5.07047
21
-4.88622
0
LINE
8
BLACK
6
CONTINUOUS
10
5.07047
20
-4.88622
11
5.07047
21
-4.83898
0
LINE
8
BLACK
6
CONTINUOUS
10
5.07047
20
-4.83898
11
5.13346
21
-4.83898
0
LINE
8
BLACK
6
CONTINUOUS
10
5.13346
20
-4.83898
11
5.13346
21
-4.88622
0
LINE
8
BLACK
6
CONTINUOUS
10
5.56654
20
-4.86614
11
5.50354
21
-4.86614
0
LINE
8
BLACK
6
CONTINUOUS
10
5.50354
20
-4.86614
11
5.50354
21
-4.8189
0
LINE
8
BLACK
6
CONTINUOUS
10
5.50354
20
-4.8189
11
5.56654
21
-4.8189
0
LINE
8
BLACK
6
CONTINUOUS
10
5.56654
20
-4.8189
11
5.56654
21
-4.86614
0
LINE
8
BLACK
6
CONTINUOUS
10
5.67677
20
-4.86614
11
5.61378
21
-4.86614
0
LINE
8
BLACK
6
CONTINUOUS
10
5.61378
20
-4.86614
11
5.61378
21
-4.8189
0
LINE
8
BLACK
6
CONTINUOUS
10
5.61378
20
-4.8189
11
5.67677
21
-4.8189
0
LINE
8
BLACK
6
CONTINUOUS
10
5.67677
20
-4.8189
11
5.67677
21
-4.86614
0
LINE
8
BLACK
6
CONTINUOUS
10
4.71063
20
-4.56939
11
4.66339
21
-4.56939
0
LINE
8
BLACK
6
CONTINUOUS
10
4.66339
20
-4.56939
11
4.66339
21
-4.5064
0
LINE
8
BLACK
6
CONTINUOUS
10
4.66339
20
-4.5064
11
4.71063
21
-4.5064
0
LINE
8
BLACK
6
CONTINUOUS
10
4.71063
20
-4.5064
11
4.71063
21
-4.56939
0
LINE
8
BLACK
6
CONTINUOUS
10
1.70709
20
-4.56575
11
1.65984
21
-4.56575
0
LINE
8
BLACK
6
CONTINUOUS
10
1.65984
20
-4.56575
11
1.65984
21
-4.50276
0
LINE
8
BLACK
6
CONTINUOUS
10
1.65984
20
-4.50276
11
1.70709
21
-4.50276
0
LINE
8
BLACK
6
CONTINUOUS
10
1.70709
20
-4.50276
11
1.70709
21
-4.56575
0
LINE
8
BLACK
6
CONTINUOUS
10
3.96535
20
-4.55453
11
3.91811
21
-4.55453
0
LINE
8
BLACK
6
CONTINUOUS
10
3.91811
20
-4.55453
11
3.91811
21
-4.49154
0
LINE
8
BLACK
6
CONTINUOUS
10
3.91811
20
-4.49154
11
3.96535
21
-4.49154
0
LINE
8
BLACK
6
CONTINUOUS
10
3.96535
20
-4.49154
11
3.96535
21
-4.55453
0
LINE
8
BLACK
6
CONTINUOUS
10
2.45748
20
-4.5189
11
2.41024
21
-4.5189
0
LINE
8
BLACK
6
CONTINUOUS
10
2.41024
20
-4.5189
11
2.41024
21
-4.45591
0
LINE
8
BLACK
6
CONTINUOUS
10
2.41024
20
-4.45591
11
2.45748
21
-4.45591
0
LINE
8
BLACK
6
CONTINUOUS
10
2.45748
20
-4.45591
11
2.45748
21
-4.5189
0
LINE
8
BLACK
6
CONTINUOUS
10
3.20472
20
-4.51663
11
3.15748
21
-4.51663
0
LINE
8
BLACK
6
CONTINUOUS
10
3.15748
20
-4.51663
11
3.15748
21
-4.45364
0
LINE
8
BLACK
6
CONTINUOUS
10
3.15748
20
-4.45364
11
3.20472
21
-4.45364
0
LINE
8
BLACK
6
CONTINUOUS
10
3.20472
20
-4.45364
11
3.20472
21
-4.51663
0
LINE
8
BLACK
6
CONTINUOUS
10
4.71063
20
-4.45915
11
4.66339
21
-4.45915
0
LINE
8
BLACK
6
CONTINUOUS
10
4.66339
20
-4.45915
11
4.66339
21
-4.39616
0
LINE
8
BLACK
6
CONTINUOUS
10
4.66339
20
-4.39616
11
4.71063
21
-4.39616
0
LINE
8
BLACK
6
CONTINUOUS
10
4.71063
20
-4.39616
11
4.71063
21
-4.45915
0
LINE
8
BLACK
6
CONTINUOUS
10
1.70709
20
-4.45551
11
1.65984
21
-4.45551
0
LINE
8
BLACK
6
CONTINUOUS
10
1.65984
20
-4.45551
11
1.65984
21
-4.39252
0
LINE
8
BLACK
6
CONTINUOUS
10
1.65984
20
-4.39252
11
1.70709
21
-4.39252
0
LINE
8
BLACK
6
CONTINUOUS
10
1.70709
20
-4.39252
11
1.70709
21
-4.45551
0
LINE
8
BLACK
6
CONTINUOUS
10
3.96535
20
-4.44429
11
3.91811
21
-4.44429
0
LINE
8
BLACK
6
CONTINUOUS
10
3.91811
20
-4.44429
11
3.91811
21
-4.3813
0
LINE
8
BLACK
6
CONTINUOUS
10
3.91811
20
-4.3813
11
3.96535
21
-4.3813
0
LINE
8
BLACK
6
CONTINUOUS
10
3.96535
20
-4.3813
11
3.96535
21
-4.44429
0
LINE
8
BLACK
6
CONTINUOUS
10
2.45748
20
-4.40866
11
2.41024
21
-4.40866
0
LINE
8
BLACK
6
CONTINUOUS
10
2.41024
20
-4.40866
11
2.41024
21
-4.34567
0
LINE
8
BLACK
6
CONTINUOUS
10
2.41024
20
-4.34567
11
2.45748
21
-4.34567
0
LINE
8
BLACK
6
CONTINUOUS
10
2.45748
20
-4.34567
11
2.45748
21
-4.40866
0
LINE
8
BLACK
6
CONTINUOUS
10
3.20472
20
-4.4064
11
3.15748
21
-4.4064
0
LINE
8
BLACK
6
CONTINUOUS
10
3.15748
20
-4.4064
11
3.15748
21
-4.34341
0
LINE
8
BLACK
6
CONTINUOUS
10
3.15748
20
-4.34341
11
3.20472
21
-4.34341
0
LINE
8
BLACK
6
CONTINUOUS
10
3.20472
20
-4.34341
11
3.20472
21
-4.4064
0
LINE
8
BLACK
6
CONTINUOUS
10
5.15748
20
-4.14488
11
5.09449
21
-4.14488
0
LINE
8
BLACK
6
CONTINUOUS
10
5.09449
20
-4.14488
11
5.09449
21
-4.09764
0
LINE
8
BLACK
6
CONTINUOUS
10
5.09449
20
-4.09764
11
5.15748
21
-4.09764
0
LINE
8
BLACK
6
CONTINUOUS
10
5.15748
20
-4.09764
11
5.15748
21
-4.14488
0
LINE
8
BLACK
6
CONTINUOUS
10
5.26772
20
-4.14488
11
5.20472
21
-4.14488
0
LINE
8
BLACK
6
CONTINUOUS
10
5.20472
20
-4.14488
11
5.20472
21
-4.09764
0
LINE
8
BLACK
6
CONTINUOUS
10
5.20472
20
-4.09764
11
5.26772
21
-4.09764
0
LINE
8
BLACK
6
CONTINUOUS
10
5.26772
20
-4.09764
11
5.26772
21
-4.14488
0
LINE
8
BLACK
6
CONTINUOUS
10
3.95827
20
-3.86516
11
3.91102
21
-3.86516
0
LINE
8
BLACK
6
CONTINUOUS
10
3.91102
20
-3.86516
11
3.91102
21
-3.80217
0
LINE
8
BLACK
6
CONTINUOUS
10
3.91102
20
-3.80217
11
3.95827
21
-3.80217
0
LINE
8
BLACK
6
CONTINUOUS
10
3.95827
20
-3.80217
11
3.95827
21
-3.86516
0
LINE
8
BLACK
6
CONTINUOUS
10
4.7063
20
-3.84498
11
4.65906
21
-3.84498
0
LINE
8
BLACK
6
CONTINUOUS
10
4.65906
20
-3.84498
11
4.65906
21
-3.78199
0
LINE
8
BLACK
6
CONTINUOUS
10
4.65906
20
-3.78199
11
4.7063
21
-3.78199
0
LINE
8
BLACK
6
CONTINUOUS
10
4.7063
20
-3.78199
11
4.7063
21
-3.84498
0
LINE
8
BLACK
6
CONTINUOUS
10
3.20906
20
-3.8064
11
3.16181
21
-3.8064
0
LINE
8
BLACK
6
CONTINUOUS
10
3.16181
20
-3.8064
11
3.16181
21
-3.74341
0
LINE
8
BLACK
6
CONTINUOUS
10
3.16181
20
-3.74341
11
3.20906
21
-3.74341
0
LINE
8
BLACK
6
CONTINUOUS
10
3.20906
20
-3.74341
11
3.20906
21
-3.8064
0
LINE
8
BLACK
6
CONTINUOUS
10
1.71378
20
-3.76575
11
1.66654
21
-3.76575
0
LINE
8
BLACK
6
CONTINUOUS
10
1.66654
20
-3.76575
11
1.66654
21
-3.70276
0
LINE
8
BLACK
6
CONTINUOUS
10
1.66654
20
-3.70276
11
1.71378
21
-3.70276
0
LINE
8
BLACK
6
CONTINUOUS
10
1.71378
20
-3.70276
11
1.71378
21
-3.76575
0
LINE
8
BLACK
6
CONTINUOUS
10
2.46575
20
-3.76102
11
2.4185
21
-3.76102
0
LINE
8
BLACK
6
CONTINUOUS
10
2.4185
20
-3.76102
11
2.4185
21
-3.69803
0
LINE
8
BLACK
6
CONTINUOUS
10
2.4185
20
-3.69803
11
2.46575
21
-3.69803
0
LINE
8
BLACK
6
CONTINUOUS
10
2.46575
20
-3.69803
11
2.46575
21
-3.76102
0
LINE
8
BLACK
6
CONTINUOUS
10
3.95827
20
-3.75492
11
3.91102
21
-3.75492
0
LINE
8
BLACK
6
CONTINUOUS
10
3.91102
20
-3.75492
11
3.91102
21
-3.69193
0
LINE
8
BLACK
6
CONTINUOUS
10
3.91102
20
-3.69193
11
3.95827
21
-3.69193
0
LINE
8
BLACK
6
CONTINUOUS
10
3.95827
20
-3.69193
11
3.95827
21
-3.75492
0
LINE
8
BLACK
6
CONTINUOUS
10
4.7063
20
-3.73474
11
4.65906
21
-3.73474
0
LINE
8
BLACK
6
CONTINUOUS
10
4.65906
20
-3.73474
11
4.65906
21
-3.67175
0
LINE
8
BLACK
6
CONTINUOUS
10
4.65906
20
-3.67175
11
4.7063
21
-3.67175
0
LINE
8
BLACK
6
CONTINUOUS
10
4.7063
20
-3.67175
11
4.7063
21
-3.73474
0
LINE
8
BLACK
6
CONTINUOUS
10
3.20906
20
-3.69616
11
3.16181
21
-3.69616
0
LINE
8
BLACK
6
CONTINUOUS
10
3.16181
20
-3.69616
11
3.16181
21
-3.63317
0
LINE
8
BLACK
6
CONTINUOUS
10
3.16181
20
-3.63317
11
3.20906
21
-3.63317
0
LINE
8
BLACK
6
CONTINUOUS
10
3.20906
20
-3.63317
11
3.20906
21
-3.69616
0
LINE
8
BLACK
6
CONTINUOUS
10
1.71378
20
-3.65551
11
1.66654
21
-3.65551
0
LINE
8
BLACK
6
CONTINUOUS
10
1.66654
20
-3.65551
11
1.66654
21
-3.59252
0
LINE
8
BLACK
6
CONTINUOUS
10
1.66654
20
-3.59252
11
1.71378
21
-3.59252
0
LINE
8
BLACK
6
CONTINUOUS
10
1.71378
20
-3.59252
11
1.71378
21
-3.65551
0
LINE
8
BLACK
6
CONTINUOUS
10
2.46575
20
-3.65079
11
2.4185
21
-3.65079
0
LINE
8
BLACK
6
CONTINUOUS
10
2.4185
20
-3.65079
11
2.4185
21
-3.5878
0
LINE
8
BLACK
6
CONTINUOUS
10
2.4185
20
-3.5878
11
2.46575
21
-3.5878
0
LINE
8
BLACK
6
CONTINUOUS
10
2.46575
20
-3.5878
11
2.46575
21
-3.65079
0
LINE
8
BLACK
6
CONTINUOUS
10
5.1685
20
-3.38898
11
5.10551
21
-3.38898
0
LINE
8
BLACK
6
CONTINUOUS
10
5.10551
20
-3.38898
11
5.10551
21
-3.34173
0
LINE
8
BLACK
6
CONTINUOUS
10
5.10551
20
-3.34173
11
5.1685
21
-3.34173
0
LINE
8
BLACK
6
CONTINUOUS
10
5.1685
20
-3.34173
11
5.1685
21
-3.38898
0
LINE
8
BLACK
6
CONTINUOUS
10
5.27874
20
-3.38898
11
5.21575
21
-3.38898
0
LINE
8
BLACK
6
CONTINUOUS
10
5.21575
20
-3.38898
11
5.21575
21
-3.34173
0
LINE
8
BLACK
6
CONTINUOUS
10
5.21575
20
-3.34173
11
5.27874
21
-3.34173
0
LINE
8
BLACK
6
CONTINUOUS
10
5.27874
20
-3.34173
11
5.27874
21
-3.38898
0
LINE
8
BLACK
6
CONTINUOUS
10
3.95866
20
-3.10925
11
3.91142
21
-3.10925
0
LINE
8
BLACK
6
CONTINUOUS
10
3.91142
20
-3.10925
11
3.91142
21
-3.04626
0
LINE
8
BLACK
6
CONTINUOUS
10
3.91142
20
-3.04626
11
3.95866
21
-3.04626
0
LINE
8
BLACK
6
CONTINUOUS
10
3.95866
20
-3.04626
11
3.95866
21
-3.10925
0
LINE
8
BLACK
6
CONTINUOUS
10
4.71417
20
-3.09144
11
4.66693
21
-3.09144
0
LINE
8
BLACK
6
CONTINUOUS
10
4.66693
20
-3.09144
11
4.66693
21
-3.02844
0
LINE
8
BLACK
6
CONTINUOUS
10
4.66693
20
-3.02844
11
4.71417
21
-3.02844
0
LINE
8
BLACK
6
CONTINUOUS
10
4.71417
20
-3.02844
11
4.71417
21
-3.09144
0
LINE
8
BLACK
6
CONTINUOUS
10
1.70433
20
-3.04606
11
1.65709
21
-3.04606
0
LINE
8
BLACK
6
CONTINUOUS
10
1.65709
20
-3.04606
11
1.65709
21
-2.98307
0
LINE
8
BLACK
6
CONTINUOUS
10
1.65709
20
-2.98307
11
1.70433
21
-2.98307
0
LINE
8
BLACK
6
CONTINUOUS
10
1.70433
20
-2.98307
11
1.70433
21
-3.04606
0
LINE
8
BLACK
6
CONTINUOUS
10
3.20591
20
-3.04498
11
3.15866
21
-3.04498
0
LINE
8
BLACK
6
CONTINUOUS
10
3.15866
20
-3.04498
11
3.15866
21
-2.98199
0
LINE
8
BLACK
6
CONTINUOUS
10
3.15866
20
-2.98199
11
3.20591
21
-2.98199
0
LINE
8
BLACK
6
CONTINUOUS
10
3.20591
20
-2.98199
11
3.20591
21
-3.04498
0
LINE
8
BLACK
6
CONTINUOUS
10
2.45906
20
-3.01063
11
2.41181
21
-3.01063
0
LINE
8
BLACK
6
CONTINUOUS
10
2.41181
20
-3.01063
11
2.41181
21
-2.94764
0
LINE
8
BLACK
6
CONTINUOUS
10
2.41181
20
-2.94764
11
2.45906
21
-2.94764
0
LINE
8
BLACK
6
CONTINUOUS
10
2.45906
20
-2.94764
11
2.45906
21
-3.01063
0
LINE
8
BLACK
6
CONTINUOUS
10
3.95866
20
-2.99902
11
3.91142
21
-2.99902
0
LINE
8
BLACK
6
CONTINUOUS
10
3.91142
20
-2.99902
11
3.91142
21
-2.93602
0
LINE
8
BLACK
6
CONTINUOUS
10
3.91142
20
-2.93602
11
3.95866
21
-2.93602
0
LINE
8
BLACK
6
CONTINUOUS
10
3.95866
20
-2.93602
11
3.95866
21
-2.99902
0
LINE
8
BLACK
6
CONTINUOUS
10
4.71417
20
-2.9812
11
4.66693
21
-2.9812
0
LINE
8
BLACK
6
CONTINUOUS
10
4.66693
20
-2.9812
11
4.66693
21
-2.91821
0
LINE
8
BLACK
6
CONTINUOUS
10
4.66693
20
-2.91821
11
4.71417
21
-2.91821
0
LINE
8
BLACK
6
CONTINUOUS
10
4.71417
20
-2.91821
11
4.71417
21
-2.9812
0
LINE
8
BLACK
6
CONTINUOUS
10
1.70433
20
-2.93583
11
1.65709
21
-2.93583
0
LINE
8
BLACK
6
CONTINUOUS
10
1.65709
20
-2.93583
11
1.65709
21
-2.87283
0
LINE
8
BLACK
6
CONTINUOUS
10
1.65709
20
-2.87283
11
1.70433
21
-2.87283
0
LINE
8
BLACK
6
CONTINUOUS
10
1.70433
20
-2.87283
11
1.70433
21
-2.93583
0
LINE
8
BLACK
6
CONTINUOUS
10
3.20591
20
-2.93474
11
3.15866
21
-2.93474
0
LINE
8
BLACK
6
CONTINUOUS
10
3.15866
20
-2.93474
11
3.15866
21
-2.87175
0
LINE
8
BLACK
6
CONTINUOUS
10
3.15866
20
-2.87175
11
3.20591
21
-2.87175
0
LINE
8
BLACK
6
CONTINUOUS
10
3.20591
20
-2.87175
11
3.20591
21
-2.93474
0
LINE
8
BLACK
6
CONTINUOUS
10
2.45906
20
-2.90039
11
2.41181
21
-2.90039
0
LINE
8
BLACK
6
CONTINUOUS
10
2.41181
20
-2.90039
11
2.41181
21
-2.8374
0
LINE
8
BLACK
6
CONTINUOUS
10
2.41181
20
-2.8374
11
2.45906
21
-2.8374
0
LINE
8
BLACK
6
CONTINUOUS
10
2.45906
20
-2.8374
11
2.45906
21
-2.90039
0
LINE
8
BLACK
6
CONTINUOUS
10
5.16535
20
-2.64213
11
5.10236
21
-2.64213
0
LINE
8
BLACK
6
CONTINUOUS
10
5.10236
20
-2.64213
11
5.10236
21
-2.59488
0
LINE
8
BLACK
6
CONTINUOUS
10
5.10236
20
-2.59488
11
5.16535
21
-2.59488
0
LINE
8
BLACK
6
CONTINUOUS
10
5.16535
20
-2.59488
11
5.16535
21
-2.64213
0
LINE
8
BLACK
6
CONTINUOUS
10
5.27559
20
-2.64213
11
5.2126
21
-2.64213
0
LINE
8
BLACK
6
CONTINUOUS
10
5.2126
20
-2.64213
11
5.2126
21
-2.59488
0
LINE
8
BLACK
6
CONTINUOUS
10
5.2126
20
-2.59488
11
5.27559
21
-2.59488
0
LINE
8
BLACK
6
CONTINUOUS
10
5.27559
20
-2.59488
11
5.27559
21
-2.64213
0
LINE
8
BLACK
6
CONTINUOUS
10
1.7122
20
-2.34843
11
1.66496
21
-2.34843
0
LINE
8
BLACK
6
CONTINUOUS
10
1.66496
20
-2.34843
11
1.66496
21
-2.28543
0
LINE
8
BLACK
6
CONTINUOUS
10
1.66496
20
-2.28543
11
1.7122
21
-2.28543
0
LINE
8
BLACK
6
CONTINUOUS
10
1.7122
20
-2.28543
11
1.7122
21
-2.34843
0
LINE
8
BLACK
6
CONTINUOUS
10
4.72126
20
-2.34567
11
4.67402
21
-2.34567
0
LINE
8
BLACK
6
CONTINUOUS
10
4.67402
20
-2.34567
11
4.67402
21
-2.28268
0
LINE
8
BLACK
6
CONTINUOUS
10
4.67402
20
-2.28268
11
4.72126
21
-2.28268
0
LINE
8
BLACK
6
CONTINUOUS
10
4.72126
20
-2.28268
11
4.72126
21
-2.34567
0
LINE
8
BLACK
6
CONTINUOUS
10
3.95866
20
-2.33898
11
3.91142
21
-2.33898
0
LINE
8
BLACK
6
CONTINUOUS
10
3.91142
20
-2.33898
11
3.91142
21
-2.27598
0
LINE
8
BLACK
6
CONTINUOUS
10
3.91142
20
-2.27598
11
3.95866
21
-2.27598
0
LINE
8
BLACK
6
CONTINUOUS
10
3.95866
20
-2.27598
11
3.95866
21
-2.33898
0
LINE
8
BLACK
6
CONTINUOUS
10
3.2122
20
-2.3186
11
3.16496
21
-2.3186
0
LINE
8
BLACK
6
CONTINUOUS
10
3.16496
20
-2.3186
11
3.16496
21
-2.25561
0
LINE
8
BLACK
6
CONTINUOUS
10
3.16496
20
-2.25561
11
3.2122
21
-2.25561
0
LINE
8
BLACK
6
CONTINUOUS
10
3.2122
20
-2.25561
11
3.2122
21
-2.3186
0
LINE
8
BLACK
6
CONTINUOUS
10
2.46535
20
-2.30118
11
2.41811
21
-2.30118
0
LINE
8
BLACK
6
CONTINUOUS
10
2.41811
20
-2.30118
11
2.41811
21
-2.23819
0
LINE
8
BLACK
6
CONTINUOUS
10
2.41811
20
-2.23819
11
2.46535
21
-2.23819
0
LINE
8
BLACK
6
CONTINUOUS
10
2.46535
20
-2.23819
11
2.46535
21
-2.30118
0
LINE
8
BLACK
6
CONTINUOUS
10
1.7122
20
-2.23819
11
1.66496
21
-2.23819
0
LINE
8
BLACK
6
CONTINUOUS
10
1.66496
20
-2.23819
11
1.66496
21
-2.1752
0
LINE
8
BLACK
6
CONTINUOUS
10
1.66496
20
-2.1752
11
1.7122
21
-2.1752
0
LINE
8
BLACK
6
CONTINUOUS
10
1.7122
20
-2.1752
11
1.7122
21
-2.23819
0
LINE
8
BLACK
6
CONTINUOUS
10
4.72126
20
-2.23543
11
4.67402
21
-2.23543
0
LINE
8
BLACK
6
CONTINUOUS
10
4.67402
20
-2.23543
11
4.67402
21
-2.17244
0
LINE
8
BLACK
6
CONTINUOUS
10
4.67402
20
-2.17244
11
4.72126
21
-2.17244
0
LINE
8
BLACK
6
CONTINUOUS
10
4.72126
20
-2.17244
11
4.72126
21
-2.23543
0
LINE
8
BLACK
6
CONTINUOUS
10
3.95866
20
-2.22874
11
3.91142
21
-2.22874
0
LINE
8
BLACK
6
CONTINUOUS
10
3.91142
20
-2.22874
11
3.91142
21
-2.16575
0
LINE
8
BLACK
6
CONTINUOUS
10
3.91142
20
-2.16575
11
3.95866
21
-2.16575
0
LINE
8
BLACK
6
CONTINUOUS
10
3.95866
20
-2.16575
11
3.95866
21
-2.22874
0
LINE
8
BLACK
6
CONTINUOUS
10
3.2122
20
-2.20837
11
3.16496
21
-2.20837
0
LINE
8
BLACK
6
CONTINUOUS
10
3.16496
20
-2.20837
11
3.16496
21
-2.14537
0
LINE
8
BLACK
6
CONTINUOUS
10
3.16496
20
-2.14537
11
3.2122
21
-2.14537
0
LINE
8
BLACK
6
CONTINUOUS
10
3.2122
20
-2.14537
11
3.2122
21
-2.20837
0
LINE
8
BLACK
6
CONTINUOUS
10
2.46535
20
-2.19094
11
2.41811
21
-2.19094
0
LINE
8
BLACK
6
CONTINUOUS
10
2.41811
20
-2.19094
11
2.41811
21
-2.12795
0
LINE
8
BLACK
6
CONTINUOUS
10
2.41811
20
-2.12795
11
2.46535
21
-2.12795
0
LINE
8
BLACK
6
CONTINUOUS
10
2.46535
20
-2.12795
11
2.46535
21
-2.19094
0
LINE
8
BLACK
6
CONTINUOUS
10
3.64764
20
-1.37165
11
3.60039
21
-1.37165
0
LINE
8
BLACK
6
CONTINUOUS
10
3.60039
20
-1.37165
11
3.60039
21
-1.30866
0
LINE
8
BLACK
6
CONTINUOUS
10
3.60039
20
-1.30866
11
3.64764
21
-1.30866
0
LINE
8
BLACK
6
CONTINUOUS
10
3.64764
20
-1.30866
11
3.64764
21
-1.37165
0
LINE
8
BLACK
6
CONTINUOUS
10
2.8874
20
-1.36496
11
2.84016
21
-1.36496
0
LINE
8
BLACK
6
CONTINUOUS
10
2.84016
20
-1.36496
11
2.84016
21
-1.30197
0
LINE
8
BLACK
6
CONTINUOUS
10
2.84016
20
-1.30197
11
2.8874
21
-1.30197
0
LINE
8
BLACK
6
CONTINUOUS
10
2.8874
20
-1.30197
11
2.8874
21
-1.36496
0
LINE
8
BLACK
6
CONTINUOUS
10
2.15906
20
-1.3378
11
2.11181
21
-1.3378
0
LINE
8
BLACK
6
CONTINUOUS
10
2.11181
20
-1.3378
11
2.11181
21
-1.2748
0
LINE
8
BLACK
6
CONTINUOUS
10
2.11181
20
-1.2748
11
2.15906
21
-1.2748
0
LINE
8
BLACK
6
CONTINUOUS
10
2.15906
20
-1.2748
11
2.15906
21
-1.3378
0
LINE
8
BLACK
6
CONTINUOUS
10
4.35748
20
-1.30709
11
4.31024
21
-1.30709
0
LINE
8
BLACK
6
CONTINUOUS
10
4.31024
20
-1.30709
11
4.31024
21
-1.24409
0
LINE
8
BLACK
6
CONTINUOUS
10
4.31024
20
-1.24409
11
4.35748
21
-1.24409
0
LINE
8
BLACK
6
CONTINUOUS
10
4.35748
20
-1.24409
11
4.35748
21
-1.30709
0
LINE
8
BLACK
6
CONTINUOUS
10
3.64764
20
-1.26142
11
3.60039
21
-1.26142
0
LINE
8
BLACK
6
CONTINUOUS
10
3.60039
20
-1.26142
11
3.60039
21
-1.19843
0
LINE
8
BLACK
6
CONTINUOUS
10
3.60039
20
-1.19843
11
3.64764
21
-1.19843
0
LINE
8
BLACK
6
CONTINUOUS
10
3.64764
20
-1.19843
11
3.64764
21
-1.26142
0
LINE
8
BLACK
6
CONTINUOUS
10
2.8874
20
-1.25472
11
2.84016
21
-1.25472
0
LINE
8
BLACK
6
CONTINUOUS
10
2.84016
20
-1.25472
11
2.84016
21
-1.19173
0
LINE
8
BLACK
6
CONTINUOUS
10
2.84016
20
-1.19173
11
2.8874
21
-1.19173
0
LINE
8
BLACK
6
CONTINUOUS
10
2.8874
20
-1.19173
11
2.8874
21
-1.25472
0
LINE
8
BLACK
6
CONTINUOUS
10
2.15906
20
-1.22756
11
2.11181
21
-1.22756
0
LINE
8
BLACK
6
CONTINUOUS
10
2.11181
20
-1.22756
11
2.11181
21
-1.16457
0
LINE
8
BLACK
6
CONTINUOUS
10
2.11181
20
-1.16457
11
2.15906
21
-1.16457
0
LINE
8
BLACK
6
CONTINUOUS
10
2.15906
20
-1.16457
11
2.15906
21
-1.22756
0
LINE
8
BLACK
6
CONTINUOUS
10
4.35748
20
-1.19685
11
4.31024
21
-1.19685
0
LINE
8
BLACK
6
CONTINUOUS
10
4.31024
20
-1.19685
11
4.31024
21
-1.13386
0
LINE
8
BLACK
6
CONTINUOUS
10
4.31024
20
-1.13386
11
4.35748
21
-1.13386
0
LINE
8
BLACK
6
CONTINUOUS
10
4.35748
20
-1.13386
11
4.35748
21
-1.19685
  0
ENDSEC
  0
EOF
