G04 #@! TF.GenerationSoftware,KiCad,Pcbnew,(5.1.5-0-10_14)*
G04 #@! TF.CreationDate,2021-05-07T17:03:44+03:00*
G04 #@! TF.ProjectId,Sotka,536f746b-612e-46b6-9963-61645f706362,rev?*
G04 #@! TF.SameCoordinates,Original*
G04 #@! TF.FileFunction,Copper,L1,Top*
G04 #@! TF.FilePolarity,Positive*
%FSLAX46Y46*%
G04 Gerber Fmt 4.6, Leading zero omitted, Abs format (unit mm)*
G04 Created by KiCad (PCBNEW (5.1.5-0-10_14)) date 2021-05-07 17:03:44*
%MOMM*%
%LPD*%
G04 APERTURE LIST*
%ADD10C,3.300000*%
%ADD11C,1.500000*%
%ADD12R,0.500000X2.900000*%
%ADD13R,1.600000X1.600000*%
%ADD14C,1.600000*%
%ADD15R,1.200000X1.600000*%
%ADD16R,2.900000X0.500000*%
%ADD17R,1.600000X1.200000*%
%ADD18C,2.286000*%
%ADD19C,2.000000*%
%ADD20R,3.200000X2.000000*%
%ADD21R,2.000000X2.000000*%
%ADD22C,1.752600*%
%ADD23R,1.752600X1.752600*%
%ADD24O,1.700000X1.950000*%
%ADD25C,0.100000*%
%ADD26R,1.000000X1.500000*%
%ADD27C,0.250000*%
G04 APERTURE END LIST*
D10*
X100060000Y-69100000D03*
X42740000Y-104980000D03*
X42870000Y-66740000D03*
X119050000Y-106050000D03*
D11*
X143540000Y-105730000D03*
X141000000Y-112080000D03*
X141000000Y-107000000D03*
X143540000Y-108270000D03*
X143540000Y-110810000D03*
X141000000Y-109540000D03*
D12*
X42760000Y-116270000D03*
X42760000Y-111270000D03*
D13*
X42760000Y-117670000D03*
D14*
X42760000Y-109870000D03*
D15*
X42760000Y-112370000D03*
X42760000Y-115170000D03*
D12*
X42690000Y-77670000D03*
X42690000Y-72670000D03*
D13*
X42690000Y-79070000D03*
D14*
X42690000Y-71270000D03*
D15*
X42690000Y-73770000D03*
X42690000Y-76570000D03*
D12*
X42930000Y-95950000D03*
X42930000Y-90950000D03*
D13*
X42930000Y-97350000D03*
D14*
X42930000Y-89550000D03*
D15*
X42930000Y-92050000D03*
X42930000Y-94850000D03*
D12*
X42890000Y-59950000D03*
X42890000Y-54950000D03*
D13*
X42890000Y-61350000D03*
D14*
X42890000Y-53550000D03*
D15*
X42890000Y-56050000D03*
X42890000Y-58850000D03*
D12*
X61820000Y-115080000D03*
X61820000Y-110080000D03*
D13*
X61820000Y-116480000D03*
D14*
X61820000Y-108680000D03*
D15*
X61820000Y-111180000D03*
X61820000Y-113980000D03*
D12*
X61860000Y-76770000D03*
X61860000Y-71770000D03*
D13*
X61860000Y-78170000D03*
D14*
X61860000Y-70370000D03*
D15*
X61860000Y-72870000D03*
X61860000Y-75670000D03*
D12*
X62030000Y-95830000D03*
X62030000Y-90830000D03*
D13*
X62030000Y-97230000D03*
D14*
X62030000Y-89430000D03*
D15*
X62030000Y-91930000D03*
X62030000Y-94730000D03*
D12*
X62020000Y-58750000D03*
X62020000Y-53750000D03*
D13*
X62020000Y-60150000D03*
D14*
X62020000Y-52350000D03*
D15*
X62020000Y-54850000D03*
X62020000Y-57650000D03*
D12*
X80800000Y-115022500D03*
X80800000Y-110022500D03*
D13*
X80800000Y-116422500D03*
D14*
X80800000Y-108622500D03*
D15*
X80800000Y-111122500D03*
X80800000Y-113922500D03*
D12*
X118970000Y-133532500D03*
X118970000Y-128532500D03*
D13*
X118970000Y-134932500D03*
D14*
X118970000Y-127132500D03*
D15*
X118970000Y-129632500D03*
X118970000Y-132432500D03*
D12*
X80830000Y-77642500D03*
X80830000Y-72642500D03*
D13*
X80830000Y-79042500D03*
D14*
X80830000Y-71242500D03*
D15*
X80830000Y-73742500D03*
X80830000Y-76542500D03*
D12*
X80910000Y-96982500D03*
X80910000Y-91982500D03*
D13*
X80910000Y-98382500D03*
D14*
X80910000Y-90582500D03*
D15*
X80910000Y-93082500D03*
X80910000Y-95882500D03*
D12*
X80990000Y-59192500D03*
X80990000Y-54192500D03*
D13*
X80990000Y-60592500D03*
D14*
X80990000Y-52792500D03*
D15*
X80990000Y-55292500D03*
X80990000Y-58092500D03*
D12*
X100120000Y-115985000D03*
X100120000Y-110985000D03*
D13*
X100120000Y-117385000D03*
D14*
X100120000Y-109585000D03*
D15*
X100120000Y-112085000D03*
X100120000Y-114885000D03*
D12*
X138150000Y-132980000D03*
X138150000Y-127980000D03*
D13*
X138150000Y-134380000D03*
D14*
X138150000Y-126580000D03*
D15*
X138150000Y-129080000D03*
X138150000Y-131880000D03*
D12*
X99950000Y-79275000D03*
X99950000Y-74275000D03*
D13*
X99950000Y-80675000D03*
D14*
X99950000Y-72875000D03*
D15*
X99950000Y-75375000D03*
X99950000Y-78175000D03*
D12*
X99940000Y-98475000D03*
X99940000Y-93475000D03*
D13*
X99940000Y-99875000D03*
D14*
X99940000Y-92075000D03*
D15*
X99940000Y-94575000D03*
X99940000Y-97375000D03*
D12*
X99950000Y-59710000D03*
X99950000Y-54710000D03*
D13*
X99950000Y-61110000D03*
D14*
X99950000Y-53310000D03*
D15*
X99950000Y-55810000D03*
X99950000Y-58610000D03*
D12*
X119050000Y-116362500D03*
X119050000Y-111362500D03*
D13*
X119050000Y-117762500D03*
D14*
X119050000Y-109962500D03*
D15*
X119050000Y-112462500D03*
X119050000Y-115262500D03*
D16*
X139490000Y-123000000D03*
X144490000Y-123000000D03*
D13*
X138090000Y-123000000D03*
D14*
X145890000Y-123000000D03*
D17*
X143390000Y-123000000D03*
X140590000Y-123000000D03*
D12*
X119140000Y-78822500D03*
X119140000Y-73822500D03*
D13*
X119140000Y-80222500D03*
D14*
X119140000Y-72422500D03*
D15*
X119140000Y-74922500D03*
X119140000Y-77722500D03*
D12*
X118940000Y-97962500D03*
X118940000Y-92962500D03*
D13*
X118940000Y-99362500D03*
D14*
X118940000Y-91562500D03*
D15*
X118940000Y-94062500D03*
X118940000Y-96862500D03*
D12*
X119320000Y-59880000D03*
X119320000Y-54880000D03*
D13*
X119320000Y-61280000D03*
D14*
X119320000Y-53480000D03*
D15*
X119320000Y-55980000D03*
X119320000Y-58780000D03*
D16*
X125690000Y-123510000D03*
X130690000Y-123510000D03*
D13*
X124290000Y-123510000D03*
D14*
X132090000Y-123510000D03*
D17*
X129590000Y-123510000D03*
X126790000Y-123510000D03*
D16*
X129380000Y-85480000D03*
X134380000Y-85480000D03*
D13*
X127980000Y-85480000D03*
D14*
X135780000Y-85480000D03*
D17*
X133280000Y-85480000D03*
X130480000Y-85480000D03*
D16*
X129100000Y-104680000D03*
X134100000Y-104680000D03*
D13*
X127700000Y-104680000D03*
D14*
X135500000Y-104680000D03*
D17*
X133000000Y-104680000D03*
X130200000Y-104680000D03*
D16*
X129300000Y-66510000D03*
X134300000Y-66510000D03*
D13*
X127900000Y-66510000D03*
D14*
X135700000Y-66510000D03*
D17*
X133200000Y-66510000D03*
X130400000Y-66510000D03*
D18*
X29527500Y-111760000D03*
X35877500Y-109220000D03*
X30797500Y-109220000D03*
X37147500Y-111760000D03*
X29527500Y-73660000D03*
X35877500Y-71120000D03*
X30797500Y-71120000D03*
X37147500Y-73660000D03*
X29527500Y-92710000D03*
X35877500Y-90170000D03*
X30797500Y-90170000D03*
X37147500Y-92710000D03*
X48577500Y-111760000D03*
X54927500Y-109220000D03*
X49847500Y-109220000D03*
X56197500Y-111760000D03*
X48577500Y-73660000D03*
X54927500Y-71120000D03*
X49847500Y-71120000D03*
X56197500Y-73660000D03*
X48895000Y-92710000D03*
X55245000Y-90170000D03*
X50165000Y-90170000D03*
X56515000Y-92710000D03*
X48577500Y-54610000D03*
X54927500Y-52070000D03*
X49847500Y-52070000D03*
X56197500Y-54610000D03*
X67627500Y-111760000D03*
X73977500Y-109220000D03*
X68897500Y-109220000D03*
X75247500Y-111760000D03*
X105727500Y-130810000D03*
X112077500Y-128270000D03*
X106997500Y-128270000D03*
X113347500Y-130810000D03*
X67627500Y-73660000D03*
X73977500Y-71120000D03*
X68897500Y-71120000D03*
X75247500Y-73660000D03*
X67627500Y-92710000D03*
X73977500Y-90170000D03*
X68897500Y-90170000D03*
X75247500Y-92710000D03*
X67627500Y-54610000D03*
X73977500Y-52070000D03*
X68897500Y-52070000D03*
X75247500Y-54610000D03*
X86677500Y-111760000D03*
X93027500Y-109220000D03*
X87947500Y-109220000D03*
X94297500Y-111760000D03*
X124777500Y-130810000D03*
X131127500Y-128270000D03*
X126047500Y-128270000D03*
X132397500Y-130810000D03*
X86677500Y-73660000D03*
X93027500Y-71120000D03*
X87947500Y-71120000D03*
X94297500Y-73660000D03*
X86677500Y-92710000D03*
X93027500Y-90170000D03*
X87947500Y-90170000D03*
X94297500Y-92710000D03*
X86677500Y-54610000D03*
X93027500Y-52070000D03*
X87947500Y-52070000D03*
X94297500Y-54610000D03*
X105727500Y-111760000D03*
X112077500Y-109220000D03*
X106997500Y-109220000D03*
X113347500Y-111760000D03*
X143827500Y-130810000D03*
X150177500Y-128270000D03*
X145097500Y-128270000D03*
X151447500Y-130810000D03*
X105727500Y-73660000D03*
X112077500Y-71120000D03*
X106997500Y-71120000D03*
X113347500Y-73660000D03*
X105727500Y-92710000D03*
X112077500Y-90170000D03*
X106997500Y-90170000D03*
X113347500Y-92710000D03*
X105727500Y-54610000D03*
X112077500Y-52070000D03*
X106997500Y-52070000D03*
X113347500Y-54610000D03*
X124777500Y-111760000D03*
X131127500Y-109220000D03*
X126047500Y-109220000D03*
X132397500Y-111760000D03*
X124777500Y-73660000D03*
X131127500Y-71120000D03*
X126047500Y-71120000D03*
X132397500Y-73660000D03*
X124777500Y-92710000D03*
X131127500Y-90170000D03*
X126047500Y-90170000D03*
X132397500Y-92710000D03*
X124777500Y-54610000D03*
X131127500Y-52070000D03*
X126047500Y-52070000D03*
X132397500Y-54610000D03*
X29527500Y-54610000D03*
X35877500Y-52070000D03*
X30797500Y-52070000D03*
X37147500Y-54610000D03*
D19*
X51217500Y-33512500D03*
X51217500Y-28512500D03*
D20*
X44217500Y-36612500D03*
X44217500Y-25412500D03*
D19*
X36717500Y-33512500D03*
X36717500Y-31012500D03*
D21*
X36717500Y-28512500D03*
D22*
X156190000Y-63500000D03*
X140950000Y-91440000D03*
X156190000Y-66040000D03*
X156190000Y-68580000D03*
X156190000Y-71120000D03*
X156190000Y-73660000D03*
X156190000Y-76200000D03*
X156190000Y-78740000D03*
X156190000Y-81280000D03*
X156190000Y-83820000D03*
X156190000Y-86360000D03*
X156190000Y-88900000D03*
X156190000Y-91440000D03*
X140950000Y-88900000D03*
X140950000Y-86360000D03*
X140950000Y-83820000D03*
X140950000Y-81280000D03*
X140950000Y-78740000D03*
X140950000Y-76200000D03*
X140950000Y-73660000D03*
X140950000Y-71120000D03*
X140950000Y-68580000D03*
X140950000Y-66040000D03*
D23*
X140950000Y-63500000D03*
D12*
X54240000Y-34280000D03*
X54240000Y-29280000D03*
D13*
X54240000Y-35680000D03*
D14*
X54240000Y-27880000D03*
D15*
X54240000Y-30380000D03*
X54240000Y-33180000D03*
D12*
X72740000Y-34970000D03*
X72740000Y-29970000D03*
D13*
X72740000Y-36370000D03*
D14*
X72740000Y-28570000D03*
D15*
X72740000Y-31070000D03*
X72740000Y-33870000D03*
D12*
X92050000Y-35140000D03*
X92050000Y-30140000D03*
D13*
X92050000Y-36540000D03*
D14*
X92050000Y-28740000D03*
D15*
X92050000Y-31240000D03*
X92050000Y-34040000D03*
D12*
X110080000Y-33500000D03*
X110080000Y-28500000D03*
D13*
X110080000Y-34900000D03*
D14*
X110080000Y-27100000D03*
D15*
X110080000Y-29600000D03*
X110080000Y-32400000D03*
D24*
X89030000Y-40820000D03*
X86530000Y-40820000D03*
X84030000Y-40820000D03*
X81530000Y-40820000D03*
X79030000Y-40820000D03*
X76530000Y-40820000D03*
X74030000Y-40820000D03*
X71530000Y-40820000D03*
X69030000Y-40820000D03*
G04 #@! TA.AperFunction,ComponentPad*
D25*
G36*
X67154504Y-39846204D02*
G01*
X67178773Y-39849804D01*
X67202571Y-39855765D01*
X67225671Y-39864030D01*
X67247849Y-39874520D01*
X67268893Y-39887133D01*
X67288598Y-39901747D01*
X67306777Y-39918223D01*
X67323253Y-39936402D01*
X67337867Y-39956107D01*
X67350480Y-39977151D01*
X67360970Y-39999329D01*
X67369235Y-40022429D01*
X67375196Y-40046227D01*
X67378796Y-40070496D01*
X67380000Y-40095000D01*
X67380000Y-41545000D01*
X67378796Y-41569504D01*
X67375196Y-41593773D01*
X67369235Y-41617571D01*
X67360970Y-41640671D01*
X67350480Y-41662849D01*
X67337867Y-41683893D01*
X67323253Y-41703598D01*
X67306777Y-41721777D01*
X67288598Y-41738253D01*
X67268893Y-41752867D01*
X67247849Y-41765480D01*
X67225671Y-41775970D01*
X67202571Y-41784235D01*
X67178773Y-41790196D01*
X67154504Y-41793796D01*
X67130000Y-41795000D01*
X65930000Y-41795000D01*
X65905496Y-41793796D01*
X65881227Y-41790196D01*
X65857429Y-41784235D01*
X65834329Y-41775970D01*
X65812151Y-41765480D01*
X65791107Y-41752867D01*
X65771402Y-41738253D01*
X65753223Y-41721777D01*
X65736747Y-41703598D01*
X65722133Y-41683893D01*
X65709520Y-41662849D01*
X65699030Y-41640671D01*
X65690765Y-41617571D01*
X65684804Y-41593773D01*
X65681204Y-41569504D01*
X65680000Y-41545000D01*
X65680000Y-40095000D01*
X65681204Y-40070496D01*
X65684804Y-40046227D01*
X65690765Y-40022429D01*
X65699030Y-39999329D01*
X65709520Y-39977151D01*
X65722133Y-39956107D01*
X65736747Y-39936402D01*
X65753223Y-39918223D01*
X65771402Y-39901747D01*
X65791107Y-39887133D01*
X65812151Y-39874520D01*
X65834329Y-39864030D01*
X65857429Y-39855765D01*
X65881227Y-39849804D01*
X65905496Y-39846204D01*
X65930000Y-39845000D01*
X67130000Y-39845000D01*
X67154504Y-39846204D01*
G37*
G04 #@! TD.AperFunction*
D24*
X95720000Y-46950000D03*
X98220000Y-46950000D03*
X100720000Y-46950000D03*
X103220000Y-46950000D03*
X105720000Y-46950000D03*
X108220000Y-46950000D03*
X110720000Y-46950000D03*
X113220000Y-46950000D03*
X115720000Y-46950000D03*
G04 #@! TA.AperFunction,ComponentPad*
D25*
G36*
X118844504Y-45976204D02*
G01*
X118868773Y-45979804D01*
X118892571Y-45985765D01*
X118915671Y-45994030D01*
X118937849Y-46004520D01*
X118958893Y-46017133D01*
X118978598Y-46031747D01*
X118996777Y-46048223D01*
X119013253Y-46066402D01*
X119027867Y-46086107D01*
X119040480Y-46107151D01*
X119050970Y-46129329D01*
X119059235Y-46152429D01*
X119065196Y-46176227D01*
X119068796Y-46200496D01*
X119070000Y-46225000D01*
X119070000Y-47675000D01*
X119068796Y-47699504D01*
X119065196Y-47723773D01*
X119059235Y-47747571D01*
X119050970Y-47770671D01*
X119040480Y-47792849D01*
X119027867Y-47813893D01*
X119013253Y-47833598D01*
X118996777Y-47851777D01*
X118978598Y-47868253D01*
X118958893Y-47882867D01*
X118937849Y-47895480D01*
X118915671Y-47905970D01*
X118892571Y-47914235D01*
X118868773Y-47920196D01*
X118844504Y-47923796D01*
X118820000Y-47925000D01*
X117620000Y-47925000D01*
X117595496Y-47923796D01*
X117571227Y-47920196D01*
X117547429Y-47914235D01*
X117524329Y-47905970D01*
X117502151Y-47895480D01*
X117481107Y-47882867D01*
X117461402Y-47868253D01*
X117443223Y-47851777D01*
X117426747Y-47833598D01*
X117412133Y-47813893D01*
X117399520Y-47792849D01*
X117389030Y-47770671D01*
X117380765Y-47747571D01*
X117374804Y-47723773D01*
X117371204Y-47699504D01*
X117370000Y-47675000D01*
X117370000Y-46225000D01*
X117371204Y-46200496D01*
X117374804Y-46176227D01*
X117380765Y-46152429D01*
X117389030Y-46129329D01*
X117399520Y-46107151D01*
X117412133Y-46086107D01*
X117426747Y-46066402D01*
X117443223Y-46048223D01*
X117461402Y-46031747D01*
X117481107Y-46017133D01*
X117502151Y-46004520D01*
X117524329Y-45994030D01*
X117547429Y-45985765D01*
X117571227Y-45979804D01*
X117595496Y-45976204D01*
X117620000Y-45975000D01*
X118820000Y-45975000D01*
X118844504Y-45976204D01*
G37*
G04 #@! TD.AperFunction*
D18*
X59602500Y-28472500D03*
X65952500Y-25932500D03*
X60872500Y-25932500D03*
X67222500Y-28472500D03*
X78652500Y-28472500D03*
X85002500Y-25932500D03*
X79922500Y-25932500D03*
X86272500Y-28472500D03*
X97702500Y-28472500D03*
X104052500Y-25932500D03*
X98972500Y-25932500D03*
X105322500Y-28472500D03*
D26*
X117880000Y-28900000D03*
X114680000Y-28900000D03*
X117880000Y-33800000D03*
X114680000Y-33800000D03*
D11*
X143540000Y-105735000D03*
X141000000Y-99385000D03*
X141000000Y-104465000D03*
X143540000Y-103195000D03*
X143540000Y-100655000D03*
X141000000Y-101925000D03*
D27*
X53607500Y-28512500D02*
X54240000Y-27880000D01*
X51217500Y-28512500D02*
X53607500Y-28512500D01*
X128950000Y-66510000D02*
X130500000Y-68060000D01*
X127900000Y-66510000D02*
X128950000Y-66510000D01*
X135320000Y-68060000D02*
X136299980Y-69039980D01*
X130500000Y-68060000D02*
X135320000Y-68060000D01*
X136299980Y-69309980D02*
X136839972Y-69849972D01*
X136299980Y-69039980D02*
X136299980Y-69309980D01*
X136839972Y-81629972D02*
X138681775Y-83471775D01*
X136839972Y-69849972D02*
X136839972Y-81629972D01*
X140073701Y-90563701D02*
X140950000Y-91440000D01*
X138729990Y-89219990D02*
X140073701Y-90563701D01*
X138729990Y-85459990D02*
X138729990Y-89219990D01*
X138681775Y-85411775D02*
X138729990Y-85459990D01*
X138681775Y-83471775D02*
X138681775Y-85411775D01*
X67095499Y-28345499D02*
X67222500Y-28472500D01*
X67095499Y-27075499D02*
X67095499Y-28345499D01*
X65952500Y-25932500D02*
X67095499Y-27075499D01*
X72740000Y-28770000D02*
X72740000Y-29970000D01*
X72240000Y-28270000D02*
X72740000Y-28770000D01*
X67320000Y-28570000D02*
X67222500Y-28472500D01*
X72740000Y-28570000D02*
X67320000Y-28570000D01*
X86272500Y-27202500D02*
X86272500Y-28472500D01*
X85002500Y-25932500D02*
X86272500Y-27202500D01*
X91782500Y-28472500D02*
X92050000Y-28740000D01*
X86272500Y-28472500D02*
X91782500Y-28472500D01*
X110720000Y-46950000D02*
X110720000Y-47075000D01*
X110824952Y-48279952D02*
X110720000Y-48175000D01*
X110720000Y-48175000D02*
X110720000Y-46950000D01*
X133295592Y-48279952D02*
X110824952Y-48279952D01*
X139548588Y-54532948D02*
X133295592Y-48279952D01*
X139548590Y-55318590D02*
X139548588Y-55318588D01*
X139548590Y-72258590D02*
X139548590Y-55318590D01*
X139548588Y-55318588D02*
X139548588Y-54532948D01*
X140950000Y-73660000D02*
X139548590Y-72258590D01*
X104976054Y-28472500D02*
X105322500Y-28472500D01*
X104052500Y-27548946D02*
X104976054Y-28472500D01*
X104052500Y-25932500D02*
X104052500Y-27548946D01*
X108707500Y-28472500D02*
X110080000Y-27100000D01*
X105322500Y-28472500D02*
X108707500Y-28472500D01*
X143560000Y-105735000D02*
X143540000Y-105735000D01*
X146325201Y-95554799D02*
X155075201Y-95554799D01*
X142075001Y-99804999D02*
X146325201Y-95554799D01*
X157066299Y-71996299D02*
X156190000Y-71120000D01*
X157391301Y-72321301D02*
X157066299Y-71996299D01*
X157391301Y-93238699D02*
X157391301Y-72321301D01*
X155075201Y-95554799D02*
X157391301Y-93238699D01*
X142075001Y-104250001D02*
X142075001Y-99804999D01*
X143560000Y-105735000D02*
X142075001Y-104250001D01*
X144600660Y-100655000D02*
X145700000Y-101754340D01*
X143540000Y-100655000D02*
X144600660Y-100655000D01*
X145700000Y-108675000D02*
X143560000Y-110815000D01*
X145700000Y-101754340D02*
X145700000Y-108675000D01*
X147482820Y-66040000D02*
X151346410Y-66040000D01*
X113220000Y-46950000D02*
X113220000Y-45725000D01*
X141030018Y-60510018D02*
X141739980Y-61219980D01*
X151346410Y-66040000D02*
X156190000Y-66040000D01*
X141030018Y-54105150D02*
X141030018Y-60510018D01*
X141739980Y-61219980D02*
X142662801Y-61219981D01*
X133854793Y-46929925D02*
X141030018Y-54105150D01*
X113220000Y-45725000D02*
X114045010Y-44899990D01*
X122246334Y-46929924D02*
X133854793Y-46929925D01*
X142662801Y-61219981D02*
X147482820Y-66040000D01*
X114045010Y-44899990D02*
X120216400Y-44899990D01*
X120216400Y-44899990D02*
X122246334Y-46929924D01*
X157841311Y-67691311D02*
X157066299Y-66916299D01*
X157841311Y-93425099D02*
X157841311Y-67691311D01*
X157066299Y-66916299D02*
X156190000Y-66040000D01*
X155650000Y-95616410D02*
X157841311Y-93425099D01*
X155650000Y-97020000D02*
X155650000Y-95616410D01*
X152764999Y-99905001D02*
X155650000Y-97020000D01*
X144289999Y-99905001D02*
X152764999Y-99905001D01*
X143540000Y-100655000D02*
X144289999Y-99905001D01*
X139959340Y-109545000D02*
X138800000Y-108385660D01*
X141020000Y-109545000D02*
X139959340Y-109545000D01*
X138800000Y-104125000D02*
X141000000Y-101925000D01*
X138800000Y-108385660D02*
X138800000Y-104125000D01*
X139924999Y-94242927D02*
X142690000Y-91477926D01*
X139924999Y-100849999D02*
X139924999Y-94242927D01*
X141000000Y-101925000D02*
X139924999Y-100849999D01*
X142690000Y-77940000D02*
X140950000Y-76200000D01*
X142690000Y-91477926D02*
X142690000Y-77940000D01*
X141020000Y-109545000D02*
X141020000Y-109430000D01*
X29527500Y-53340000D02*
X29527500Y-54610000D01*
X30797500Y-52070000D02*
X29527500Y-53340000D01*
X29527500Y-69850000D02*
X30797500Y-71120000D01*
X29527500Y-54610000D02*
X29527500Y-69850000D01*
X29527500Y-72390000D02*
X29527500Y-73660000D01*
X30797500Y-71120000D02*
X29527500Y-72390000D01*
X29527500Y-88900000D02*
X30797500Y-90170000D01*
X29527500Y-73660000D02*
X29527500Y-88900000D01*
X29527500Y-91440000D02*
X29527500Y-92710000D01*
X30797500Y-90170000D02*
X29527500Y-91440000D01*
X29527500Y-107950000D02*
X30797500Y-109220000D01*
X29527500Y-92710000D02*
X29527500Y-107950000D01*
X29527500Y-110490000D02*
X29527500Y-111760000D01*
X30797500Y-109220000D02*
X29527500Y-110490000D01*
X137261421Y-54805011D02*
X137275011Y-54805011D01*
X132536401Y-50079991D02*
X137261421Y-54805011D01*
X100720000Y-48175000D02*
X101066400Y-48521400D01*
X100720000Y-46950000D02*
X100720000Y-48175000D01*
X104299991Y-50079991D02*
X132536401Y-50079991D01*
X102741400Y-48521400D02*
X104299991Y-50079991D01*
X101066400Y-48521400D02*
X102741400Y-48521400D01*
X137261421Y-54811421D02*
X137261421Y-54805011D01*
X137739990Y-55289990D02*
X137261421Y-54811421D01*
X137739990Y-81246400D02*
X137739990Y-55289990D01*
X139581795Y-83088205D02*
X137739990Y-81246400D01*
X139581795Y-84991795D02*
X139581795Y-83088205D01*
X140950000Y-86360000D02*
X139581795Y-84991795D01*
X48577500Y-53340000D02*
X48577500Y-54610000D01*
X49847500Y-52070000D02*
X48577500Y-53340000D01*
X48577500Y-69850000D02*
X49847500Y-71120000D01*
X48577500Y-54610000D02*
X48577500Y-69850000D01*
X48577500Y-72390000D02*
X48577500Y-73660000D01*
X49847500Y-71120000D02*
X48577500Y-72390000D01*
X48577500Y-88582500D02*
X50165000Y-90170000D01*
X48577500Y-73660000D02*
X48577500Y-88582500D01*
X48895000Y-91440000D02*
X48895000Y-92710000D01*
X50165000Y-90170000D02*
X48895000Y-91440000D01*
X48895000Y-108267500D02*
X49847500Y-109220000D01*
X48895000Y-92710000D02*
X48895000Y-108267500D01*
X48577500Y-110490000D02*
X48577500Y-111760000D01*
X49847500Y-109220000D02*
X48577500Y-110490000D01*
X138190000Y-55083590D02*
X138190000Y-81060000D01*
X137461411Y-54355001D02*
X138190000Y-55083590D01*
X137447821Y-54355001D02*
X137461411Y-54355001D01*
X132722800Y-49629982D02*
X137447821Y-54355001D01*
X103220000Y-48300000D02*
X104180000Y-49260000D01*
X104180000Y-49260000D02*
X104950000Y-49260000D01*
X138190000Y-81060000D02*
X140950000Y-83820000D01*
X105319981Y-49629981D02*
X132722800Y-49629982D01*
X104950000Y-49260000D02*
X105319981Y-49629981D01*
X103220000Y-46950000D02*
X103220000Y-48300000D01*
X67627500Y-53340000D02*
X67627500Y-54610000D01*
X68897500Y-52070000D02*
X67627500Y-53340000D01*
X67627500Y-69850000D02*
X68897500Y-71120000D01*
X67627500Y-54610000D02*
X67627500Y-69850000D01*
X67754501Y-73532999D02*
X67627500Y-73660000D01*
X67754501Y-72262999D02*
X67754501Y-73532999D01*
X68897500Y-71120000D02*
X67754501Y-72262999D01*
X67627500Y-88900000D02*
X68897500Y-90170000D01*
X67627500Y-73660000D02*
X67627500Y-88900000D01*
X67754501Y-92582999D02*
X67627500Y-92710000D01*
X67754501Y-91312999D02*
X67754501Y-92582999D01*
X68897500Y-90170000D02*
X67754501Y-91312999D01*
X67627500Y-107950000D02*
X68897500Y-109220000D01*
X67627500Y-92710000D02*
X67627500Y-107950000D01*
X67754501Y-111632999D02*
X67627500Y-111760000D01*
X67754501Y-110362999D02*
X67754501Y-111632999D01*
X68897500Y-109220000D02*
X67754501Y-110362999D01*
X138648570Y-54905750D02*
X138648570Y-78978570D01*
X138648570Y-78978570D02*
X140950000Y-81280000D01*
X105720000Y-46950000D02*
X105720000Y-48175000D01*
X138648570Y-54905750D02*
X132922792Y-49179972D01*
X132922792Y-49179972D02*
X106549972Y-49179972D01*
X105720000Y-48350000D02*
X105720000Y-48175000D01*
X106549972Y-49179972D02*
X105720000Y-48350000D01*
X86677500Y-53340000D02*
X86677500Y-54610000D01*
X87947500Y-52070000D02*
X86677500Y-53340000D01*
X86677500Y-69850000D02*
X87947500Y-71120000D01*
X86677500Y-54610000D02*
X86677500Y-69850000D01*
X86677500Y-72390000D02*
X86677500Y-73660000D01*
X87947500Y-71120000D02*
X86677500Y-72390000D01*
X86677500Y-88900000D02*
X87947500Y-90170000D01*
X86677500Y-73660000D02*
X86677500Y-88900000D01*
X86804501Y-91312999D02*
X86804501Y-92582999D01*
X86804501Y-92582999D02*
X86677500Y-92710000D01*
X87947500Y-90170000D02*
X86804501Y-91312999D01*
X86677500Y-107950000D02*
X87947500Y-109220000D01*
X86677500Y-92710000D02*
X86677500Y-107950000D01*
X86804501Y-111632999D02*
X86677500Y-111760000D01*
X86804501Y-110362999D02*
X86804501Y-111632999D01*
X87947500Y-109220000D02*
X86804501Y-110362999D01*
X105400000Y-126672500D02*
X106997500Y-128270000D01*
X105400000Y-125400000D02*
X105400000Y-126672500D01*
X100010000Y-120010000D02*
X105400000Y-125400000D01*
X91630000Y-120010000D02*
X100010000Y-120010000D01*
X87080000Y-115460000D02*
X91630000Y-120010000D01*
X87080000Y-113778946D02*
X87080000Y-115460000D01*
X86677500Y-113376446D02*
X87080000Y-113778946D01*
X86677500Y-111760000D02*
X86677500Y-113376446D01*
X106073946Y-130810000D02*
X105727500Y-130810000D01*
X106997500Y-129886446D02*
X106073946Y-130810000D01*
X106997500Y-128270000D02*
X106997500Y-129886446D01*
X108220000Y-48175000D02*
X108220000Y-46950000D01*
X139098580Y-76888580D02*
X139098579Y-54719349D01*
X133109192Y-48729962D02*
X108774962Y-48729962D01*
X139098579Y-54719349D02*
X133109192Y-48729962D01*
X108774962Y-48729962D02*
X108220000Y-48175000D01*
X140950000Y-78740000D02*
X139098580Y-76888580D01*
X105727500Y-53340000D02*
X105727500Y-54610000D01*
X106997500Y-52070000D02*
X105727500Y-53340000D01*
X105727500Y-69850000D02*
X106997500Y-71120000D01*
X105727500Y-54610000D02*
X105727500Y-69850000D01*
X105727500Y-72390000D02*
X105727500Y-73660000D01*
X106997500Y-71120000D02*
X105727500Y-72390000D01*
X105727500Y-88900000D02*
X106997500Y-90170000D01*
X105727500Y-73660000D02*
X105727500Y-88900000D01*
X105727500Y-91440000D02*
X105727500Y-92710000D01*
X106997500Y-90170000D02*
X105727500Y-91440000D01*
X105727500Y-107950000D02*
X106997500Y-109220000D01*
X105727500Y-92710000D02*
X105727500Y-107950000D01*
X105854501Y-111632999D02*
X105727500Y-111760000D01*
X105854501Y-110362999D02*
X105854501Y-111632999D01*
X106997500Y-109220000D02*
X105854501Y-110362999D01*
X105727500Y-113376446D02*
X106750000Y-114398946D01*
X105727500Y-111760000D02*
X105727500Y-113376446D01*
X106750000Y-114398946D02*
X106750000Y-119490000D01*
X106750000Y-119490000D02*
X111450000Y-124190000D01*
X124431054Y-128270000D02*
X126047500Y-128270000D01*
X120351054Y-124190000D02*
X124431054Y-128270000D01*
X111450000Y-124190000D02*
X120351054Y-124190000D01*
X124904501Y-129412999D02*
X124904501Y-130682999D01*
X124904501Y-130682999D02*
X124777500Y-130810000D01*
X126047500Y-128270000D02*
X124904501Y-129412999D01*
X124777500Y-53340000D02*
X124777500Y-54610000D01*
X126047500Y-52070000D02*
X124777500Y-53340000D01*
X124777500Y-69850000D02*
X126047500Y-71120000D01*
X124777500Y-54610000D02*
X124777500Y-69850000D01*
X124904501Y-73532999D02*
X124777500Y-73660000D01*
X124904501Y-72262999D02*
X124904501Y-73532999D01*
X126047500Y-71120000D02*
X124904501Y-72262999D01*
X124777500Y-88900000D02*
X126047500Y-90170000D01*
X124777500Y-73660000D02*
X124777500Y-88900000D01*
X125123946Y-92710000D02*
X124777500Y-92710000D01*
X126047500Y-91786446D02*
X125123946Y-92710000D01*
X126047500Y-90170000D02*
X126047500Y-91786446D01*
X124777500Y-107950000D02*
X126047500Y-109220000D01*
X124777500Y-92710000D02*
X124777500Y-107950000D01*
X124777500Y-110490000D02*
X124777500Y-111760000D01*
X126047500Y-109220000D02*
X124777500Y-110490000D01*
X125920499Y-112902999D02*
X125920499Y-116880499D01*
X124777500Y-111760000D02*
X125920499Y-112902999D01*
X125920499Y-116880499D02*
X129800000Y-120760000D01*
X129800000Y-120760000D02*
X132130000Y-120760000D01*
X132130000Y-120760000D02*
X136270000Y-124900000D01*
X141727500Y-124900000D02*
X145097500Y-128270000D01*
X136270000Y-124900000D02*
X141727500Y-124900000D01*
X143954501Y-130682999D02*
X143827500Y-130810000D01*
X143954501Y-129412999D02*
X143954501Y-130682999D01*
X145097500Y-128270000D02*
X143954501Y-129412999D01*
X120402800Y-44449980D02*
X113858610Y-44449980D01*
X113108590Y-45200000D02*
X97345000Y-45200000D01*
X141480027Y-53918749D02*
X134041194Y-46479916D01*
X156190000Y-63500000D02*
X145579230Y-63500000D01*
X141900000Y-60740000D02*
X141480028Y-60320028D01*
X95720000Y-46825000D02*
X95720000Y-46950000D01*
X134041194Y-46479916D02*
X122432736Y-46479916D01*
X97345000Y-45200000D02*
X95720000Y-46825000D01*
X142819230Y-60740000D02*
X141900000Y-60740000D01*
X145579230Y-63500000D02*
X142819230Y-60740000D01*
X141480028Y-60320028D02*
X141480027Y-53918749D01*
X113858610Y-44449980D02*
X113108590Y-45200000D01*
X122432736Y-46479916D02*
X120402800Y-44449980D01*
X115720000Y-45725000D02*
X115720000Y-46950000D01*
X122059934Y-47379934D02*
X120030000Y-45350000D01*
X116095000Y-45350000D02*
X115720000Y-45725000D01*
X154988699Y-80078699D02*
X154988699Y-70318699D01*
X133668392Y-47379934D02*
X122059934Y-47379934D01*
X142476400Y-61669990D02*
X141299990Y-61669990D01*
X153669990Y-68999990D02*
X149806400Y-68999990D01*
X140580009Y-54291549D02*
X133668392Y-47379934D01*
X154988699Y-70318699D02*
X153669990Y-68999990D01*
X120030000Y-45350000D02*
X116095000Y-45350000D01*
X140580010Y-60950010D02*
X140580009Y-54291549D01*
X149806400Y-68999990D02*
X142476400Y-61669990D01*
X141299990Y-61669990D02*
X140580010Y-60950010D01*
X156190000Y-81280000D02*
X154988699Y-80078699D01*
X154538689Y-82168689D02*
X156190000Y-83820000D01*
X154538689Y-70505099D02*
X154538689Y-82168689D01*
X149620000Y-69450000D02*
X153483590Y-69450000D01*
X120689942Y-47829942D02*
X133481993Y-47829943D01*
X140130000Y-61150000D02*
X141100000Y-62120000D01*
X153483590Y-69450000D02*
X154538689Y-70505099D01*
X142290000Y-62120000D02*
X149620000Y-69450000D01*
X141100000Y-62120000D02*
X142290000Y-62120000D01*
X119810000Y-46950000D02*
X120689942Y-47829942D01*
X140130000Y-54477950D02*
X140130000Y-61150000D01*
X133481993Y-47829943D02*
X140130000Y-54477950D01*
X118220000Y-46950000D02*
X119810000Y-46950000D01*
X116790000Y-28900000D02*
X117880000Y-28900000D01*
X110283600Y-38629990D02*
X113149990Y-35763600D01*
X113149990Y-32540010D02*
X116790000Y-28900000D01*
X93287190Y-38629990D02*
X110283600Y-38629990D01*
X89030000Y-40820000D02*
X91097180Y-40820000D01*
X113149990Y-35763600D02*
X113149990Y-32540010D01*
X91097180Y-40820000D02*
X93287190Y-38629990D01*
X117880000Y-32800000D02*
X117880000Y-33800000D01*
X113919999Y-32724999D02*
X117804999Y-32724999D01*
X113600000Y-35950000D02*
X113600000Y-33044998D01*
X110470000Y-39080000D02*
X113600000Y-35950000D01*
X89553581Y-43000009D02*
X93473590Y-39080000D01*
X117804999Y-32724999D02*
X117880000Y-32800000D01*
X88240009Y-43000009D02*
X89553581Y-43000009D01*
X113600000Y-33044998D02*
X113919999Y-32724999D01*
X86530000Y-41290000D02*
X88240009Y-43000009D01*
X93473590Y-39080000D02*
X110470000Y-39080000D01*
X73790000Y-36370000D02*
X72740000Y-36370000D01*
X74030000Y-36610000D02*
X73790000Y-36370000D01*
X74030000Y-40820000D02*
X74030000Y-36610000D01*
X72740000Y-34970000D02*
X72740000Y-36370000D01*
X54950000Y-34970000D02*
X54240000Y-35680000D01*
X91880000Y-34970000D02*
X92050000Y-35140000D01*
X92050000Y-35140000D02*
X92050000Y-36540000D01*
X109840000Y-35140000D02*
X110080000Y-34900000D01*
X54930000Y-36370000D02*
X54240000Y-35680000D01*
X72740000Y-36370000D02*
X54930000Y-36370000D01*
X74100000Y-36540000D02*
X92050000Y-36540000D01*
X74030000Y-36610000D02*
X74100000Y-36540000D01*
X110080000Y-35950000D02*
X110080000Y-34900000D01*
X109490000Y-36540000D02*
X110080000Y-35950000D01*
X92050000Y-36540000D02*
X109490000Y-36540000D01*
X70620000Y-42250000D02*
X70240000Y-42630000D01*
X70240000Y-42630000D02*
X65630000Y-42630000D01*
X65630000Y-42630000D02*
X63540000Y-40540000D01*
X63540000Y-39340000D02*
X62170010Y-37970010D01*
X63540000Y-40540000D02*
X63540000Y-39340000D01*
X49413599Y-37970009D02*
X45473590Y-34030000D01*
X62170010Y-37970010D02*
X49413599Y-37970009D01*
X45473590Y-34030000D02*
X39180000Y-34030000D01*
X39180000Y-34030000D02*
X37810000Y-35400000D01*
X37810000Y-35400000D02*
X36020000Y-35400000D01*
X35392499Y-34772499D02*
X35222499Y-34772499D01*
X36020000Y-35400000D02*
X35392499Y-34772499D01*
X35222499Y-34772499D02*
X34860000Y-34410000D01*
X34860000Y-32870000D02*
X36717500Y-31012500D01*
X34860000Y-34410000D02*
X34860000Y-32870000D01*
X71530000Y-40820000D02*
X71530000Y-42045000D01*
X71325000Y-42250000D02*
X71530000Y-42045000D01*
X70620000Y-42250000D02*
X71325000Y-42250000D01*
X72035000Y-42550000D02*
X71530000Y-42045000D01*
X72935019Y-43450019D02*
X72035000Y-42550000D01*
X89739981Y-43450019D02*
X72935019Y-43450019D01*
X93640000Y-39550000D02*
X89739981Y-43450019D01*
X114680000Y-35690000D02*
X110820000Y-39550000D01*
X110820000Y-39550000D02*
X93640000Y-39550000D01*
X114680000Y-33800000D02*
X114680000Y-35690000D01*
X37967500Y-28512500D02*
X42385000Y-32930000D01*
X36717500Y-28512500D02*
X37967500Y-28512500D01*
X42385000Y-32930000D02*
X45646410Y-32930000D01*
X49786400Y-37069990D02*
X66504990Y-37069990D01*
X66504990Y-37069990D02*
X69030000Y-39595000D01*
X45646410Y-32930000D02*
X49786400Y-37069990D01*
X69030000Y-39595000D02*
X69030000Y-40820000D01*
X66530000Y-39845000D02*
X64205000Y-37520000D01*
X64205000Y-37520000D02*
X49600000Y-37520000D01*
X45592500Y-33512500D02*
X36717500Y-33512500D01*
X49600000Y-37520000D02*
X45592500Y-33512500D01*
X139180000Y-87130000D02*
X140950000Y-88900000D01*
X100575000Y-50530000D02*
X132350000Y-50530000D01*
X136825001Y-55015001D02*
X137289980Y-55479980D01*
X139180000Y-85226410D02*
X139180000Y-87130000D01*
X98220000Y-48175000D02*
X100575000Y-50530000D01*
X137289981Y-81432801D02*
X139131785Y-83274605D01*
X137289980Y-55479980D02*
X137289981Y-81432801D01*
X136825001Y-55005001D02*
X136825001Y-55015001D01*
X139131785Y-85178195D02*
X139180000Y-85226410D01*
X98220000Y-46950000D02*
X98220000Y-48175000D01*
X139131785Y-83274605D02*
X139131785Y-85178195D01*
X132350000Y-50530000D02*
X136825001Y-55005001D01*
M02*
