M48
INCH
T1C0.0350
T2C0.0374
T3C0.0394
T4C0.0430
T5C0.0590
T6C0.0591
T7C0.0906
%
G90
G05
T1
X5.5512Y-3.9128
X5.5512Y-4.0128
X5.5512Y-4.1128
X5.6512Y-3.9628
X5.6512Y-4.0628
X5.6512Y-4.1628
X5.5512Y-4.2126
X5.5512Y-4.3126
X5.5512Y-4.4126
X5.6512Y-4.1626
X5.6512Y-4.2626
X5.6512Y-4.3626
T2
X2.6193Y-1.6071
X2.7177Y-1.6071
X2.8161Y-1.6071
X2.9146Y-1.6071
X3.013Y-1.6071
X3.1114Y-1.6071
X3.2098Y-1.6071
X3.3083Y-1.6071
X3.4067Y-1.6071
X3.5051Y-1.6071
X3.7685Y-1.8484
X3.8669Y-1.8484
X3.9654Y-1.8484
X4.0638Y-1.8484
X4.1622Y-1.8484
X4.2606Y-1.8484
X4.3591Y-1.8484
X4.4575Y-1.8484
X4.5559Y-1.8484
X4.6543Y-1.8484
T3
X2.1354Y-1.0976
X2.1354Y-1.4047
X2.4354Y-2.7705
X2.4354Y-3.0776
X1.6902Y-3.5256
X1.6902Y-3.8327
X4.6906Y-2.8513
X4.6906Y-3.1584
X1.6835Y-4.3256
X1.6835Y-4.6327
X3.9417Y-4.3144
X3.9417Y-4.6215
X2.4339Y-4.2787
X2.4339Y-4.5858
X4.3339Y-1.0669
X4.3339Y-1.374
X1.6886Y-2.1083
X1.6886Y-2.4154
X1.6807Y-2.8059
X1.6807Y-3.113
X5.4366Y-4.8425
X5.7437Y-4.8425
X3.1886Y-2.0784
X3.1886Y-2.3855
X1.4456Y-1.1225
X1.4456Y-1.221
X1.4456Y-1.3194
X2.0164Y-1.1225
X2.0164Y-1.3194
X4.687Y-4.3292
X4.687Y-4.6363
X3.624Y-1.1315
X3.624Y-1.4386
X3.1854Y-3.5662
X3.1854Y-3.8733
X5.0386Y-3.3654
X5.3457Y-3.3654
X2.8638Y-1.1248
X2.8638Y-1.4319
X4.8933Y-4.8626
X5.2004Y-4.8626
X3.935Y-2.0988
X3.935Y-2.4059
X3.1823Y-2.8048
X3.1823Y-3.1119
X5.0354Y-2.6185
X5.3425Y-2.6185
X3.9346Y-3.625
X3.9346Y-3.9321
X2.4417Y-2.061
X2.4417Y-2.3681
X4.6839Y-5.0052
X4.6839Y-5.3123
X5.0276Y-4.1213
X5.3346Y-4.1213
X4.6976Y-2.1055
X4.6976Y-2.4126
X3.935Y-2.8691
X3.935Y-3.1762
X3.1811Y-4.2765
X3.1811Y-4.5836
X2.4421Y-3.5209
X2.4421Y-3.828
X4.6827Y-3.6048
X4.6827Y-3.9119
X5.439Y-4.9835
X5.439Y-5.2906
T4
X5.5492Y-2.5
X5.5492Y-2.6
X5.5492Y-2.7
X5.5492Y-2.8
X5.5492Y-2.9
X5.5492Y-3.0
X5.5492Y-3.1
X5.5492Y-3.2
X5.5492Y-3.3
X5.5492Y-3.4
X5.5492Y-3.5
X5.5492Y-3.6
X6.1492Y-2.5
X6.1492Y-2.6
X6.1492Y-2.7
X6.1492Y-2.8
X6.1492Y-2.9
X6.1492Y-3.0
X6.1492Y-3.1
X6.1492Y-3.2
X6.1492Y-3.3
X6.1492Y-3.4
X6.1492Y-3.5
X6.1492Y-3.6
T5
X4.9125Y-4.4
X4.9625Y-4.3
X5.1625Y-4.3
X5.2125Y-4.4
X2.6625Y-2.9
X2.7125Y-2.8
X2.9125Y-2.8
X2.9625Y-2.9
X4.1625Y-4.4
X4.2125Y-4.3
X4.4125Y-4.3
X4.4625Y-4.4
X1.9125Y-2.15
X1.9625Y-2.05
X2.1625Y-2.05
X2.2125Y-2.15
X5.6625Y-5.15
X5.7125Y-5.05
X5.9125Y-5.05
X5.9625Y-5.15
X2.3466Y-1.121
X2.3966Y-1.021
X2.5966Y-1.021
X2.6466Y-1.121
X2.6625Y-3.65
X2.7125Y-3.55
X2.9125Y-3.55
X2.9625Y-3.65
X3.4125Y-2.9
X3.4625Y-2.8
X3.6625Y-2.8
X3.7125Y-2.9
X1.9125Y-4.4
X1.9625Y-4.3
X2.1625Y-4.3
X2.2125Y-4.4
X2.6625Y-2.15
X2.7125Y-2.05
X2.9125Y-2.05
X2.9625Y-2.15
X1.1625Y-2.15
X1.2125Y-2.05
X1.4125Y-2.05
X1.4625Y-2.15
X4.9125Y-2.9
X4.9625Y-2.8
X5.1625Y-2.8
X5.2125Y-2.9
X4.1625Y-2.9
X4.2125Y-2.8
X4.4125Y-2.8
X4.4625Y-2.9
X3.0966Y-1.121
X3.1466Y-1.021
X3.3466Y-1.021
X3.3966Y-1.121
X4.1625Y-3.65
X4.2125Y-3.55
X4.4125Y-3.55
X4.4625Y-3.65
X2.6625Y-4.4
X2.7125Y-4.3
X2.9125Y-4.3
X2.9625Y-4.4
X3.4125Y-3.65
X3.4625Y-3.55
X3.6625Y-3.55
X3.7125Y-3.65
X1.9125Y-2.9
X1.9625Y-2.8
X2.1625Y-2.8
X2.2125Y-2.9
X3.4125Y-4.4
X3.4625Y-4.3
X3.6625Y-4.3
X3.7125Y-4.4
X4.9125Y-3.65
X4.9625Y-3.55
X5.1625Y-3.55
X5.2125Y-3.65
X1.925Y-3.65
X1.975Y-3.55
X2.175Y-3.55
X2.225Y-3.65
X3.8466Y-1.121
X3.8966Y-1.021
X4.0966Y-1.021
X4.1466Y-1.121
X4.1625Y-2.15
X4.2125Y-2.05
X4.4125Y-2.05
X4.4625Y-2.15
X4.1625Y-5.15
X4.2125Y-5.05
X4.4125Y-5.05
X4.4625Y-5.15
X3.4125Y-2.15
X3.4625Y-2.05
X3.6625Y-2.05
X3.7125Y-2.15
X4.9125Y-5.15
X4.9625Y-5.05
X5.1625Y-5.05
X5.2125Y-5.15
X1.1625Y-4.4
X1.2125Y-4.3
X1.4125Y-4.3
X1.4625Y-4.4
X1.1625Y-2.9
X1.2125Y-2.8
X1.4125Y-2.8
X1.4625Y-2.9
X1.1625Y-3.65
X1.2125Y-3.55
X1.4125Y-3.55
X1.4625Y-3.65
X4.9125Y-2.15
X4.9625Y-2.05
X5.1625Y-2.05
X5.2125Y-2.15
T7
X1.6827Y-4.1331
X1.6878Y-2.6276
X3.9394Y-2.7205
X4.687Y-4.1752
T6
G00X1.7153Y-1.0005
M15
G01X1.7664Y-1.0005
M16
G05
G00X1.7153Y-1.4414
M15
G01X1.7664Y-1.4414
M16
G05
T0
M30
