G04 #@! TF.GenerationSoftware,KiCad,Pcbnew,(5.1.5-0-10_14)*
G04 #@! TF.CreationDate,2021-05-07T17:03:44+03:00*
G04 #@! TF.ProjectId,Sotka,536f746b-612e-46b6-9963-61645f706362,rev?*
G04 #@! TF.SameCoordinates,Original*
G04 #@! TF.FileFunction,Legend,Bot*
G04 #@! TF.FilePolarity,Positive*
%FSLAX46Y46*%
G04 Gerber Fmt 4.6, Leading zero omitted, Abs format (unit mm)*
G04 Created by KiCad (PCBNEW (5.1.5-0-10_14)) date 2021-05-07 17:03:44*
%MOMM*%
%LPD*%
G04 APERTURE LIST*
%ADD10C,0.250000*%
%ADD11C,0.150000*%
%ADD12C,0.381000*%
%ADD13C,0.177800*%
%ADD14C,0.152400*%
G04 APERTURE END LIST*
D10*
X39213110Y-117534761D02*
X39076205Y-117582380D01*
X38838110Y-117582380D01*
X38736919Y-117534761D01*
X38683348Y-117487142D01*
X38623824Y-117391904D01*
X38611919Y-117296666D01*
X38647633Y-117201428D01*
X38689300Y-117153809D01*
X38778586Y-117106190D01*
X38963110Y-117058571D01*
X39052395Y-117010952D01*
X39094062Y-116963333D01*
X39129776Y-116868095D01*
X39117872Y-116772857D01*
X39058348Y-116677619D01*
X39004776Y-116630000D01*
X38903586Y-116582380D01*
X38665491Y-116582380D01*
X38528586Y-116630000D01*
X38076205Y-117582380D02*
X38165491Y-117534761D01*
X38207157Y-117487142D01*
X38242872Y-117391904D01*
X38207157Y-117106190D01*
X38147633Y-117010952D01*
X38094062Y-116963333D01*
X37992872Y-116915714D01*
X37850014Y-116915714D01*
X37760729Y-116963333D01*
X37719062Y-117010952D01*
X37683348Y-117106190D01*
X37719062Y-117391904D01*
X37778586Y-117487142D01*
X37832157Y-117534761D01*
X37933348Y-117582380D01*
X38076205Y-117582380D01*
X37373824Y-116915714D02*
X36992872Y-116915714D01*
X37189300Y-116582380D02*
X37296443Y-117439523D01*
X37260729Y-117534761D01*
X37171443Y-117582380D01*
X37076205Y-117582380D01*
X36742872Y-117582380D02*
X36617872Y-116582380D01*
X36600014Y-117201428D02*
X36361919Y-117582380D01*
X36278586Y-116915714D02*
X36707157Y-117296666D01*
X35504776Y-117582380D02*
X35439300Y-117058571D01*
X35475014Y-116963333D01*
X35564300Y-116915714D01*
X35754776Y-116915714D01*
X35855967Y-116963333D01*
X35498824Y-117534761D02*
X35600014Y-117582380D01*
X35838110Y-117582380D01*
X35927395Y-117534761D01*
X35963110Y-117439523D01*
X35951205Y-117344285D01*
X35891681Y-117249047D01*
X35790491Y-117201428D01*
X35552395Y-117201428D01*
X35451205Y-117153809D01*
X39409538Y-119332380D02*
X39683348Y-118856190D01*
X39980967Y-119332380D02*
X39855967Y-118332380D01*
X39475014Y-118332380D01*
X39385729Y-118380000D01*
X39344062Y-118427619D01*
X39308348Y-118522857D01*
X39326205Y-118665714D01*
X39385729Y-118760952D01*
X39439300Y-118808571D01*
X39540491Y-118856190D01*
X39921443Y-118856190D01*
X38594062Y-119284761D02*
X38695252Y-119332380D01*
X38885729Y-119332380D01*
X38975014Y-119284761D01*
X39010729Y-119189523D01*
X38963110Y-118808571D01*
X38903586Y-118713333D01*
X38802395Y-118665714D01*
X38611919Y-118665714D01*
X38522633Y-118713333D01*
X38486919Y-118808571D01*
X38498824Y-118903809D01*
X38986919Y-118999047D01*
X38135729Y-118665714D02*
X37980967Y-119332380D01*
X37659538Y-118665714D01*
X36284538Y-118332380D02*
X36189300Y-118332380D01*
X36100014Y-118380000D01*
X36058348Y-118427619D01*
X36022633Y-118522857D01*
X35998824Y-118713333D01*
X36028586Y-118951428D01*
X36100014Y-119141904D01*
X36159538Y-119237142D01*
X36213110Y-119284761D01*
X36314300Y-119332380D01*
X36409538Y-119332380D01*
X36498824Y-119284761D01*
X36540491Y-119237142D01*
X36576205Y-119141904D01*
X36600014Y-118951428D01*
X36570252Y-118713333D01*
X36498824Y-118522857D01*
X36439300Y-118427619D01*
X36385729Y-118380000D01*
X36284538Y-118332380D01*
X35635729Y-119237142D02*
X35594062Y-119284761D01*
X35647633Y-119332380D01*
X35689300Y-119284761D01*
X35635729Y-119237142D01*
X35647633Y-119332380D01*
X35123824Y-119332380D02*
X34933348Y-119332380D01*
X34832157Y-119284761D01*
X34778586Y-119237142D01*
X34665491Y-119094285D01*
X34594062Y-118903809D01*
X34546443Y-118522857D01*
X34582157Y-118427619D01*
X34623824Y-118380000D01*
X34713110Y-118332380D01*
X34903586Y-118332380D01*
X35004776Y-118380000D01*
X35058348Y-118427619D01*
X35117872Y-118522857D01*
X35147633Y-118760952D01*
X35111919Y-118856190D01*
X35070252Y-118903809D01*
X34980967Y-118951428D01*
X34790491Y-118951428D01*
X34689300Y-118903809D01*
X34635729Y-118856190D01*
X34576205Y-118760952D01*
X42111919Y-120415714D02*
X42236919Y-121415714D01*
X42117872Y-120463333D02*
X42016681Y-120415714D01*
X41826205Y-120415714D01*
X41736919Y-120463333D01*
X41695252Y-120510952D01*
X41659538Y-120606190D01*
X41695252Y-120891904D01*
X41754776Y-120987142D01*
X41808348Y-121034761D01*
X41909538Y-121082380D01*
X42100014Y-121082380D01*
X42189300Y-121034761D01*
X41147633Y-121082380D02*
X41236919Y-121034761D01*
X41278586Y-120987142D01*
X41314300Y-120891904D01*
X41278586Y-120606190D01*
X41219062Y-120510952D01*
X41165491Y-120463333D01*
X41064300Y-120415714D01*
X40921443Y-120415714D01*
X40832157Y-120463333D01*
X40790491Y-120510952D01*
X40754776Y-120606190D01*
X40790491Y-120891904D01*
X40850014Y-120987142D01*
X40903586Y-121034761D01*
X41004776Y-121082380D01*
X41147633Y-121082380D01*
X40385729Y-121082380D02*
X40260729Y-120082380D01*
X39957157Y-121082380D02*
X39891681Y-120558571D01*
X39927395Y-120463333D01*
X40016681Y-120415714D01*
X40159538Y-120415714D01*
X40260729Y-120463333D01*
X40314300Y-120510952D01*
X39397633Y-120415714D02*
X39504776Y-121272857D01*
X39564300Y-121368095D01*
X39665491Y-121415714D01*
X39713110Y-121415714D01*
X39355967Y-120082380D02*
X39409538Y-120130000D01*
X39367872Y-120177619D01*
X39314300Y-120130000D01*
X39355967Y-120082380D01*
X39367872Y-120177619D01*
X38861919Y-121082380D02*
X38951205Y-121034761D01*
X38992872Y-120987142D01*
X39028586Y-120891904D01*
X38992872Y-120606190D01*
X38933348Y-120510952D01*
X38879776Y-120463333D01*
X38778586Y-120415714D01*
X38635729Y-120415714D01*
X38546443Y-120463333D01*
X38504776Y-120510952D01*
X38469062Y-120606190D01*
X38504776Y-120891904D01*
X38564300Y-120987142D01*
X38617872Y-121034761D01*
X38719062Y-121082380D01*
X38861919Y-121082380D01*
X37957157Y-121082380D02*
X38046443Y-121034761D01*
X38082157Y-120939523D01*
X37975014Y-120082380D01*
X37147633Y-121082380D02*
X37082157Y-120558571D01*
X37117872Y-120463333D01*
X37207157Y-120415714D01*
X37397633Y-120415714D01*
X37498824Y-120463333D01*
X37141681Y-121034761D02*
X37242872Y-121082380D01*
X37480967Y-121082380D01*
X37570252Y-121034761D01*
X37605967Y-120939523D01*
X37594062Y-120844285D01*
X37534538Y-120749047D01*
X37433348Y-120701428D01*
X37195252Y-120701428D01*
X37094062Y-120653809D01*
X36659538Y-120987142D02*
X36617872Y-121034761D01*
X36671443Y-121082380D01*
X36713110Y-121034761D01*
X36659538Y-120987142D01*
X36671443Y-121082380D01*
X36207157Y-120415714D02*
X36100014Y-121082380D01*
X35850014Y-120606190D01*
X35719062Y-121082380D01*
X35445252Y-120415714D01*
X35004776Y-121082380D02*
X35094062Y-121034761D01*
X35135729Y-120987142D01*
X35171443Y-120891904D01*
X35135729Y-120606190D01*
X35076205Y-120510952D01*
X35022633Y-120463333D01*
X34921443Y-120415714D01*
X34778586Y-120415714D01*
X34689300Y-120463333D01*
X34647633Y-120510952D01*
X34611919Y-120606190D01*
X34647633Y-120891904D01*
X34707157Y-120987142D01*
X34760729Y-121034761D01*
X34861919Y-121082380D01*
X35004776Y-121082380D01*
X34242872Y-121082380D02*
X34159538Y-120415714D01*
X34183348Y-120606190D02*
X34123824Y-120510952D01*
X34070252Y-120463333D01*
X33969062Y-120415714D01*
X33873824Y-120415714D01*
X33623824Y-121082380D02*
X33498824Y-120082380D01*
X33480967Y-120701428D02*
X33242872Y-121082380D01*
X33159538Y-120415714D02*
X33588110Y-120796666D01*
X32855967Y-121034761D02*
X32766681Y-121082380D01*
X32576205Y-121082380D01*
X32475014Y-121034761D01*
X32415491Y-120939523D01*
X32409538Y-120891904D01*
X32445252Y-120796666D01*
X32534538Y-120749047D01*
X32677395Y-120749047D01*
X32766681Y-120701428D01*
X32802395Y-120606190D01*
X32796443Y-120558571D01*
X32736919Y-120463333D01*
X32635729Y-120415714D01*
X32492872Y-120415714D01*
X32403586Y-120463333D01*
D11*
X26337500Y-107300000D02*
X27337500Y-107300000D01*
X39337500Y-107300000D02*
X40337500Y-107300000D01*
X40337500Y-107300000D02*
X40337500Y-108300000D01*
X40337500Y-121300000D02*
X39337500Y-121300000D01*
X40337500Y-120300000D02*
X40337500Y-121300000D01*
X27337500Y-121300000D02*
X26337500Y-121300000D01*
X26337500Y-121300000D02*
X26337500Y-120300000D01*
X26337500Y-108300000D02*
X26337500Y-107300000D01*
X26337500Y-69200000D02*
X27337500Y-69200000D01*
X39337500Y-69200000D02*
X40337500Y-69200000D01*
X40337500Y-69200000D02*
X40337500Y-70200000D01*
X40337500Y-83200000D02*
X39337500Y-83200000D01*
X40337500Y-82200000D02*
X40337500Y-83200000D01*
X27337500Y-83200000D02*
X26337500Y-83200000D01*
X26337500Y-83200000D02*
X26337500Y-82200000D01*
X26337500Y-70200000D02*
X26337500Y-69200000D01*
X26337500Y-88250000D02*
X27337500Y-88250000D01*
X39337500Y-88250000D02*
X40337500Y-88250000D01*
X40337500Y-88250000D02*
X40337500Y-89250000D01*
X40337500Y-102250000D02*
X39337500Y-102250000D01*
X40337500Y-101250000D02*
X40337500Y-102250000D01*
X27337500Y-102250000D02*
X26337500Y-102250000D01*
X26337500Y-102250000D02*
X26337500Y-101250000D01*
X26337500Y-89250000D02*
X26337500Y-88250000D01*
X45387500Y-107300000D02*
X46387500Y-107300000D01*
X58387500Y-107300000D02*
X59387500Y-107300000D01*
X59387500Y-107300000D02*
X59387500Y-108300000D01*
X59387500Y-121300000D02*
X58387500Y-121300000D01*
X59387500Y-120300000D02*
X59387500Y-121300000D01*
X46387500Y-121300000D02*
X45387500Y-121300000D01*
X45387500Y-121300000D02*
X45387500Y-120300000D01*
X45387500Y-108300000D02*
X45387500Y-107300000D01*
X45387500Y-69200000D02*
X46387500Y-69200000D01*
X58387500Y-69200000D02*
X59387500Y-69200000D01*
X59387500Y-69200000D02*
X59387500Y-70200000D01*
X59387500Y-83200000D02*
X58387500Y-83200000D01*
X59387500Y-82200000D02*
X59387500Y-83200000D01*
X46387500Y-83200000D02*
X45387500Y-83200000D01*
X45387500Y-83200000D02*
X45387500Y-82200000D01*
X45387500Y-70200000D02*
X45387500Y-69200000D01*
X45705000Y-88250000D02*
X46705000Y-88250000D01*
X58705000Y-88250000D02*
X59705000Y-88250000D01*
X59705000Y-88250000D02*
X59705000Y-89250000D01*
X59705000Y-102250000D02*
X58705000Y-102250000D01*
X59705000Y-101250000D02*
X59705000Y-102250000D01*
X46705000Y-102250000D02*
X45705000Y-102250000D01*
X45705000Y-102250000D02*
X45705000Y-101250000D01*
X45705000Y-89250000D02*
X45705000Y-88250000D01*
X45387500Y-50150000D02*
X46387500Y-50150000D01*
X58387500Y-50150000D02*
X59387500Y-50150000D01*
X59387500Y-50150000D02*
X59387500Y-51150000D01*
X59387500Y-64150000D02*
X58387500Y-64150000D01*
X59387500Y-63150000D02*
X59387500Y-64150000D01*
X46387500Y-64150000D02*
X45387500Y-64150000D01*
X45387500Y-64150000D02*
X45387500Y-63150000D01*
X45387500Y-51150000D02*
X45387500Y-50150000D01*
X64437500Y-107300000D02*
X65437500Y-107300000D01*
X77437500Y-107300000D02*
X78437500Y-107300000D01*
X78437500Y-107300000D02*
X78437500Y-108300000D01*
X78437500Y-121300000D02*
X77437500Y-121300000D01*
X78437500Y-120300000D02*
X78437500Y-121300000D01*
X65437500Y-121300000D02*
X64437500Y-121300000D01*
X64437500Y-121300000D02*
X64437500Y-120300000D01*
X64437500Y-108300000D02*
X64437500Y-107300000D01*
X102537500Y-126350000D02*
X103537500Y-126350000D01*
X115537500Y-126350000D02*
X116537500Y-126350000D01*
X116537500Y-126350000D02*
X116537500Y-127350000D01*
X116537500Y-140350000D02*
X115537500Y-140350000D01*
X116537500Y-139350000D02*
X116537500Y-140350000D01*
X103537500Y-140350000D02*
X102537500Y-140350000D01*
X102537500Y-140350000D02*
X102537500Y-139350000D01*
X102537500Y-127350000D02*
X102537500Y-126350000D01*
X64437500Y-69200000D02*
X65437500Y-69200000D01*
X77437500Y-69200000D02*
X78437500Y-69200000D01*
X78437500Y-69200000D02*
X78437500Y-70200000D01*
X78437500Y-83200000D02*
X77437500Y-83200000D01*
X78437500Y-82200000D02*
X78437500Y-83200000D01*
X65437500Y-83200000D02*
X64437500Y-83200000D01*
X64437500Y-83200000D02*
X64437500Y-82200000D01*
X64437500Y-70200000D02*
X64437500Y-69200000D01*
X64437500Y-88250000D02*
X65437500Y-88250000D01*
X77437500Y-88250000D02*
X78437500Y-88250000D01*
X78437500Y-88250000D02*
X78437500Y-89250000D01*
X78437500Y-102250000D02*
X77437500Y-102250000D01*
X78437500Y-101250000D02*
X78437500Y-102250000D01*
X65437500Y-102250000D02*
X64437500Y-102250000D01*
X64437500Y-102250000D02*
X64437500Y-101250000D01*
X64437500Y-89250000D02*
X64437500Y-88250000D01*
X64437500Y-50150000D02*
X65437500Y-50150000D01*
X77437500Y-50150000D02*
X78437500Y-50150000D01*
X78437500Y-50150000D02*
X78437500Y-51150000D01*
X78437500Y-64150000D02*
X77437500Y-64150000D01*
X78437500Y-63150000D02*
X78437500Y-64150000D01*
X65437500Y-64150000D02*
X64437500Y-64150000D01*
X64437500Y-64150000D02*
X64437500Y-63150000D01*
X64437500Y-51150000D02*
X64437500Y-50150000D01*
X83487500Y-107300000D02*
X84487500Y-107300000D01*
X96487500Y-107300000D02*
X97487500Y-107300000D01*
X97487500Y-107300000D02*
X97487500Y-108300000D01*
X97487500Y-121300000D02*
X96487500Y-121300000D01*
X97487500Y-120300000D02*
X97487500Y-121300000D01*
X84487500Y-121300000D02*
X83487500Y-121300000D01*
X83487500Y-121300000D02*
X83487500Y-120300000D01*
X83487500Y-108300000D02*
X83487500Y-107300000D01*
X121587500Y-126350000D02*
X122587500Y-126350000D01*
X134587500Y-126350000D02*
X135587500Y-126350000D01*
X135587500Y-126350000D02*
X135587500Y-127350000D01*
X135587500Y-140350000D02*
X134587500Y-140350000D01*
X135587500Y-139350000D02*
X135587500Y-140350000D01*
X122587500Y-140350000D02*
X121587500Y-140350000D01*
X121587500Y-140350000D02*
X121587500Y-139350000D01*
X121587500Y-127350000D02*
X121587500Y-126350000D01*
X83487500Y-69200000D02*
X84487500Y-69200000D01*
X96487500Y-69200000D02*
X97487500Y-69200000D01*
X97487500Y-69200000D02*
X97487500Y-70200000D01*
X97487500Y-83200000D02*
X96487500Y-83200000D01*
X97487500Y-82200000D02*
X97487500Y-83200000D01*
X84487500Y-83200000D02*
X83487500Y-83200000D01*
X83487500Y-83200000D02*
X83487500Y-82200000D01*
X83487500Y-70200000D02*
X83487500Y-69200000D01*
X83487500Y-88250000D02*
X84487500Y-88250000D01*
X96487500Y-88250000D02*
X97487500Y-88250000D01*
X97487500Y-88250000D02*
X97487500Y-89250000D01*
X97487500Y-102250000D02*
X96487500Y-102250000D01*
X97487500Y-101250000D02*
X97487500Y-102250000D01*
X84487500Y-102250000D02*
X83487500Y-102250000D01*
X83487500Y-102250000D02*
X83487500Y-101250000D01*
X83487500Y-89250000D02*
X83487500Y-88250000D01*
X83487500Y-50150000D02*
X84487500Y-50150000D01*
X96487500Y-50150000D02*
X97487500Y-50150000D01*
X97487500Y-50150000D02*
X97487500Y-51150000D01*
X97487500Y-64150000D02*
X96487500Y-64150000D01*
X97487500Y-63150000D02*
X97487500Y-64150000D01*
X84487500Y-64150000D02*
X83487500Y-64150000D01*
X83487500Y-64150000D02*
X83487500Y-63150000D01*
X83487500Y-51150000D02*
X83487500Y-50150000D01*
X102537500Y-107300000D02*
X103537500Y-107300000D01*
X115537500Y-107300000D02*
X116537500Y-107300000D01*
X116537500Y-107300000D02*
X116537500Y-108300000D01*
X116537500Y-121300000D02*
X115537500Y-121300000D01*
X116537500Y-120300000D02*
X116537500Y-121300000D01*
X103537500Y-121300000D02*
X102537500Y-121300000D01*
X102537500Y-121300000D02*
X102537500Y-120300000D01*
X102537500Y-108300000D02*
X102537500Y-107300000D01*
X140637500Y-126350000D02*
X141637500Y-126350000D01*
X153637500Y-126350000D02*
X154637500Y-126350000D01*
X154637500Y-126350000D02*
X154637500Y-127350000D01*
X154637500Y-140350000D02*
X153637500Y-140350000D01*
X154637500Y-139350000D02*
X154637500Y-140350000D01*
X141637500Y-140350000D02*
X140637500Y-140350000D01*
X140637500Y-140350000D02*
X140637500Y-139350000D01*
X140637500Y-127350000D02*
X140637500Y-126350000D01*
X102537500Y-69200000D02*
X103537500Y-69200000D01*
X115537500Y-69200000D02*
X116537500Y-69200000D01*
X116537500Y-69200000D02*
X116537500Y-70200000D01*
X116537500Y-83200000D02*
X115537500Y-83200000D01*
X116537500Y-82200000D02*
X116537500Y-83200000D01*
X103537500Y-83200000D02*
X102537500Y-83200000D01*
X102537500Y-83200000D02*
X102537500Y-82200000D01*
X102537500Y-70200000D02*
X102537500Y-69200000D01*
X102537500Y-88250000D02*
X103537500Y-88250000D01*
X115537500Y-88250000D02*
X116537500Y-88250000D01*
X116537500Y-88250000D02*
X116537500Y-89250000D01*
X116537500Y-102250000D02*
X115537500Y-102250000D01*
X116537500Y-101250000D02*
X116537500Y-102250000D01*
X103537500Y-102250000D02*
X102537500Y-102250000D01*
X102537500Y-102250000D02*
X102537500Y-101250000D01*
X102537500Y-89250000D02*
X102537500Y-88250000D01*
X102537500Y-50150000D02*
X103537500Y-50150000D01*
X115537500Y-50150000D02*
X116537500Y-50150000D01*
X116537500Y-50150000D02*
X116537500Y-51150000D01*
X116537500Y-64150000D02*
X115537500Y-64150000D01*
X116537500Y-63150000D02*
X116537500Y-64150000D01*
X103537500Y-64150000D02*
X102537500Y-64150000D01*
X102537500Y-64150000D02*
X102537500Y-63150000D01*
X102537500Y-51150000D02*
X102537500Y-50150000D01*
X121587500Y-107300000D02*
X122587500Y-107300000D01*
X134587500Y-107300000D02*
X135587500Y-107300000D01*
X135587500Y-107300000D02*
X135587500Y-108300000D01*
X135587500Y-121300000D02*
X134587500Y-121300000D01*
X135587500Y-120300000D02*
X135587500Y-121300000D01*
X122587500Y-121300000D02*
X121587500Y-121300000D01*
X121587500Y-121300000D02*
X121587500Y-120300000D01*
X121587500Y-108300000D02*
X121587500Y-107300000D01*
X121587500Y-69200000D02*
X122587500Y-69200000D01*
X134587500Y-69200000D02*
X135587500Y-69200000D01*
X135587500Y-69200000D02*
X135587500Y-70200000D01*
X135587500Y-83200000D02*
X134587500Y-83200000D01*
X135587500Y-82200000D02*
X135587500Y-83200000D01*
X122587500Y-83200000D02*
X121587500Y-83200000D01*
X121587500Y-83200000D02*
X121587500Y-82200000D01*
X121587500Y-70200000D02*
X121587500Y-69200000D01*
X121587500Y-88250000D02*
X122587500Y-88250000D01*
X134587500Y-88250000D02*
X135587500Y-88250000D01*
X135587500Y-88250000D02*
X135587500Y-89250000D01*
X135587500Y-102250000D02*
X134587500Y-102250000D01*
X135587500Y-101250000D02*
X135587500Y-102250000D01*
X122587500Y-102250000D02*
X121587500Y-102250000D01*
X121587500Y-102250000D02*
X121587500Y-101250000D01*
X121587500Y-89250000D02*
X121587500Y-88250000D01*
X121587500Y-50150000D02*
X122587500Y-50150000D01*
X134587500Y-50150000D02*
X135587500Y-50150000D01*
X135587500Y-50150000D02*
X135587500Y-51150000D01*
X135587500Y-64150000D02*
X134587500Y-64150000D01*
X135587500Y-63150000D02*
X135587500Y-64150000D01*
X122587500Y-64150000D02*
X121587500Y-64150000D01*
X121587500Y-64150000D02*
X121587500Y-63150000D01*
X121587500Y-51150000D02*
X121587500Y-50150000D01*
X26337500Y-50150000D02*
X27337500Y-50150000D01*
X39337500Y-50150000D02*
X40337500Y-50150000D01*
X40337500Y-50150000D02*
X40337500Y-51150000D01*
X40337500Y-64150000D02*
X39337500Y-64150000D01*
X40337500Y-63150000D02*
X40337500Y-64150000D01*
X27337500Y-64150000D02*
X26337500Y-64150000D01*
X26337500Y-64150000D02*
X26337500Y-63150000D01*
X26337500Y-51150000D02*
X26337500Y-50150000D01*
D12*
X142220000Y-62230000D02*
X139680000Y-62230000D01*
X157460000Y-59690000D02*
X139680000Y-59690000D01*
X139680000Y-59690000D02*
X139680000Y-92710000D01*
X139680000Y-92710000D02*
X157460000Y-92710000D01*
X157460000Y-92710000D02*
X157460000Y-59690000D01*
D11*
G36*
X154414635Y-68119030D02*
G01*
X154414635Y-68219030D01*
X154914635Y-68219030D01*
X154914635Y-68119030D01*
X154414635Y-68119030D01*
G37*
X154414635Y-68119030D02*
X154414635Y-68219030D01*
X154914635Y-68219030D01*
X154914635Y-68119030D01*
X154414635Y-68119030D01*
G36*
X154414635Y-68119030D02*
G01*
X154414635Y-68419030D01*
X154514635Y-68419030D01*
X154514635Y-68119030D01*
X154414635Y-68119030D01*
G37*
X154414635Y-68119030D02*
X154414635Y-68419030D01*
X154514635Y-68419030D01*
X154514635Y-68119030D01*
X154414635Y-68119030D01*
G36*
X154414635Y-68719030D02*
G01*
X154414635Y-68919030D01*
X154514635Y-68919030D01*
X154514635Y-68719030D01*
X154414635Y-68719030D01*
G37*
X154414635Y-68719030D02*
X154414635Y-68919030D01*
X154514635Y-68919030D01*
X154514635Y-68719030D01*
X154414635Y-68719030D01*
G36*
X154814635Y-68119030D02*
G01*
X154814635Y-68919030D01*
X154914635Y-68919030D01*
X154914635Y-68119030D01*
X154814635Y-68119030D01*
G37*
X154814635Y-68119030D02*
X154814635Y-68919030D01*
X154914635Y-68919030D01*
X154914635Y-68119030D01*
X154814635Y-68119030D01*
G36*
X154614635Y-68519030D02*
G01*
X154614635Y-68619030D01*
X154714635Y-68619030D01*
X154714635Y-68519030D01*
X154614635Y-68519030D01*
G37*
X154614635Y-68519030D02*
X154614635Y-68619030D01*
X154714635Y-68619030D01*
X154714635Y-68519030D01*
X154614635Y-68519030D01*
D12*
X142220000Y-62230000D02*
X142220000Y-64770000D01*
X142220000Y-64770000D02*
X139680000Y-64770000D01*
D11*
X56412500Y-24012500D02*
X57412500Y-24012500D01*
X69412500Y-24012500D02*
X70412500Y-24012500D01*
X70412500Y-24012500D02*
X70412500Y-25012500D01*
X70412500Y-38012500D02*
X69412500Y-38012500D01*
X70412500Y-37012500D02*
X70412500Y-38012500D01*
X57412500Y-38012500D02*
X56412500Y-38012500D01*
X56412500Y-38012500D02*
X56412500Y-37012500D01*
X56412500Y-25012500D02*
X56412500Y-24012500D01*
X75462500Y-24012500D02*
X76462500Y-24012500D01*
X88462500Y-24012500D02*
X89462500Y-24012500D01*
X89462500Y-24012500D02*
X89462500Y-25012500D01*
X89462500Y-38012500D02*
X88462500Y-38012500D01*
X89462500Y-37012500D02*
X89462500Y-38012500D01*
X76462500Y-38012500D02*
X75462500Y-38012500D01*
X75462500Y-38012500D02*
X75462500Y-37012500D01*
X75462500Y-25012500D02*
X75462500Y-24012500D01*
X94512500Y-24012500D02*
X95512500Y-24012500D01*
X107512500Y-24012500D02*
X108512500Y-24012500D01*
X108512500Y-24012500D02*
X108512500Y-25012500D01*
X108512500Y-38012500D02*
X107512500Y-38012500D01*
X108512500Y-37012500D02*
X108512500Y-38012500D01*
X95512500Y-38012500D02*
X94512500Y-38012500D01*
X94512500Y-38012500D02*
X94512500Y-37012500D01*
X94512500Y-25012500D02*
X94512500Y-24012500D01*
D12*
X157764000Y-95956000D02*
X157764000Y-109164000D01*
X147858000Y-100528000D02*
X156748000Y-100528000D01*
X147858000Y-101925000D02*
X156748000Y-101925000D01*
X147860000Y-103195000D02*
X156748000Y-103195000D01*
X147860000Y-104465000D02*
X156748000Y-104465000D01*
D13*
X139653800Y-109164000D02*
X139653800Y-95956000D01*
X139653800Y-109164000D02*
X157764000Y-109164000D01*
X139653800Y-95956000D02*
X157764000Y-95956000D01*
D11*
X34551785Y-106497380D02*
X34551785Y-105497380D01*
X33980357Y-106497380D02*
X34408928Y-105925952D01*
X33980357Y-105497380D02*
X34551785Y-106068809D01*
X33599404Y-105592619D02*
X33551785Y-105545000D01*
X33456547Y-105497380D01*
X33218452Y-105497380D01*
X33123214Y-105545000D01*
X33075595Y-105592619D01*
X33027976Y-105687857D01*
X33027976Y-105783095D01*
X33075595Y-105925952D01*
X33647023Y-106497380D01*
X33027976Y-106497380D01*
X32647023Y-105592619D02*
X32599404Y-105545000D01*
X32504166Y-105497380D01*
X32266071Y-105497380D01*
X32170833Y-105545000D01*
X32123214Y-105592619D01*
X32075595Y-105687857D01*
X32075595Y-105783095D01*
X32123214Y-105925952D01*
X32694642Y-106497380D01*
X32075595Y-106497380D01*
X34551785Y-106497380D02*
X34551785Y-105497380D01*
X33980357Y-106497380D02*
X34408928Y-105925952D01*
X33980357Y-105497380D02*
X34551785Y-106068809D01*
X33599404Y-105592619D02*
X33551785Y-105545000D01*
X33456547Y-105497380D01*
X33218452Y-105497380D01*
X33123214Y-105545000D01*
X33075595Y-105592619D01*
X33027976Y-105687857D01*
X33027976Y-105783095D01*
X33075595Y-105925952D01*
X33647023Y-106497380D01*
X33027976Y-106497380D01*
X32647023Y-105592619D02*
X32599404Y-105545000D01*
X32504166Y-105497380D01*
X32266071Y-105497380D01*
X32170833Y-105545000D01*
X32123214Y-105592619D01*
X32075595Y-105687857D01*
X32075595Y-105783095D01*
X32123214Y-105925952D01*
X32694642Y-106497380D01*
X32075595Y-106497380D01*
X34551785Y-68397380D02*
X34551785Y-67397380D01*
X33980357Y-68397380D02*
X34408928Y-67825952D01*
X33980357Y-67397380D02*
X34551785Y-67968809D01*
X33027976Y-68397380D02*
X33599404Y-68397380D01*
X33313690Y-68397380D02*
X33313690Y-67397380D01*
X33408928Y-67540238D01*
X33504166Y-67635476D01*
X33599404Y-67683095D01*
X32408928Y-67397380D02*
X32313690Y-67397380D01*
X32218452Y-67445000D01*
X32170833Y-67492619D01*
X32123214Y-67587857D01*
X32075595Y-67778333D01*
X32075595Y-68016428D01*
X32123214Y-68206904D01*
X32170833Y-68302142D01*
X32218452Y-68349761D01*
X32313690Y-68397380D01*
X32408928Y-68397380D01*
X32504166Y-68349761D01*
X32551785Y-68302142D01*
X32599404Y-68206904D01*
X32647023Y-68016428D01*
X32647023Y-67778333D01*
X32599404Y-67587857D01*
X32551785Y-67492619D01*
X32504166Y-67445000D01*
X32408928Y-67397380D01*
X34551785Y-68397380D02*
X34551785Y-67397380D01*
X33980357Y-68397380D02*
X34408928Y-67825952D01*
X33980357Y-67397380D02*
X34551785Y-67968809D01*
X33027976Y-68397380D02*
X33599404Y-68397380D01*
X33313690Y-68397380D02*
X33313690Y-67397380D01*
X33408928Y-67540238D01*
X33504166Y-67635476D01*
X33599404Y-67683095D01*
X32408928Y-67397380D02*
X32313690Y-67397380D01*
X32218452Y-67445000D01*
X32170833Y-67492619D01*
X32123214Y-67587857D01*
X32075595Y-67778333D01*
X32075595Y-68016428D01*
X32123214Y-68206904D01*
X32170833Y-68302142D01*
X32218452Y-68349761D01*
X32313690Y-68397380D01*
X32408928Y-68397380D01*
X32504166Y-68349761D01*
X32551785Y-68302142D01*
X32599404Y-68206904D01*
X32647023Y-68016428D01*
X32647023Y-67778333D01*
X32599404Y-67587857D01*
X32551785Y-67492619D01*
X32504166Y-67445000D01*
X32408928Y-67397380D01*
X34551785Y-87447380D02*
X34551785Y-86447380D01*
X33980357Y-87447380D02*
X34408928Y-86875952D01*
X33980357Y-86447380D02*
X34551785Y-87018809D01*
X33027976Y-87447380D02*
X33599404Y-87447380D01*
X33313690Y-87447380D02*
X33313690Y-86447380D01*
X33408928Y-86590238D01*
X33504166Y-86685476D01*
X33599404Y-86733095D01*
X32170833Y-86447380D02*
X32361309Y-86447380D01*
X32456547Y-86495000D01*
X32504166Y-86542619D01*
X32599404Y-86685476D01*
X32647023Y-86875952D01*
X32647023Y-87256904D01*
X32599404Y-87352142D01*
X32551785Y-87399761D01*
X32456547Y-87447380D01*
X32266071Y-87447380D01*
X32170833Y-87399761D01*
X32123214Y-87352142D01*
X32075595Y-87256904D01*
X32075595Y-87018809D01*
X32123214Y-86923571D01*
X32170833Y-86875952D01*
X32266071Y-86828333D01*
X32456547Y-86828333D01*
X32551785Y-86875952D01*
X32599404Y-86923571D01*
X32647023Y-87018809D01*
X34551785Y-87447380D02*
X34551785Y-86447380D01*
X33980357Y-87447380D02*
X34408928Y-86875952D01*
X33980357Y-86447380D02*
X34551785Y-87018809D01*
X33027976Y-87447380D02*
X33599404Y-87447380D01*
X33313690Y-87447380D02*
X33313690Y-86447380D01*
X33408928Y-86590238D01*
X33504166Y-86685476D01*
X33599404Y-86733095D01*
X32170833Y-86447380D02*
X32361309Y-86447380D01*
X32456547Y-86495000D01*
X32504166Y-86542619D01*
X32599404Y-86685476D01*
X32647023Y-86875952D01*
X32647023Y-87256904D01*
X32599404Y-87352142D01*
X32551785Y-87399761D01*
X32456547Y-87447380D01*
X32266071Y-87447380D01*
X32170833Y-87399761D01*
X32123214Y-87352142D01*
X32075595Y-87256904D01*
X32075595Y-87018809D01*
X32123214Y-86923571D01*
X32170833Y-86875952D01*
X32266071Y-86828333D01*
X32456547Y-86828333D01*
X32551785Y-86875952D01*
X32599404Y-86923571D01*
X32647023Y-87018809D01*
X53601785Y-106497380D02*
X53601785Y-105497380D01*
X53030357Y-106497380D02*
X53458928Y-105925952D01*
X53030357Y-105497380D02*
X53601785Y-106068809D01*
X52649404Y-105592619D02*
X52601785Y-105545000D01*
X52506547Y-105497380D01*
X52268452Y-105497380D01*
X52173214Y-105545000D01*
X52125595Y-105592619D01*
X52077976Y-105687857D01*
X52077976Y-105783095D01*
X52125595Y-105925952D01*
X52697023Y-106497380D01*
X52077976Y-106497380D01*
X51744642Y-105497380D02*
X51125595Y-105497380D01*
X51458928Y-105878333D01*
X51316071Y-105878333D01*
X51220833Y-105925952D01*
X51173214Y-105973571D01*
X51125595Y-106068809D01*
X51125595Y-106306904D01*
X51173214Y-106402142D01*
X51220833Y-106449761D01*
X51316071Y-106497380D01*
X51601785Y-106497380D01*
X51697023Y-106449761D01*
X51744642Y-106402142D01*
X53601785Y-106497380D02*
X53601785Y-105497380D01*
X53030357Y-106497380D02*
X53458928Y-105925952D01*
X53030357Y-105497380D02*
X53601785Y-106068809D01*
X52649404Y-105592619D02*
X52601785Y-105545000D01*
X52506547Y-105497380D01*
X52268452Y-105497380D01*
X52173214Y-105545000D01*
X52125595Y-105592619D01*
X52077976Y-105687857D01*
X52077976Y-105783095D01*
X52125595Y-105925952D01*
X52697023Y-106497380D01*
X52077976Y-106497380D01*
X51744642Y-105497380D02*
X51125595Y-105497380D01*
X51458928Y-105878333D01*
X51316071Y-105878333D01*
X51220833Y-105925952D01*
X51173214Y-105973571D01*
X51125595Y-106068809D01*
X51125595Y-106306904D01*
X51173214Y-106402142D01*
X51220833Y-106449761D01*
X51316071Y-106497380D01*
X51601785Y-106497380D01*
X51697023Y-106449761D01*
X51744642Y-106402142D01*
X53601785Y-68397380D02*
X53601785Y-67397380D01*
X53030357Y-68397380D02*
X53458928Y-67825952D01*
X53030357Y-67397380D02*
X53601785Y-67968809D01*
X52077976Y-68397380D02*
X52649404Y-68397380D01*
X52363690Y-68397380D02*
X52363690Y-67397380D01*
X52458928Y-67540238D01*
X52554166Y-67635476D01*
X52649404Y-67683095D01*
X51125595Y-68397380D02*
X51697023Y-68397380D01*
X51411309Y-68397380D02*
X51411309Y-67397380D01*
X51506547Y-67540238D01*
X51601785Y-67635476D01*
X51697023Y-67683095D01*
X53601785Y-68397380D02*
X53601785Y-67397380D01*
X53030357Y-68397380D02*
X53458928Y-67825952D01*
X53030357Y-67397380D02*
X53601785Y-67968809D01*
X52077976Y-68397380D02*
X52649404Y-68397380D01*
X52363690Y-68397380D02*
X52363690Y-67397380D01*
X52458928Y-67540238D01*
X52554166Y-67635476D01*
X52649404Y-67683095D01*
X51125595Y-68397380D02*
X51697023Y-68397380D01*
X51411309Y-68397380D02*
X51411309Y-67397380D01*
X51506547Y-67540238D01*
X51601785Y-67635476D01*
X51697023Y-67683095D01*
X53919285Y-87447380D02*
X53919285Y-86447380D01*
X53347857Y-87447380D02*
X53776428Y-86875952D01*
X53347857Y-86447380D02*
X53919285Y-87018809D01*
X52395476Y-87447380D02*
X52966904Y-87447380D01*
X52681190Y-87447380D02*
X52681190Y-86447380D01*
X52776428Y-86590238D01*
X52871666Y-86685476D01*
X52966904Y-86733095D01*
X52062142Y-86447380D02*
X51395476Y-86447380D01*
X51824047Y-87447380D01*
X53919285Y-87447380D02*
X53919285Y-86447380D01*
X53347857Y-87447380D02*
X53776428Y-86875952D01*
X53347857Y-86447380D02*
X53919285Y-87018809D01*
X52395476Y-87447380D02*
X52966904Y-87447380D01*
X52681190Y-87447380D02*
X52681190Y-86447380D01*
X52776428Y-86590238D01*
X52871666Y-86685476D01*
X52966904Y-86733095D01*
X52062142Y-86447380D02*
X51395476Y-86447380D01*
X51824047Y-87447380D01*
X53125595Y-49347380D02*
X53125595Y-48347380D01*
X52554166Y-49347380D02*
X52982738Y-48775952D01*
X52554166Y-48347380D02*
X53125595Y-48918809D01*
X51649404Y-48347380D02*
X52125595Y-48347380D01*
X52173214Y-48823571D01*
X52125595Y-48775952D01*
X52030357Y-48728333D01*
X51792261Y-48728333D01*
X51697023Y-48775952D01*
X51649404Y-48823571D01*
X51601785Y-48918809D01*
X51601785Y-49156904D01*
X51649404Y-49252142D01*
X51697023Y-49299761D01*
X51792261Y-49347380D01*
X52030357Y-49347380D01*
X52125595Y-49299761D01*
X52173214Y-49252142D01*
X53125595Y-49347380D02*
X53125595Y-48347380D01*
X52554166Y-49347380D02*
X52982738Y-48775952D01*
X52554166Y-48347380D02*
X53125595Y-48918809D01*
X51649404Y-48347380D02*
X52125595Y-48347380D01*
X52173214Y-48823571D01*
X52125595Y-48775952D01*
X52030357Y-48728333D01*
X51792261Y-48728333D01*
X51697023Y-48775952D01*
X51649404Y-48823571D01*
X51601785Y-48918809D01*
X51601785Y-49156904D01*
X51649404Y-49252142D01*
X51697023Y-49299761D01*
X51792261Y-49347380D01*
X52030357Y-49347380D01*
X52125595Y-49299761D01*
X52173214Y-49252142D01*
X72651785Y-106497380D02*
X72651785Y-105497380D01*
X72080357Y-106497380D02*
X72508928Y-105925952D01*
X72080357Y-105497380D02*
X72651785Y-106068809D01*
X71699404Y-105592619D02*
X71651785Y-105545000D01*
X71556547Y-105497380D01*
X71318452Y-105497380D01*
X71223214Y-105545000D01*
X71175595Y-105592619D01*
X71127976Y-105687857D01*
X71127976Y-105783095D01*
X71175595Y-105925952D01*
X71747023Y-106497380D01*
X71127976Y-106497380D01*
X70270833Y-105830714D02*
X70270833Y-106497380D01*
X70508928Y-105449761D02*
X70747023Y-106164047D01*
X70127976Y-106164047D01*
X72651785Y-106497380D02*
X72651785Y-105497380D01*
X72080357Y-106497380D02*
X72508928Y-105925952D01*
X72080357Y-105497380D02*
X72651785Y-106068809D01*
X71699404Y-105592619D02*
X71651785Y-105545000D01*
X71556547Y-105497380D01*
X71318452Y-105497380D01*
X71223214Y-105545000D01*
X71175595Y-105592619D01*
X71127976Y-105687857D01*
X71127976Y-105783095D01*
X71175595Y-105925952D01*
X71747023Y-106497380D01*
X71127976Y-106497380D01*
X70270833Y-105830714D02*
X70270833Y-106497380D01*
X70508928Y-105449761D02*
X70747023Y-106164047D01*
X70127976Y-106164047D01*
X110751785Y-125547380D02*
X110751785Y-124547380D01*
X110180357Y-125547380D02*
X110608928Y-124975952D01*
X110180357Y-124547380D02*
X110751785Y-125118809D01*
X109799404Y-124642619D02*
X109751785Y-124595000D01*
X109656547Y-124547380D01*
X109418452Y-124547380D01*
X109323214Y-124595000D01*
X109275595Y-124642619D01*
X109227976Y-124737857D01*
X109227976Y-124833095D01*
X109275595Y-124975952D01*
X109847023Y-125547380D01*
X109227976Y-125547380D01*
X108656547Y-124975952D02*
X108751785Y-124928333D01*
X108799404Y-124880714D01*
X108847023Y-124785476D01*
X108847023Y-124737857D01*
X108799404Y-124642619D01*
X108751785Y-124595000D01*
X108656547Y-124547380D01*
X108466071Y-124547380D01*
X108370833Y-124595000D01*
X108323214Y-124642619D01*
X108275595Y-124737857D01*
X108275595Y-124785476D01*
X108323214Y-124880714D01*
X108370833Y-124928333D01*
X108466071Y-124975952D01*
X108656547Y-124975952D01*
X108751785Y-125023571D01*
X108799404Y-125071190D01*
X108847023Y-125166428D01*
X108847023Y-125356904D01*
X108799404Y-125452142D01*
X108751785Y-125499761D01*
X108656547Y-125547380D01*
X108466071Y-125547380D01*
X108370833Y-125499761D01*
X108323214Y-125452142D01*
X108275595Y-125356904D01*
X108275595Y-125166428D01*
X108323214Y-125071190D01*
X108370833Y-125023571D01*
X108466071Y-124975952D01*
X110751785Y-125547380D02*
X110751785Y-124547380D01*
X110180357Y-125547380D02*
X110608928Y-124975952D01*
X110180357Y-124547380D02*
X110751785Y-125118809D01*
X109799404Y-124642619D02*
X109751785Y-124595000D01*
X109656547Y-124547380D01*
X109418452Y-124547380D01*
X109323214Y-124595000D01*
X109275595Y-124642619D01*
X109227976Y-124737857D01*
X109227976Y-124833095D01*
X109275595Y-124975952D01*
X109847023Y-125547380D01*
X109227976Y-125547380D01*
X108656547Y-124975952D02*
X108751785Y-124928333D01*
X108799404Y-124880714D01*
X108847023Y-124785476D01*
X108847023Y-124737857D01*
X108799404Y-124642619D01*
X108751785Y-124595000D01*
X108656547Y-124547380D01*
X108466071Y-124547380D01*
X108370833Y-124595000D01*
X108323214Y-124642619D01*
X108275595Y-124737857D01*
X108275595Y-124785476D01*
X108323214Y-124880714D01*
X108370833Y-124928333D01*
X108466071Y-124975952D01*
X108656547Y-124975952D01*
X108751785Y-125023571D01*
X108799404Y-125071190D01*
X108847023Y-125166428D01*
X108847023Y-125356904D01*
X108799404Y-125452142D01*
X108751785Y-125499761D01*
X108656547Y-125547380D01*
X108466071Y-125547380D01*
X108370833Y-125499761D01*
X108323214Y-125452142D01*
X108275595Y-125356904D01*
X108275595Y-125166428D01*
X108323214Y-125071190D01*
X108370833Y-125023571D01*
X108466071Y-124975952D01*
X72651785Y-68397380D02*
X72651785Y-67397380D01*
X72080357Y-68397380D02*
X72508928Y-67825952D01*
X72080357Y-67397380D02*
X72651785Y-67968809D01*
X71127976Y-68397380D02*
X71699404Y-68397380D01*
X71413690Y-68397380D02*
X71413690Y-67397380D01*
X71508928Y-67540238D01*
X71604166Y-67635476D01*
X71699404Y-67683095D01*
X70747023Y-67492619D02*
X70699404Y-67445000D01*
X70604166Y-67397380D01*
X70366071Y-67397380D01*
X70270833Y-67445000D01*
X70223214Y-67492619D01*
X70175595Y-67587857D01*
X70175595Y-67683095D01*
X70223214Y-67825952D01*
X70794642Y-68397380D01*
X70175595Y-68397380D01*
X72651785Y-68397380D02*
X72651785Y-67397380D01*
X72080357Y-68397380D02*
X72508928Y-67825952D01*
X72080357Y-67397380D02*
X72651785Y-67968809D01*
X71127976Y-68397380D02*
X71699404Y-68397380D01*
X71413690Y-68397380D02*
X71413690Y-67397380D01*
X71508928Y-67540238D01*
X71604166Y-67635476D01*
X71699404Y-67683095D01*
X70747023Y-67492619D02*
X70699404Y-67445000D01*
X70604166Y-67397380D01*
X70366071Y-67397380D01*
X70270833Y-67445000D01*
X70223214Y-67492619D01*
X70175595Y-67587857D01*
X70175595Y-67683095D01*
X70223214Y-67825952D01*
X70794642Y-68397380D01*
X70175595Y-68397380D01*
X72651785Y-87447380D02*
X72651785Y-86447380D01*
X72080357Y-87447380D02*
X72508928Y-86875952D01*
X72080357Y-86447380D02*
X72651785Y-87018809D01*
X71127976Y-87447380D02*
X71699404Y-87447380D01*
X71413690Y-87447380D02*
X71413690Y-86447380D01*
X71508928Y-86590238D01*
X71604166Y-86685476D01*
X71699404Y-86733095D01*
X70556547Y-86875952D02*
X70651785Y-86828333D01*
X70699404Y-86780714D01*
X70747023Y-86685476D01*
X70747023Y-86637857D01*
X70699404Y-86542619D01*
X70651785Y-86495000D01*
X70556547Y-86447380D01*
X70366071Y-86447380D01*
X70270833Y-86495000D01*
X70223214Y-86542619D01*
X70175595Y-86637857D01*
X70175595Y-86685476D01*
X70223214Y-86780714D01*
X70270833Y-86828333D01*
X70366071Y-86875952D01*
X70556547Y-86875952D01*
X70651785Y-86923571D01*
X70699404Y-86971190D01*
X70747023Y-87066428D01*
X70747023Y-87256904D01*
X70699404Y-87352142D01*
X70651785Y-87399761D01*
X70556547Y-87447380D01*
X70366071Y-87447380D01*
X70270833Y-87399761D01*
X70223214Y-87352142D01*
X70175595Y-87256904D01*
X70175595Y-87066428D01*
X70223214Y-86971190D01*
X70270833Y-86923571D01*
X70366071Y-86875952D01*
X72651785Y-87447380D02*
X72651785Y-86447380D01*
X72080357Y-87447380D02*
X72508928Y-86875952D01*
X72080357Y-86447380D02*
X72651785Y-87018809D01*
X71127976Y-87447380D02*
X71699404Y-87447380D01*
X71413690Y-87447380D02*
X71413690Y-86447380D01*
X71508928Y-86590238D01*
X71604166Y-86685476D01*
X71699404Y-86733095D01*
X70556547Y-86875952D02*
X70651785Y-86828333D01*
X70699404Y-86780714D01*
X70747023Y-86685476D01*
X70747023Y-86637857D01*
X70699404Y-86542619D01*
X70651785Y-86495000D01*
X70556547Y-86447380D01*
X70366071Y-86447380D01*
X70270833Y-86495000D01*
X70223214Y-86542619D01*
X70175595Y-86637857D01*
X70175595Y-86685476D01*
X70223214Y-86780714D01*
X70270833Y-86828333D01*
X70366071Y-86875952D01*
X70556547Y-86875952D01*
X70651785Y-86923571D01*
X70699404Y-86971190D01*
X70747023Y-87066428D01*
X70747023Y-87256904D01*
X70699404Y-87352142D01*
X70651785Y-87399761D01*
X70556547Y-87447380D01*
X70366071Y-87447380D01*
X70270833Y-87399761D01*
X70223214Y-87352142D01*
X70175595Y-87256904D01*
X70175595Y-87066428D01*
X70223214Y-86971190D01*
X70270833Y-86923571D01*
X70366071Y-86875952D01*
X72175595Y-49347380D02*
X72175595Y-48347380D01*
X71604166Y-49347380D02*
X72032738Y-48775952D01*
X71604166Y-48347380D02*
X72175595Y-48918809D01*
X70747023Y-48347380D02*
X70937500Y-48347380D01*
X71032738Y-48395000D01*
X71080357Y-48442619D01*
X71175595Y-48585476D01*
X71223214Y-48775952D01*
X71223214Y-49156904D01*
X71175595Y-49252142D01*
X71127976Y-49299761D01*
X71032738Y-49347380D01*
X70842261Y-49347380D01*
X70747023Y-49299761D01*
X70699404Y-49252142D01*
X70651785Y-49156904D01*
X70651785Y-48918809D01*
X70699404Y-48823571D01*
X70747023Y-48775952D01*
X70842261Y-48728333D01*
X71032738Y-48728333D01*
X71127976Y-48775952D01*
X71175595Y-48823571D01*
X71223214Y-48918809D01*
X72175595Y-49347380D02*
X72175595Y-48347380D01*
X71604166Y-49347380D02*
X72032738Y-48775952D01*
X71604166Y-48347380D02*
X72175595Y-48918809D01*
X70747023Y-48347380D02*
X70937500Y-48347380D01*
X71032738Y-48395000D01*
X71080357Y-48442619D01*
X71175595Y-48585476D01*
X71223214Y-48775952D01*
X71223214Y-49156904D01*
X71175595Y-49252142D01*
X71127976Y-49299761D01*
X71032738Y-49347380D01*
X70842261Y-49347380D01*
X70747023Y-49299761D01*
X70699404Y-49252142D01*
X70651785Y-49156904D01*
X70651785Y-48918809D01*
X70699404Y-48823571D01*
X70747023Y-48775952D01*
X70842261Y-48728333D01*
X71032738Y-48728333D01*
X71127976Y-48775952D01*
X71175595Y-48823571D01*
X71223214Y-48918809D01*
X91701785Y-106497380D02*
X91701785Y-105497380D01*
X91130357Y-106497380D02*
X91558928Y-105925952D01*
X91130357Y-105497380D02*
X91701785Y-106068809D01*
X90749404Y-105592619D02*
X90701785Y-105545000D01*
X90606547Y-105497380D01*
X90368452Y-105497380D01*
X90273214Y-105545000D01*
X90225595Y-105592619D01*
X90177976Y-105687857D01*
X90177976Y-105783095D01*
X90225595Y-105925952D01*
X90797023Y-106497380D01*
X90177976Y-106497380D01*
X89273214Y-105497380D02*
X89749404Y-105497380D01*
X89797023Y-105973571D01*
X89749404Y-105925952D01*
X89654166Y-105878333D01*
X89416071Y-105878333D01*
X89320833Y-105925952D01*
X89273214Y-105973571D01*
X89225595Y-106068809D01*
X89225595Y-106306904D01*
X89273214Y-106402142D01*
X89320833Y-106449761D01*
X89416071Y-106497380D01*
X89654166Y-106497380D01*
X89749404Y-106449761D01*
X89797023Y-106402142D01*
X91701785Y-106497380D02*
X91701785Y-105497380D01*
X91130357Y-106497380D02*
X91558928Y-105925952D01*
X91130357Y-105497380D02*
X91701785Y-106068809D01*
X90749404Y-105592619D02*
X90701785Y-105545000D01*
X90606547Y-105497380D01*
X90368452Y-105497380D01*
X90273214Y-105545000D01*
X90225595Y-105592619D01*
X90177976Y-105687857D01*
X90177976Y-105783095D01*
X90225595Y-105925952D01*
X90797023Y-106497380D01*
X90177976Y-106497380D01*
X89273214Y-105497380D02*
X89749404Y-105497380D01*
X89797023Y-105973571D01*
X89749404Y-105925952D01*
X89654166Y-105878333D01*
X89416071Y-105878333D01*
X89320833Y-105925952D01*
X89273214Y-105973571D01*
X89225595Y-106068809D01*
X89225595Y-106306904D01*
X89273214Y-106402142D01*
X89320833Y-106449761D01*
X89416071Y-106497380D01*
X89654166Y-106497380D01*
X89749404Y-106449761D01*
X89797023Y-106402142D01*
X129801785Y-125547380D02*
X129801785Y-124547380D01*
X129230357Y-125547380D02*
X129658928Y-124975952D01*
X129230357Y-124547380D02*
X129801785Y-125118809D01*
X128849404Y-124642619D02*
X128801785Y-124595000D01*
X128706547Y-124547380D01*
X128468452Y-124547380D01*
X128373214Y-124595000D01*
X128325595Y-124642619D01*
X128277976Y-124737857D01*
X128277976Y-124833095D01*
X128325595Y-124975952D01*
X128897023Y-125547380D01*
X128277976Y-125547380D01*
X127801785Y-125547380D02*
X127611309Y-125547380D01*
X127516071Y-125499761D01*
X127468452Y-125452142D01*
X127373214Y-125309285D01*
X127325595Y-125118809D01*
X127325595Y-124737857D01*
X127373214Y-124642619D01*
X127420833Y-124595000D01*
X127516071Y-124547380D01*
X127706547Y-124547380D01*
X127801785Y-124595000D01*
X127849404Y-124642619D01*
X127897023Y-124737857D01*
X127897023Y-124975952D01*
X127849404Y-125071190D01*
X127801785Y-125118809D01*
X127706547Y-125166428D01*
X127516071Y-125166428D01*
X127420833Y-125118809D01*
X127373214Y-125071190D01*
X127325595Y-124975952D01*
X129801785Y-125547380D02*
X129801785Y-124547380D01*
X129230357Y-125547380D02*
X129658928Y-124975952D01*
X129230357Y-124547380D02*
X129801785Y-125118809D01*
X128849404Y-124642619D02*
X128801785Y-124595000D01*
X128706547Y-124547380D01*
X128468452Y-124547380D01*
X128373214Y-124595000D01*
X128325595Y-124642619D01*
X128277976Y-124737857D01*
X128277976Y-124833095D01*
X128325595Y-124975952D01*
X128897023Y-125547380D01*
X128277976Y-125547380D01*
X127801785Y-125547380D02*
X127611309Y-125547380D01*
X127516071Y-125499761D01*
X127468452Y-125452142D01*
X127373214Y-125309285D01*
X127325595Y-125118809D01*
X127325595Y-124737857D01*
X127373214Y-124642619D01*
X127420833Y-124595000D01*
X127516071Y-124547380D01*
X127706547Y-124547380D01*
X127801785Y-124595000D01*
X127849404Y-124642619D01*
X127897023Y-124737857D01*
X127897023Y-124975952D01*
X127849404Y-125071190D01*
X127801785Y-125118809D01*
X127706547Y-125166428D01*
X127516071Y-125166428D01*
X127420833Y-125118809D01*
X127373214Y-125071190D01*
X127325595Y-124975952D01*
X91701785Y-68397380D02*
X91701785Y-67397380D01*
X91130357Y-68397380D02*
X91558928Y-67825952D01*
X91130357Y-67397380D02*
X91701785Y-67968809D01*
X90177976Y-68397380D02*
X90749404Y-68397380D01*
X90463690Y-68397380D02*
X90463690Y-67397380D01*
X90558928Y-67540238D01*
X90654166Y-67635476D01*
X90749404Y-67683095D01*
X89844642Y-67397380D02*
X89225595Y-67397380D01*
X89558928Y-67778333D01*
X89416071Y-67778333D01*
X89320833Y-67825952D01*
X89273214Y-67873571D01*
X89225595Y-67968809D01*
X89225595Y-68206904D01*
X89273214Y-68302142D01*
X89320833Y-68349761D01*
X89416071Y-68397380D01*
X89701785Y-68397380D01*
X89797023Y-68349761D01*
X89844642Y-68302142D01*
X91701785Y-68397380D02*
X91701785Y-67397380D01*
X91130357Y-68397380D02*
X91558928Y-67825952D01*
X91130357Y-67397380D02*
X91701785Y-67968809D01*
X90177976Y-68397380D02*
X90749404Y-68397380D01*
X90463690Y-68397380D02*
X90463690Y-67397380D01*
X90558928Y-67540238D01*
X90654166Y-67635476D01*
X90749404Y-67683095D01*
X89844642Y-67397380D02*
X89225595Y-67397380D01*
X89558928Y-67778333D01*
X89416071Y-67778333D01*
X89320833Y-67825952D01*
X89273214Y-67873571D01*
X89225595Y-67968809D01*
X89225595Y-68206904D01*
X89273214Y-68302142D01*
X89320833Y-68349761D01*
X89416071Y-68397380D01*
X89701785Y-68397380D01*
X89797023Y-68349761D01*
X89844642Y-68302142D01*
X91701785Y-87447380D02*
X91701785Y-86447380D01*
X91130357Y-87447380D02*
X91558928Y-86875952D01*
X91130357Y-86447380D02*
X91701785Y-87018809D01*
X90177976Y-87447380D02*
X90749404Y-87447380D01*
X90463690Y-87447380D02*
X90463690Y-86447380D01*
X90558928Y-86590238D01*
X90654166Y-86685476D01*
X90749404Y-86733095D01*
X89701785Y-87447380D02*
X89511309Y-87447380D01*
X89416071Y-87399761D01*
X89368452Y-87352142D01*
X89273214Y-87209285D01*
X89225595Y-87018809D01*
X89225595Y-86637857D01*
X89273214Y-86542619D01*
X89320833Y-86495000D01*
X89416071Y-86447380D01*
X89606547Y-86447380D01*
X89701785Y-86495000D01*
X89749404Y-86542619D01*
X89797023Y-86637857D01*
X89797023Y-86875952D01*
X89749404Y-86971190D01*
X89701785Y-87018809D01*
X89606547Y-87066428D01*
X89416071Y-87066428D01*
X89320833Y-87018809D01*
X89273214Y-86971190D01*
X89225595Y-86875952D01*
X91701785Y-87447380D02*
X91701785Y-86447380D01*
X91130357Y-87447380D02*
X91558928Y-86875952D01*
X91130357Y-86447380D02*
X91701785Y-87018809D01*
X90177976Y-87447380D02*
X90749404Y-87447380D01*
X90463690Y-87447380D02*
X90463690Y-86447380D01*
X90558928Y-86590238D01*
X90654166Y-86685476D01*
X90749404Y-86733095D01*
X89701785Y-87447380D02*
X89511309Y-87447380D01*
X89416071Y-87399761D01*
X89368452Y-87352142D01*
X89273214Y-87209285D01*
X89225595Y-87018809D01*
X89225595Y-86637857D01*
X89273214Y-86542619D01*
X89320833Y-86495000D01*
X89416071Y-86447380D01*
X89606547Y-86447380D01*
X89701785Y-86495000D01*
X89749404Y-86542619D01*
X89797023Y-86637857D01*
X89797023Y-86875952D01*
X89749404Y-86971190D01*
X89701785Y-87018809D01*
X89606547Y-87066428D01*
X89416071Y-87066428D01*
X89320833Y-87018809D01*
X89273214Y-86971190D01*
X89225595Y-86875952D01*
X91225595Y-49347380D02*
X91225595Y-48347380D01*
X90654166Y-49347380D02*
X91082738Y-48775952D01*
X90654166Y-48347380D02*
X91225595Y-48918809D01*
X90320833Y-48347380D02*
X89654166Y-48347380D01*
X90082738Y-49347380D01*
X91225595Y-49347380D02*
X91225595Y-48347380D01*
X90654166Y-49347380D02*
X91082738Y-48775952D01*
X90654166Y-48347380D02*
X91225595Y-48918809D01*
X90320833Y-48347380D02*
X89654166Y-48347380D01*
X90082738Y-49347380D01*
X110751785Y-106497380D02*
X110751785Y-105497380D01*
X110180357Y-106497380D02*
X110608928Y-105925952D01*
X110180357Y-105497380D02*
X110751785Y-106068809D01*
X109799404Y-105592619D02*
X109751785Y-105545000D01*
X109656547Y-105497380D01*
X109418452Y-105497380D01*
X109323214Y-105545000D01*
X109275595Y-105592619D01*
X109227976Y-105687857D01*
X109227976Y-105783095D01*
X109275595Y-105925952D01*
X109847023Y-106497380D01*
X109227976Y-106497380D01*
X108370833Y-105497380D02*
X108561309Y-105497380D01*
X108656547Y-105545000D01*
X108704166Y-105592619D01*
X108799404Y-105735476D01*
X108847023Y-105925952D01*
X108847023Y-106306904D01*
X108799404Y-106402142D01*
X108751785Y-106449761D01*
X108656547Y-106497380D01*
X108466071Y-106497380D01*
X108370833Y-106449761D01*
X108323214Y-106402142D01*
X108275595Y-106306904D01*
X108275595Y-106068809D01*
X108323214Y-105973571D01*
X108370833Y-105925952D01*
X108466071Y-105878333D01*
X108656547Y-105878333D01*
X108751785Y-105925952D01*
X108799404Y-105973571D01*
X108847023Y-106068809D01*
X110751785Y-106497380D02*
X110751785Y-105497380D01*
X110180357Y-106497380D02*
X110608928Y-105925952D01*
X110180357Y-105497380D02*
X110751785Y-106068809D01*
X109799404Y-105592619D02*
X109751785Y-105545000D01*
X109656547Y-105497380D01*
X109418452Y-105497380D01*
X109323214Y-105545000D01*
X109275595Y-105592619D01*
X109227976Y-105687857D01*
X109227976Y-105783095D01*
X109275595Y-105925952D01*
X109847023Y-106497380D01*
X109227976Y-106497380D01*
X108370833Y-105497380D02*
X108561309Y-105497380D01*
X108656547Y-105545000D01*
X108704166Y-105592619D01*
X108799404Y-105735476D01*
X108847023Y-105925952D01*
X108847023Y-106306904D01*
X108799404Y-106402142D01*
X108751785Y-106449761D01*
X108656547Y-106497380D01*
X108466071Y-106497380D01*
X108370833Y-106449761D01*
X108323214Y-106402142D01*
X108275595Y-106306904D01*
X108275595Y-106068809D01*
X108323214Y-105973571D01*
X108370833Y-105925952D01*
X108466071Y-105878333D01*
X108656547Y-105878333D01*
X108751785Y-105925952D01*
X108799404Y-105973571D01*
X108847023Y-106068809D01*
X148851785Y-125547380D02*
X148851785Y-124547380D01*
X148280357Y-125547380D02*
X148708928Y-124975952D01*
X148280357Y-124547380D02*
X148851785Y-125118809D01*
X147947023Y-124547380D02*
X147327976Y-124547380D01*
X147661309Y-124928333D01*
X147518452Y-124928333D01*
X147423214Y-124975952D01*
X147375595Y-125023571D01*
X147327976Y-125118809D01*
X147327976Y-125356904D01*
X147375595Y-125452142D01*
X147423214Y-125499761D01*
X147518452Y-125547380D01*
X147804166Y-125547380D01*
X147899404Y-125499761D01*
X147947023Y-125452142D01*
X146708928Y-124547380D02*
X146613690Y-124547380D01*
X146518452Y-124595000D01*
X146470833Y-124642619D01*
X146423214Y-124737857D01*
X146375595Y-124928333D01*
X146375595Y-125166428D01*
X146423214Y-125356904D01*
X146470833Y-125452142D01*
X146518452Y-125499761D01*
X146613690Y-125547380D01*
X146708928Y-125547380D01*
X146804166Y-125499761D01*
X146851785Y-125452142D01*
X146899404Y-125356904D01*
X146947023Y-125166428D01*
X146947023Y-124928333D01*
X146899404Y-124737857D01*
X146851785Y-124642619D01*
X146804166Y-124595000D01*
X146708928Y-124547380D01*
X148851785Y-125547380D02*
X148851785Y-124547380D01*
X148280357Y-125547380D02*
X148708928Y-124975952D01*
X148280357Y-124547380D02*
X148851785Y-125118809D01*
X147947023Y-124547380D02*
X147327976Y-124547380D01*
X147661309Y-124928333D01*
X147518452Y-124928333D01*
X147423214Y-124975952D01*
X147375595Y-125023571D01*
X147327976Y-125118809D01*
X147327976Y-125356904D01*
X147375595Y-125452142D01*
X147423214Y-125499761D01*
X147518452Y-125547380D01*
X147804166Y-125547380D01*
X147899404Y-125499761D01*
X147947023Y-125452142D01*
X146708928Y-124547380D02*
X146613690Y-124547380D01*
X146518452Y-124595000D01*
X146470833Y-124642619D01*
X146423214Y-124737857D01*
X146375595Y-124928333D01*
X146375595Y-125166428D01*
X146423214Y-125356904D01*
X146470833Y-125452142D01*
X146518452Y-125499761D01*
X146613690Y-125547380D01*
X146708928Y-125547380D01*
X146804166Y-125499761D01*
X146851785Y-125452142D01*
X146899404Y-125356904D01*
X146947023Y-125166428D01*
X146947023Y-124928333D01*
X146899404Y-124737857D01*
X146851785Y-124642619D01*
X146804166Y-124595000D01*
X146708928Y-124547380D01*
X110751785Y-68397380D02*
X110751785Y-67397380D01*
X110180357Y-68397380D02*
X110608928Y-67825952D01*
X110180357Y-67397380D02*
X110751785Y-67968809D01*
X109227976Y-68397380D02*
X109799404Y-68397380D01*
X109513690Y-68397380D02*
X109513690Y-67397380D01*
X109608928Y-67540238D01*
X109704166Y-67635476D01*
X109799404Y-67683095D01*
X108370833Y-67730714D02*
X108370833Y-68397380D01*
X108608928Y-67349761D02*
X108847023Y-68064047D01*
X108227976Y-68064047D01*
X110751785Y-68397380D02*
X110751785Y-67397380D01*
X110180357Y-68397380D02*
X110608928Y-67825952D01*
X110180357Y-67397380D02*
X110751785Y-67968809D01*
X109227976Y-68397380D02*
X109799404Y-68397380D01*
X109513690Y-68397380D02*
X109513690Y-67397380D01*
X109608928Y-67540238D01*
X109704166Y-67635476D01*
X109799404Y-67683095D01*
X108370833Y-67730714D02*
X108370833Y-68397380D01*
X108608928Y-67349761D02*
X108847023Y-68064047D01*
X108227976Y-68064047D01*
X110751785Y-87447380D02*
X110751785Y-86447380D01*
X110180357Y-87447380D02*
X110608928Y-86875952D01*
X110180357Y-86447380D02*
X110751785Y-87018809D01*
X109799404Y-86542619D02*
X109751785Y-86495000D01*
X109656547Y-86447380D01*
X109418452Y-86447380D01*
X109323214Y-86495000D01*
X109275595Y-86542619D01*
X109227976Y-86637857D01*
X109227976Y-86733095D01*
X109275595Y-86875952D01*
X109847023Y-87447380D01*
X109227976Y-87447380D01*
X108608928Y-86447380D02*
X108513690Y-86447380D01*
X108418452Y-86495000D01*
X108370833Y-86542619D01*
X108323214Y-86637857D01*
X108275595Y-86828333D01*
X108275595Y-87066428D01*
X108323214Y-87256904D01*
X108370833Y-87352142D01*
X108418452Y-87399761D01*
X108513690Y-87447380D01*
X108608928Y-87447380D01*
X108704166Y-87399761D01*
X108751785Y-87352142D01*
X108799404Y-87256904D01*
X108847023Y-87066428D01*
X108847023Y-86828333D01*
X108799404Y-86637857D01*
X108751785Y-86542619D01*
X108704166Y-86495000D01*
X108608928Y-86447380D01*
X110751785Y-87447380D02*
X110751785Y-86447380D01*
X110180357Y-87447380D02*
X110608928Y-86875952D01*
X110180357Y-86447380D02*
X110751785Y-87018809D01*
X109799404Y-86542619D02*
X109751785Y-86495000D01*
X109656547Y-86447380D01*
X109418452Y-86447380D01*
X109323214Y-86495000D01*
X109275595Y-86542619D01*
X109227976Y-86637857D01*
X109227976Y-86733095D01*
X109275595Y-86875952D01*
X109847023Y-87447380D01*
X109227976Y-87447380D01*
X108608928Y-86447380D02*
X108513690Y-86447380D01*
X108418452Y-86495000D01*
X108370833Y-86542619D01*
X108323214Y-86637857D01*
X108275595Y-86828333D01*
X108275595Y-87066428D01*
X108323214Y-87256904D01*
X108370833Y-87352142D01*
X108418452Y-87399761D01*
X108513690Y-87447380D01*
X108608928Y-87447380D01*
X108704166Y-87399761D01*
X108751785Y-87352142D01*
X108799404Y-87256904D01*
X108847023Y-87066428D01*
X108847023Y-86828333D01*
X108799404Y-86637857D01*
X108751785Y-86542619D01*
X108704166Y-86495000D01*
X108608928Y-86447380D01*
X110275595Y-49347380D02*
X110275595Y-48347380D01*
X109704166Y-49347380D02*
X110132738Y-48775952D01*
X109704166Y-48347380D02*
X110275595Y-48918809D01*
X109132738Y-48775952D02*
X109227976Y-48728333D01*
X109275595Y-48680714D01*
X109323214Y-48585476D01*
X109323214Y-48537857D01*
X109275595Y-48442619D01*
X109227976Y-48395000D01*
X109132738Y-48347380D01*
X108942261Y-48347380D01*
X108847023Y-48395000D01*
X108799404Y-48442619D01*
X108751785Y-48537857D01*
X108751785Y-48585476D01*
X108799404Y-48680714D01*
X108847023Y-48728333D01*
X108942261Y-48775952D01*
X109132738Y-48775952D01*
X109227976Y-48823571D01*
X109275595Y-48871190D01*
X109323214Y-48966428D01*
X109323214Y-49156904D01*
X109275595Y-49252142D01*
X109227976Y-49299761D01*
X109132738Y-49347380D01*
X108942261Y-49347380D01*
X108847023Y-49299761D01*
X108799404Y-49252142D01*
X108751785Y-49156904D01*
X108751785Y-48966428D01*
X108799404Y-48871190D01*
X108847023Y-48823571D01*
X108942261Y-48775952D01*
X110275595Y-49347380D02*
X110275595Y-48347380D01*
X109704166Y-49347380D02*
X110132738Y-48775952D01*
X109704166Y-48347380D02*
X110275595Y-48918809D01*
X109132738Y-48775952D02*
X109227976Y-48728333D01*
X109275595Y-48680714D01*
X109323214Y-48585476D01*
X109323214Y-48537857D01*
X109275595Y-48442619D01*
X109227976Y-48395000D01*
X109132738Y-48347380D01*
X108942261Y-48347380D01*
X108847023Y-48395000D01*
X108799404Y-48442619D01*
X108751785Y-48537857D01*
X108751785Y-48585476D01*
X108799404Y-48680714D01*
X108847023Y-48728333D01*
X108942261Y-48775952D01*
X109132738Y-48775952D01*
X109227976Y-48823571D01*
X109275595Y-48871190D01*
X109323214Y-48966428D01*
X109323214Y-49156904D01*
X109275595Y-49252142D01*
X109227976Y-49299761D01*
X109132738Y-49347380D01*
X108942261Y-49347380D01*
X108847023Y-49299761D01*
X108799404Y-49252142D01*
X108751785Y-49156904D01*
X108751785Y-48966428D01*
X108799404Y-48871190D01*
X108847023Y-48823571D01*
X108942261Y-48775952D01*
X129801785Y-106497380D02*
X129801785Y-105497380D01*
X129230357Y-106497380D02*
X129658928Y-105925952D01*
X129230357Y-105497380D02*
X129801785Y-106068809D01*
X128849404Y-105592619D02*
X128801785Y-105545000D01*
X128706547Y-105497380D01*
X128468452Y-105497380D01*
X128373214Y-105545000D01*
X128325595Y-105592619D01*
X128277976Y-105687857D01*
X128277976Y-105783095D01*
X128325595Y-105925952D01*
X128897023Y-106497380D01*
X128277976Y-106497380D01*
X127944642Y-105497380D02*
X127277976Y-105497380D01*
X127706547Y-106497380D01*
X129801785Y-106497380D02*
X129801785Y-105497380D01*
X129230357Y-106497380D02*
X129658928Y-105925952D01*
X129230357Y-105497380D02*
X129801785Y-106068809D01*
X128849404Y-105592619D02*
X128801785Y-105545000D01*
X128706547Y-105497380D01*
X128468452Y-105497380D01*
X128373214Y-105545000D01*
X128325595Y-105592619D01*
X128277976Y-105687857D01*
X128277976Y-105783095D01*
X128325595Y-105925952D01*
X128897023Y-106497380D01*
X128277976Y-106497380D01*
X127944642Y-105497380D02*
X127277976Y-105497380D01*
X127706547Y-106497380D01*
X129801785Y-68397380D02*
X129801785Y-67397380D01*
X129230357Y-68397380D02*
X129658928Y-67825952D01*
X129230357Y-67397380D02*
X129801785Y-67968809D01*
X128277976Y-68397380D02*
X128849404Y-68397380D01*
X128563690Y-68397380D02*
X128563690Y-67397380D01*
X128658928Y-67540238D01*
X128754166Y-67635476D01*
X128849404Y-67683095D01*
X127373214Y-67397380D02*
X127849404Y-67397380D01*
X127897023Y-67873571D01*
X127849404Y-67825952D01*
X127754166Y-67778333D01*
X127516071Y-67778333D01*
X127420833Y-67825952D01*
X127373214Y-67873571D01*
X127325595Y-67968809D01*
X127325595Y-68206904D01*
X127373214Y-68302142D01*
X127420833Y-68349761D01*
X127516071Y-68397380D01*
X127754166Y-68397380D01*
X127849404Y-68349761D01*
X127897023Y-68302142D01*
X129801785Y-68397380D02*
X129801785Y-67397380D01*
X129230357Y-68397380D02*
X129658928Y-67825952D01*
X129230357Y-67397380D02*
X129801785Y-67968809D01*
X128277976Y-68397380D02*
X128849404Y-68397380D01*
X128563690Y-68397380D02*
X128563690Y-67397380D01*
X128658928Y-67540238D01*
X128754166Y-67635476D01*
X128849404Y-67683095D01*
X127373214Y-67397380D02*
X127849404Y-67397380D01*
X127897023Y-67873571D01*
X127849404Y-67825952D01*
X127754166Y-67778333D01*
X127516071Y-67778333D01*
X127420833Y-67825952D01*
X127373214Y-67873571D01*
X127325595Y-67968809D01*
X127325595Y-68206904D01*
X127373214Y-68302142D01*
X127420833Y-68349761D01*
X127516071Y-68397380D01*
X127754166Y-68397380D01*
X127849404Y-68349761D01*
X127897023Y-68302142D01*
X129801785Y-87447380D02*
X129801785Y-86447380D01*
X129230357Y-87447380D02*
X129658928Y-86875952D01*
X129230357Y-86447380D02*
X129801785Y-87018809D01*
X128849404Y-86542619D02*
X128801785Y-86495000D01*
X128706547Y-86447380D01*
X128468452Y-86447380D01*
X128373214Y-86495000D01*
X128325595Y-86542619D01*
X128277976Y-86637857D01*
X128277976Y-86733095D01*
X128325595Y-86875952D01*
X128897023Y-87447380D01*
X128277976Y-87447380D01*
X127325595Y-87447380D02*
X127897023Y-87447380D01*
X127611309Y-87447380D02*
X127611309Y-86447380D01*
X127706547Y-86590238D01*
X127801785Y-86685476D01*
X127897023Y-86733095D01*
X129801785Y-87447380D02*
X129801785Y-86447380D01*
X129230357Y-87447380D02*
X129658928Y-86875952D01*
X129230357Y-86447380D02*
X129801785Y-87018809D01*
X128849404Y-86542619D02*
X128801785Y-86495000D01*
X128706547Y-86447380D01*
X128468452Y-86447380D01*
X128373214Y-86495000D01*
X128325595Y-86542619D01*
X128277976Y-86637857D01*
X128277976Y-86733095D01*
X128325595Y-86875952D01*
X128897023Y-87447380D01*
X128277976Y-87447380D01*
X127325595Y-87447380D02*
X127897023Y-87447380D01*
X127611309Y-87447380D02*
X127611309Y-86447380D01*
X127706547Y-86590238D01*
X127801785Y-86685476D01*
X127897023Y-86733095D01*
X129325595Y-49347380D02*
X129325595Y-48347380D01*
X128754166Y-49347380D02*
X129182738Y-48775952D01*
X128754166Y-48347380D02*
X129325595Y-48918809D01*
X128277976Y-49347380D02*
X128087500Y-49347380D01*
X127992261Y-49299761D01*
X127944642Y-49252142D01*
X127849404Y-49109285D01*
X127801785Y-48918809D01*
X127801785Y-48537857D01*
X127849404Y-48442619D01*
X127897023Y-48395000D01*
X127992261Y-48347380D01*
X128182738Y-48347380D01*
X128277976Y-48395000D01*
X128325595Y-48442619D01*
X128373214Y-48537857D01*
X128373214Y-48775952D01*
X128325595Y-48871190D01*
X128277976Y-48918809D01*
X128182738Y-48966428D01*
X127992261Y-48966428D01*
X127897023Y-48918809D01*
X127849404Y-48871190D01*
X127801785Y-48775952D01*
X129325595Y-49347380D02*
X129325595Y-48347380D01*
X128754166Y-49347380D02*
X129182738Y-48775952D01*
X128754166Y-48347380D02*
X129325595Y-48918809D01*
X128277976Y-49347380D02*
X128087500Y-49347380D01*
X127992261Y-49299761D01*
X127944642Y-49252142D01*
X127849404Y-49109285D01*
X127801785Y-48918809D01*
X127801785Y-48537857D01*
X127849404Y-48442619D01*
X127897023Y-48395000D01*
X127992261Y-48347380D01*
X128182738Y-48347380D01*
X128277976Y-48395000D01*
X128325595Y-48442619D01*
X128373214Y-48537857D01*
X128373214Y-48775952D01*
X128325595Y-48871190D01*
X128277976Y-48918809D01*
X128182738Y-48966428D01*
X127992261Y-48966428D01*
X127897023Y-48918809D01*
X127849404Y-48871190D01*
X127801785Y-48775952D01*
X34075595Y-49347380D02*
X34075595Y-48347380D01*
X33504166Y-49347380D02*
X33932738Y-48775952D01*
X33504166Y-48347380D02*
X34075595Y-48918809D01*
X32647023Y-48680714D02*
X32647023Y-49347380D01*
X32885119Y-48299761D02*
X33123214Y-49014047D01*
X32504166Y-49014047D01*
X34075595Y-49347380D02*
X34075595Y-48347380D01*
X33504166Y-49347380D02*
X33932738Y-48775952D01*
X33504166Y-48347380D02*
X34075595Y-48918809D01*
X32647023Y-48680714D02*
X32647023Y-49347380D01*
X32885119Y-48299761D02*
X33123214Y-49014047D01*
X32504166Y-49014047D01*
X147188604Y-63061904D02*
X146731461Y-63061904D01*
X146960032Y-63861904D02*
X146960032Y-63061904D01*
X146540985Y-63061904D02*
X146007651Y-63861904D01*
X146007651Y-63061904D02*
X146540985Y-63861904D01*
X145550508Y-63061904D02*
X145474318Y-63061904D01*
X145398128Y-63100000D01*
X145360032Y-63138095D01*
X145321937Y-63214285D01*
X145283842Y-63366666D01*
X145283842Y-63557142D01*
X145321937Y-63709523D01*
X145360032Y-63785714D01*
X145398128Y-63823809D01*
X145474318Y-63861904D01*
X145550508Y-63861904D01*
X145626699Y-63823809D01*
X145664794Y-63785714D01*
X145702889Y-63709523D01*
X145740985Y-63557142D01*
X145740985Y-63366666D01*
X145702889Y-63214285D01*
X145664794Y-63138095D01*
X145626699Y-63100000D01*
X145550508Y-63061904D01*
X144369556Y-63023809D02*
X145055270Y-64052380D01*
X144102889Y-63861904D02*
X144102889Y-63061904D01*
X143912413Y-63061904D01*
X143798128Y-63100000D01*
X143721937Y-63176190D01*
X143683842Y-63252380D01*
X143645747Y-63404761D01*
X143645747Y-63519047D01*
X143683842Y-63671428D01*
X143721937Y-63747619D01*
X143798128Y-63823809D01*
X143912413Y-63861904D01*
X144102889Y-63861904D01*
X143379080Y-63061904D02*
X142883842Y-63061904D01*
X143150508Y-63366666D01*
X143036223Y-63366666D01*
X142960032Y-63404761D01*
X142921937Y-63442857D01*
X142883842Y-63519047D01*
X142883842Y-63709523D01*
X142921937Y-63785714D01*
X142960032Y-63823809D01*
X143036223Y-63861904D01*
X143264794Y-63861904D01*
X143340985Y-63823809D01*
X143379080Y-63785714D01*
X147188604Y-63061904D02*
X146731461Y-63061904D01*
X146960032Y-63861904D02*
X146960032Y-63061904D01*
X146540985Y-63061904D02*
X146007651Y-63861904D01*
X146007651Y-63061904D02*
X146540985Y-63861904D01*
X145550508Y-63061904D02*
X145474318Y-63061904D01*
X145398128Y-63100000D01*
X145360032Y-63138095D01*
X145321937Y-63214285D01*
X145283842Y-63366666D01*
X145283842Y-63557142D01*
X145321937Y-63709523D01*
X145360032Y-63785714D01*
X145398128Y-63823809D01*
X145474318Y-63861904D01*
X145550508Y-63861904D01*
X145626699Y-63823809D01*
X145664794Y-63785714D01*
X145702889Y-63709523D01*
X145740985Y-63557142D01*
X145740985Y-63366666D01*
X145702889Y-63214285D01*
X145664794Y-63138095D01*
X145626699Y-63100000D01*
X145550508Y-63061904D01*
X144369556Y-63023809D02*
X145055270Y-64052380D01*
X144102889Y-63861904D02*
X144102889Y-63061904D01*
X143912413Y-63061904D01*
X143798128Y-63100000D01*
X143721937Y-63176190D01*
X143683842Y-63252380D01*
X143645747Y-63404761D01*
X143645747Y-63519047D01*
X143683842Y-63671428D01*
X143721937Y-63747619D01*
X143798128Y-63823809D01*
X143912413Y-63861904D01*
X144102889Y-63861904D01*
X143379080Y-63061904D02*
X142883842Y-63061904D01*
X143150508Y-63366666D01*
X143036223Y-63366666D01*
X142960032Y-63404761D01*
X142921937Y-63442857D01*
X142883842Y-63519047D01*
X142883842Y-63709523D01*
X142921937Y-63785714D01*
X142960032Y-63823809D01*
X143036223Y-63861904D01*
X143264794Y-63861904D01*
X143340985Y-63823809D01*
X143379080Y-63785714D01*
X143699476Y-66401904D02*
X143699476Y-65601904D01*
X143509000Y-65601904D01*
X143394714Y-65640000D01*
X143318523Y-65716190D01*
X143280428Y-65792380D01*
X143242333Y-65944761D01*
X143242333Y-66059047D01*
X143280428Y-66211428D01*
X143318523Y-66287619D01*
X143394714Y-66363809D01*
X143509000Y-66401904D01*
X143699476Y-66401904D01*
X142937571Y-65678095D02*
X142899476Y-65640000D01*
X142823285Y-65601904D01*
X142632809Y-65601904D01*
X142556619Y-65640000D01*
X142518523Y-65678095D01*
X142480428Y-65754285D01*
X142480428Y-65830476D01*
X142518523Y-65944761D01*
X142975666Y-66401904D01*
X142480428Y-66401904D01*
X143699476Y-76561904D02*
X143699476Y-75761904D01*
X143509000Y-75761904D01*
X143394714Y-75800000D01*
X143318523Y-75876190D01*
X143280428Y-75952380D01*
X143242333Y-76104761D01*
X143242333Y-76219047D01*
X143280428Y-76371428D01*
X143318523Y-76447619D01*
X143394714Y-76523809D01*
X143509000Y-76561904D01*
X143699476Y-76561904D01*
X142747095Y-75761904D02*
X142670904Y-75761904D01*
X142594714Y-75800000D01*
X142556619Y-75838095D01*
X142518523Y-75914285D01*
X142480428Y-76066666D01*
X142480428Y-76257142D01*
X142518523Y-76409523D01*
X142556619Y-76485714D01*
X142594714Y-76523809D01*
X142670904Y-76561904D01*
X142747095Y-76561904D01*
X142823285Y-76523809D01*
X142861380Y-76485714D01*
X142899476Y-76409523D01*
X142937571Y-76257142D01*
X142937571Y-76066666D01*
X142899476Y-75914285D01*
X142861380Y-75838095D01*
X142823285Y-75800000D01*
X142747095Y-75761904D01*
X143699476Y-74021904D02*
X143699476Y-73221904D01*
X143509000Y-73221904D01*
X143394714Y-73260000D01*
X143318523Y-73336190D01*
X143280428Y-73412380D01*
X143242333Y-73564761D01*
X143242333Y-73679047D01*
X143280428Y-73831428D01*
X143318523Y-73907619D01*
X143394714Y-73983809D01*
X143509000Y-74021904D01*
X143699476Y-74021904D01*
X142480428Y-74021904D02*
X142937571Y-74021904D01*
X142709000Y-74021904D02*
X142709000Y-73221904D01*
X142785190Y-73336190D01*
X142861380Y-73412380D01*
X142937571Y-73450476D01*
X143718523Y-70720000D02*
X143794714Y-70681904D01*
X143909000Y-70681904D01*
X144023285Y-70720000D01*
X144099476Y-70796190D01*
X144137571Y-70872380D01*
X144175666Y-71024761D01*
X144175666Y-71139047D01*
X144137571Y-71291428D01*
X144099476Y-71367619D01*
X144023285Y-71443809D01*
X143909000Y-71481904D01*
X143832809Y-71481904D01*
X143718523Y-71443809D01*
X143680428Y-71405714D01*
X143680428Y-71139047D01*
X143832809Y-71139047D01*
X143337571Y-71481904D02*
X143337571Y-70681904D01*
X142880428Y-71481904D01*
X142880428Y-70681904D01*
X142499476Y-71481904D02*
X142499476Y-70681904D01*
X142309000Y-70681904D01*
X142194714Y-70720000D01*
X142118523Y-70796190D01*
X142080428Y-70872380D01*
X142042333Y-71024761D01*
X142042333Y-71139047D01*
X142080428Y-71291428D01*
X142118523Y-71367619D01*
X142194714Y-71443809D01*
X142309000Y-71481904D01*
X142499476Y-71481904D01*
X143699476Y-79101904D02*
X143699476Y-78301904D01*
X143509000Y-78301904D01*
X143394714Y-78340000D01*
X143318523Y-78416190D01*
X143280428Y-78492380D01*
X143242333Y-78644761D01*
X143242333Y-78759047D01*
X143280428Y-78911428D01*
X143318523Y-78987619D01*
X143394714Y-79063809D01*
X143509000Y-79101904D01*
X143699476Y-79101904D01*
X142556619Y-78568571D02*
X142556619Y-79101904D01*
X142747095Y-78263809D02*
X142937571Y-78835238D01*
X142442333Y-78835238D01*
X143242333Y-81565714D02*
X143280428Y-81603809D01*
X143394714Y-81641904D01*
X143470904Y-81641904D01*
X143585190Y-81603809D01*
X143661380Y-81527619D01*
X143699476Y-81451428D01*
X143737571Y-81299047D01*
X143737571Y-81184761D01*
X143699476Y-81032380D01*
X143661380Y-80956190D01*
X143585190Y-80880000D01*
X143470904Y-80841904D01*
X143394714Y-80841904D01*
X143280428Y-80880000D01*
X143242333Y-80918095D01*
X142556619Y-80841904D02*
X142709000Y-80841904D01*
X142785190Y-80880000D01*
X142823285Y-80918095D01*
X142899476Y-81032380D01*
X142937571Y-81184761D01*
X142937571Y-81489523D01*
X142899476Y-81565714D01*
X142861380Y-81603809D01*
X142785190Y-81641904D01*
X142632809Y-81641904D01*
X142556619Y-81603809D01*
X142518523Y-81565714D01*
X142480428Y-81489523D01*
X142480428Y-81299047D01*
X142518523Y-81222857D01*
X142556619Y-81184761D01*
X142632809Y-81146666D01*
X142785190Y-81146666D01*
X142861380Y-81184761D01*
X142899476Y-81222857D01*
X142937571Y-81299047D01*
X143699476Y-84181904D02*
X143699476Y-83381904D01*
X143509000Y-83381904D01*
X143394714Y-83420000D01*
X143318523Y-83496190D01*
X143280428Y-83572380D01*
X143242333Y-83724761D01*
X143242333Y-83839047D01*
X143280428Y-83991428D01*
X143318523Y-84067619D01*
X143394714Y-84143809D01*
X143509000Y-84181904D01*
X143699476Y-84181904D01*
X142975666Y-83381904D02*
X142442333Y-83381904D01*
X142785190Y-84181904D01*
X143661380Y-86302857D02*
X143394714Y-86302857D01*
X143280428Y-86721904D02*
X143661380Y-86721904D01*
X143661380Y-85921904D01*
X143280428Y-85921904D01*
X142594714Y-85921904D02*
X142747095Y-85921904D01*
X142823285Y-85960000D01*
X142861380Y-85998095D01*
X142937571Y-86112380D01*
X142975666Y-86264761D01*
X142975666Y-86569523D01*
X142937571Y-86645714D01*
X142899476Y-86683809D01*
X142823285Y-86721904D01*
X142670904Y-86721904D01*
X142594714Y-86683809D01*
X142556619Y-86645714D01*
X142518523Y-86569523D01*
X142518523Y-86379047D01*
X142556619Y-86302857D01*
X142594714Y-86264761D01*
X142670904Y-86226666D01*
X142823285Y-86226666D01*
X142899476Y-86264761D01*
X142937571Y-86302857D01*
X142975666Y-86379047D01*
X143432809Y-88842857D02*
X143318523Y-88880952D01*
X143280428Y-88919047D01*
X143242333Y-88995238D01*
X143242333Y-89109523D01*
X143280428Y-89185714D01*
X143318523Y-89223809D01*
X143394714Y-89261904D01*
X143699476Y-89261904D01*
X143699476Y-88461904D01*
X143432809Y-88461904D01*
X143356619Y-88500000D01*
X143318523Y-88538095D01*
X143280428Y-88614285D01*
X143280428Y-88690476D01*
X143318523Y-88766666D01*
X143356619Y-88804761D01*
X143432809Y-88842857D01*
X143699476Y-88842857D01*
X142556619Y-88728571D02*
X142556619Y-89261904D01*
X142747095Y-88423809D02*
X142937571Y-88995238D01*
X142442333Y-88995238D01*
X143432809Y-91382857D02*
X143318523Y-91420952D01*
X143280428Y-91459047D01*
X143242333Y-91535238D01*
X143242333Y-91649523D01*
X143280428Y-91725714D01*
X143318523Y-91763809D01*
X143394714Y-91801904D01*
X143699476Y-91801904D01*
X143699476Y-91001904D01*
X143432809Y-91001904D01*
X143356619Y-91040000D01*
X143318523Y-91078095D01*
X143280428Y-91154285D01*
X143280428Y-91230476D01*
X143318523Y-91306666D01*
X143356619Y-91344761D01*
X143432809Y-91382857D01*
X143699476Y-91382857D01*
X142518523Y-91001904D02*
X142899476Y-91001904D01*
X142937571Y-91382857D01*
X142899476Y-91344761D01*
X142823285Y-91306666D01*
X142632809Y-91306666D01*
X142556619Y-91344761D01*
X142518523Y-91382857D01*
X142480428Y-91459047D01*
X142480428Y-91649523D01*
X142518523Y-91725714D01*
X142556619Y-91763809D01*
X142632809Y-91801904D01*
X142823285Y-91801904D01*
X142899476Y-91763809D01*
X142937571Y-91725714D01*
X154354809Y-91382857D02*
X154240523Y-91420952D01*
X154202428Y-91459047D01*
X154164333Y-91535238D01*
X154164333Y-91649523D01*
X154202428Y-91725714D01*
X154240523Y-91763809D01*
X154316714Y-91801904D01*
X154621476Y-91801904D01*
X154621476Y-91001904D01*
X154354809Y-91001904D01*
X154278619Y-91040000D01*
X154240523Y-91078095D01*
X154202428Y-91154285D01*
X154202428Y-91230476D01*
X154240523Y-91306666D01*
X154278619Y-91344761D01*
X154354809Y-91382857D01*
X154621476Y-91382857D01*
X153478619Y-91001904D02*
X153631000Y-91001904D01*
X153707190Y-91040000D01*
X153745285Y-91078095D01*
X153821476Y-91192380D01*
X153859571Y-91344761D01*
X153859571Y-91649523D01*
X153821476Y-91725714D01*
X153783380Y-91763809D01*
X153707190Y-91801904D01*
X153554809Y-91801904D01*
X153478619Y-91763809D01*
X153440523Y-91725714D01*
X153402428Y-91649523D01*
X153402428Y-91459047D01*
X153440523Y-91382857D01*
X153478619Y-91344761D01*
X153554809Y-91306666D01*
X153707190Y-91306666D01*
X153783380Y-91344761D01*
X153821476Y-91382857D01*
X153859571Y-91459047D01*
X154354809Y-86302857D02*
X154240523Y-86340952D01*
X154202428Y-86379047D01*
X154164333Y-86455238D01*
X154164333Y-86569523D01*
X154202428Y-86645714D01*
X154240523Y-86683809D01*
X154316714Y-86721904D01*
X154621476Y-86721904D01*
X154621476Y-85921904D01*
X154354809Y-85921904D01*
X154278619Y-85960000D01*
X154240523Y-85998095D01*
X154202428Y-86074285D01*
X154202428Y-86150476D01*
X154240523Y-86226666D01*
X154278619Y-86264761D01*
X154354809Y-86302857D01*
X154621476Y-86302857D01*
X153897666Y-85921904D02*
X153402428Y-85921904D01*
X153669095Y-86226666D01*
X153554809Y-86226666D01*
X153478619Y-86264761D01*
X153440523Y-86302857D01*
X153402428Y-86379047D01*
X153402428Y-86569523D01*
X153440523Y-86645714D01*
X153478619Y-86683809D01*
X153554809Y-86721904D01*
X153783380Y-86721904D01*
X153859571Y-86683809D01*
X153897666Y-86645714D01*
X154354809Y-83762857D02*
X154240523Y-83800952D01*
X154202428Y-83839047D01*
X154164333Y-83915238D01*
X154164333Y-84029523D01*
X154202428Y-84105714D01*
X154240523Y-84143809D01*
X154316714Y-84181904D01*
X154621476Y-84181904D01*
X154621476Y-83381904D01*
X154354809Y-83381904D01*
X154278619Y-83420000D01*
X154240523Y-83458095D01*
X154202428Y-83534285D01*
X154202428Y-83610476D01*
X154240523Y-83686666D01*
X154278619Y-83724761D01*
X154354809Y-83762857D01*
X154621476Y-83762857D01*
X153402428Y-84181904D02*
X153859571Y-84181904D01*
X153631000Y-84181904D02*
X153631000Y-83381904D01*
X153707190Y-83496190D01*
X153783380Y-83572380D01*
X153859571Y-83610476D01*
X154297666Y-73602857D02*
X154564333Y-73602857D01*
X154564333Y-74021904D02*
X154564333Y-73221904D01*
X154183380Y-73221904D01*
X153535761Y-73488571D02*
X153535761Y-74021904D01*
X153726238Y-73183809D02*
X153916714Y-73755238D01*
X153421476Y-73755238D01*
X155097666Y-70681904D02*
X154831000Y-71481904D01*
X154564333Y-70681904D01*
X153840523Y-71405714D02*
X153878619Y-71443809D01*
X153992904Y-71481904D01*
X154069095Y-71481904D01*
X154183380Y-71443809D01*
X154259571Y-71367619D01*
X154297666Y-71291428D01*
X154335761Y-71139047D01*
X154335761Y-71024761D01*
X154297666Y-70872380D01*
X154259571Y-70796190D01*
X154183380Y-70720000D01*
X154069095Y-70681904D01*
X153992904Y-70681904D01*
X153878619Y-70720000D01*
X153840523Y-70758095D01*
X153040523Y-71405714D02*
X153078619Y-71443809D01*
X153192904Y-71481904D01*
X153269095Y-71481904D01*
X153383380Y-71443809D01*
X153459571Y-71367619D01*
X153497666Y-71291428D01*
X153535761Y-71139047D01*
X153535761Y-71024761D01*
X153497666Y-70872380D01*
X153459571Y-70796190D01*
X153383380Y-70720000D01*
X153269095Y-70681904D01*
X153192904Y-70681904D01*
X153078619Y-70720000D01*
X153040523Y-70758095D01*
X154583380Y-63861904D02*
X154850047Y-63480952D01*
X155040523Y-63861904D02*
X155040523Y-63061904D01*
X154735761Y-63061904D01*
X154659571Y-63100000D01*
X154621476Y-63138095D01*
X154583380Y-63214285D01*
X154583380Y-63328571D01*
X154621476Y-63404761D01*
X154659571Y-63442857D01*
X154735761Y-63480952D01*
X155040523Y-63480952D01*
X154278619Y-63633333D02*
X153897666Y-63633333D01*
X154354809Y-63861904D02*
X154088142Y-63061904D01*
X153821476Y-63861904D01*
X153631000Y-63061904D02*
X153440523Y-63861904D01*
X153288142Y-63290476D01*
X153135761Y-63861904D01*
X152945285Y-63061904D01*
X154583380Y-63861904D02*
X154850047Y-63480952D01*
X155040523Y-63861904D02*
X155040523Y-63061904D01*
X154735761Y-63061904D01*
X154659571Y-63100000D01*
X154621476Y-63138095D01*
X154583380Y-63214285D01*
X154583380Y-63328571D01*
X154621476Y-63404761D01*
X154659571Y-63442857D01*
X154735761Y-63480952D01*
X155040523Y-63480952D01*
X154278619Y-63633333D02*
X153897666Y-63633333D01*
X154354809Y-63861904D02*
X154088142Y-63061904D01*
X153821476Y-63861904D01*
X153631000Y-63061904D02*
X153440523Y-63861904D01*
X153288142Y-63290476D01*
X153135761Y-63861904D01*
X152945285Y-63061904D01*
X154640523Y-65640000D02*
X154716714Y-65601904D01*
X154831000Y-65601904D01*
X154945285Y-65640000D01*
X155021476Y-65716190D01*
X155059571Y-65792380D01*
X155097666Y-65944761D01*
X155097666Y-66059047D01*
X155059571Y-66211428D01*
X155021476Y-66287619D01*
X154945285Y-66363809D01*
X154831000Y-66401904D01*
X154754809Y-66401904D01*
X154640523Y-66363809D01*
X154602428Y-66325714D01*
X154602428Y-66059047D01*
X154754809Y-66059047D01*
X154259571Y-66401904D02*
X154259571Y-65601904D01*
X153802428Y-66401904D01*
X153802428Y-65601904D01*
X153421476Y-66401904D02*
X153421476Y-65601904D01*
X153231000Y-65601904D01*
X153116714Y-65640000D01*
X153040523Y-65716190D01*
X153002428Y-65792380D01*
X152964333Y-65944761D01*
X152964333Y-66059047D01*
X153002428Y-66211428D01*
X153040523Y-66287619D01*
X153116714Y-66363809D01*
X153231000Y-66401904D01*
X153421476Y-66401904D01*
X155097666Y-70681904D02*
X154831000Y-71481904D01*
X154564333Y-70681904D01*
X153840523Y-71405714D02*
X153878619Y-71443809D01*
X153992904Y-71481904D01*
X154069095Y-71481904D01*
X154183380Y-71443809D01*
X154259571Y-71367619D01*
X154297666Y-71291428D01*
X154335761Y-71139047D01*
X154335761Y-71024761D01*
X154297666Y-70872380D01*
X154259571Y-70796190D01*
X154183380Y-70720000D01*
X154069095Y-70681904D01*
X153992904Y-70681904D01*
X153878619Y-70720000D01*
X153840523Y-70758095D01*
X153040523Y-71405714D02*
X153078619Y-71443809D01*
X153192904Y-71481904D01*
X153269095Y-71481904D01*
X153383380Y-71443809D01*
X153459571Y-71367619D01*
X153497666Y-71291428D01*
X153535761Y-71139047D01*
X153535761Y-71024761D01*
X153497666Y-70872380D01*
X153459571Y-70796190D01*
X153383380Y-70720000D01*
X153269095Y-70681904D01*
X153192904Y-70681904D01*
X153078619Y-70720000D01*
X153040523Y-70758095D01*
X154297666Y-73602857D02*
X154564333Y-73602857D01*
X154564333Y-74021904D02*
X154564333Y-73221904D01*
X154183380Y-73221904D01*
X153535761Y-73488571D02*
X153535761Y-74021904D01*
X153726238Y-73183809D02*
X153916714Y-73755238D01*
X153421476Y-73755238D01*
X154354809Y-83762857D02*
X154240523Y-83800952D01*
X154202428Y-83839047D01*
X154164333Y-83915238D01*
X154164333Y-84029523D01*
X154202428Y-84105714D01*
X154240523Y-84143809D01*
X154316714Y-84181904D01*
X154621476Y-84181904D01*
X154621476Y-83381904D01*
X154354809Y-83381904D01*
X154278619Y-83420000D01*
X154240523Y-83458095D01*
X154202428Y-83534285D01*
X154202428Y-83610476D01*
X154240523Y-83686666D01*
X154278619Y-83724761D01*
X154354809Y-83762857D01*
X154621476Y-83762857D01*
X153402428Y-84181904D02*
X153859571Y-84181904D01*
X153631000Y-84181904D02*
X153631000Y-83381904D01*
X153707190Y-83496190D01*
X153783380Y-83572380D01*
X153859571Y-83610476D01*
X154354809Y-86302857D02*
X154240523Y-86340952D01*
X154202428Y-86379047D01*
X154164333Y-86455238D01*
X154164333Y-86569523D01*
X154202428Y-86645714D01*
X154240523Y-86683809D01*
X154316714Y-86721904D01*
X154621476Y-86721904D01*
X154621476Y-85921904D01*
X154354809Y-85921904D01*
X154278619Y-85960000D01*
X154240523Y-85998095D01*
X154202428Y-86074285D01*
X154202428Y-86150476D01*
X154240523Y-86226666D01*
X154278619Y-86264761D01*
X154354809Y-86302857D01*
X154621476Y-86302857D01*
X153897666Y-85921904D02*
X153402428Y-85921904D01*
X153669095Y-86226666D01*
X153554809Y-86226666D01*
X153478619Y-86264761D01*
X153440523Y-86302857D01*
X153402428Y-86379047D01*
X153402428Y-86569523D01*
X153440523Y-86645714D01*
X153478619Y-86683809D01*
X153554809Y-86721904D01*
X153783380Y-86721904D01*
X153859571Y-86683809D01*
X153897666Y-86645714D01*
X154354809Y-91382857D02*
X154240523Y-91420952D01*
X154202428Y-91459047D01*
X154164333Y-91535238D01*
X154164333Y-91649523D01*
X154202428Y-91725714D01*
X154240523Y-91763809D01*
X154316714Y-91801904D01*
X154621476Y-91801904D01*
X154621476Y-91001904D01*
X154354809Y-91001904D01*
X154278619Y-91040000D01*
X154240523Y-91078095D01*
X154202428Y-91154285D01*
X154202428Y-91230476D01*
X154240523Y-91306666D01*
X154278619Y-91344761D01*
X154354809Y-91382857D01*
X154621476Y-91382857D01*
X153478619Y-91001904D02*
X153631000Y-91001904D01*
X153707190Y-91040000D01*
X153745285Y-91078095D01*
X153821476Y-91192380D01*
X153859571Y-91344761D01*
X153859571Y-91649523D01*
X153821476Y-91725714D01*
X153783380Y-91763809D01*
X153707190Y-91801904D01*
X153554809Y-91801904D01*
X153478619Y-91763809D01*
X153440523Y-91725714D01*
X153402428Y-91649523D01*
X153402428Y-91459047D01*
X153440523Y-91382857D01*
X153478619Y-91344761D01*
X153554809Y-91306666D01*
X153707190Y-91306666D01*
X153783380Y-91344761D01*
X153821476Y-91382857D01*
X153859571Y-91459047D01*
X143432809Y-91382857D02*
X143318523Y-91420952D01*
X143280428Y-91459047D01*
X143242333Y-91535238D01*
X143242333Y-91649523D01*
X143280428Y-91725714D01*
X143318523Y-91763809D01*
X143394714Y-91801904D01*
X143699476Y-91801904D01*
X143699476Y-91001904D01*
X143432809Y-91001904D01*
X143356619Y-91040000D01*
X143318523Y-91078095D01*
X143280428Y-91154285D01*
X143280428Y-91230476D01*
X143318523Y-91306666D01*
X143356619Y-91344761D01*
X143432809Y-91382857D01*
X143699476Y-91382857D01*
X142518523Y-91001904D02*
X142899476Y-91001904D01*
X142937571Y-91382857D01*
X142899476Y-91344761D01*
X142823285Y-91306666D01*
X142632809Y-91306666D01*
X142556619Y-91344761D01*
X142518523Y-91382857D01*
X142480428Y-91459047D01*
X142480428Y-91649523D01*
X142518523Y-91725714D01*
X142556619Y-91763809D01*
X142632809Y-91801904D01*
X142823285Y-91801904D01*
X142899476Y-91763809D01*
X142937571Y-91725714D01*
X143432809Y-88842857D02*
X143318523Y-88880952D01*
X143280428Y-88919047D01*
X143242333Y-88995238D01*
X143242333Y-89109523D01*
X143280428Y-89185714D01*
X143318523Y-89223809D01*
X143394714Y-89261904D01*
X143699476Y-89261904D01*
X143699476Y-88461904D01*
X143432809Y-88461904D01*
X143356619Y-88500000D01*
X143318523Y-88538095D01*
X143280428Y-88614285D01*
X143280428Y-88690476D01*
X143318523Y-88766666D01*
X143356619Y-88804761D01*
X143432809Y-88842857D01*
X143699476Y-88842857D01*
X142556619Y-88728571D02*
X142556619Y-89261904D01*
X142747095Y-88423809D02*
X142937571Y-88995238D01*
X142442333Y-88995238D01*
X143661380Y-86302857D02*
X143394714Y-86302857D01*
X143280428Y-86721904D02*
X143661380Y-86721904D01*
X143661380Y-85921904D01*
X143280428Y-85921904D01*
X142594714Y-85921904D02*
X142747095Y-85921904D01*
X142823285Y-85960000D01*
X142861380Y-85998095D01*
X142937571Y-86112380D01*
X142975666Y-86264761D01*
X142975666Y-86569523D01*
X142937571Y-86645714D01*
X142899476Y-86683809D01*
X142823285Y-86721904D01*
X142670904Y-86721904D01*
X142594714Y-86683809D01*
X142556619Y-86645714D01*
X142518523Y-86569523D01*
X142518523Y-86379047D01*
X142556619Y-86302857D01*
X142594714Y-86264761D01*
X142670904Y-86226666D01*
X142823285Y-86226666D01*
X142899476Y-86264761D01*
X142937571Y-86302857D01*
X142975666Y-86379047D01*
X143699476Y-84181904D02*
X143699476Y-83381904D01*
X143509000Y-83381904D01*
X143394714Y-83420000D01*
X143318523Y-83496190D01*
X143280428Y-83572380D01*
X143242333Y-83724761D01*
X143242333Y-83839047D01*
X143280428Y-83991428D01*
X143318523Y-84067619D01*
X143394714Y-84143809D01*
X143509000Y-84181904D01*
X143699476Y-84181904D01*
X142975666Y-83381904D02*
X142442333Y-83381904D01*
X142785190Y-84181904D01*
X143242333Y-81565714D02*
X143280428Y-81603809D01*
X143394714Y-81641904D01*
X143470904Y-81641904D01*
X143585190Y-81603809D01*
X143661380Y-81527619D01*
X143699476Y-81451428D01*
X143737571Y-81299047D01*
X143737571Y-81184761D01*
X143699476Y-81032380D01*
X143661380Y-80956190D01*
X143585190Y-80880000D01*
X143470904Y-80841904D01*
X143394714Y-80841904D01*
X143280428Y-80880000D01*
X143242333Y-80918095D01*
X142556619Y-80841904D02*
X142709000Y-80841904D01*
X142785190Y-80880000D01*
X142823285Y-80918095D01*
X142899476Y-81032380D01*
X142937571Y-81184761D01*
X142937571Y-81489523D01*
X142899476Y-81565714D01*
X142861380Y-81603809D01*
X142785190Y-81641904D01*
X142632809Y-81641904D01*
X142556619Y-81603809D01*
X142518523Y-81565714D01*
X142480428Y-81489523D01*
X142480428Y-81299047D01*
X142518523Y-81222857D01*
X142556619Y-81184761D01*
X142632809Y-81146666D01*
X142785190Y-81146666D01*
X142861380Y-81184761D01*
X142899476Y-81222857D01*
X142937571Y-81299047D01*
X143699476Y-79101904D02*
X143699476Y-78301904D01*
X143509000Y-78301904D01*
X143394714Y-78340000D01*
X143318523Y-78416190D01*
X143280428Y-78492380D01*
X143242333Y-78644761D01*
X143242333Y-78759047D01*
X143280428Y-78911428D01*
X143318523Y-78987619D01*
X143394714Y-79063809D01*
X143509000Y-79101904D01*
X143699476Y-79101904D01*
X142556619Y-78568571D02*
X142556619Y-79101904D01*
X142747095Y-78263809D02*
X142937571Y-78835238D01*
X142442333Y-78835238D01*
X143718523Y-68180000D02*
X143794714Y-68141904D01*
X143909000Y-68141904D01*
X144023285Y-68180000D01*
X144099476Y-68256190D01*
X144137571Y-68332380D01*
X144175666Y-68484761D01*
X144175666Y-68599047D01*
X144137571Y-68751428D01*
X144099476Y-68827619D01*
X144023285Y-68903809D01*
X143909000Y-68941904D01*
X143832809Y-68941904D01*
X143718523Y-68903809D01*
X143680428Y-68865714D01*
X143680428Y-68599047D01*
X143832809Y-68599047D01*
X143337571Y-68941904D02*
X143337571Y-68141904D01*
X142880428Y-68941904D01*
X142880428Y-68141904D01*
X142499476Y-68941904D02*
X142499476Y-68141904D01*
X142309000Y-68141904D01*
X142194714Y-68180000D01*
X142118523Y-68256190D01*
X142080428Y-68332380D01*
X142042333Y-68484761D01*
X142042333Y-68599047D01*
X142080428Y-68751428D01*
X142118523Y-68827619D01*
X142194714Y-68903809D01*
X142309000Y-68941904D01*
X142499476Y-68941904D01*
X143718523Y-70720000D02*
X143794714Y-70681904D01*
X143909000Y-70681904D01*
X144023285Y-70720000D01*
X144099476Y-70796190D01*
X144137571Y-70872380D01*
X144175666Y-71024761D01*
X144175666Y-71139047D01*
X144137571Y-71291428D01*
X144099476Y-71367619D01*
X144023285Y-71443809D01*
X143909000Y-71481904D01*
X143832809Y-71481904D01*
X143718523Y-71443809D01*
X143680428Y-71405714D01*
X143680428Y-71139047D01*
X143832809Y-71139047D01*
X143337571Y-71481904D02*
X143337571Y-70681904D01*
X142880428Y-71481904D01*
X142880428Y-70681904D01*
X142499476Y-71481904D02*
X142499476Y-70681904D01*
X142309000Y-70681904D01*
X142194714Y-70720000D01*
X142118523Y-70796190D01*
X142080428Y-70872380D01*
X142042333Y-71024761D01*
X142042333Y-71139047D01*
X142080428Y-71291428D01*
X142118523Y-71367619D01*
X142194714Y-71443809D01*
X142309000Y-71481904D01*
X142499476Y-71481904D01*
X143699476Y-74021904D02*
X143699476Y-73221904D01*
X143509000Y-73221904D01*
X143394714Y-73260000D01*
X143318523Y-73336190D01*
X143280428Y-73412380D01*
X143242333Y-73564761D01*
X143242333Y-73679047D01*
X143280428Y-73831428D01*
X143318523Y-73907619D01*
X143394714Y-73983809D01*
X143509000Y-74021904D01*
X143699476Y-74021904D01*
X142480428Y-74021904D02*
X142937571Y-74021904D01*
X142709000Y-74021904D02*
X142709000Y-73221904D01*
X142785190Y-73336190D01*
X142861380Y-73412380D01*
X142937571Y-73450476D01*
X143699476Y-76561904D02*
X143699476Y-75761904D01*
X143509000Y-75761904D01*
X143394714Y-75800000D01*
X143318523Y-75876190D01*
X143280428Y-75952380D01*
X143242333Y-76104761D01*
X143242333Y-76219047D01*
X143280428Y-76371428D01*
X143318523Y-76447619D01*
X143394714Y-76523809D01*
X143509000Y-76561904D01*
X143699476Y-76561904D01*
X142747095Y-75761904D02*
X142670904Y-75761904D01*
X142594714Y-75800000D01*
X142556619Y-75838095D01*
X142518523Y-75914285D01*
X142480428Y-76066666D01*
X142480428Y-76257142D01*
X142518523Y-76409523D01*
X142556619Y-76485714D01*
X142594714Y-76523809D01*
X142670904Y-76561904D01*
X142747095Y-76561904D01*
X142823285Y-76523809D01*
X142861380Y-76485714D01*
X142899476Y-76409523D01*
X142937571Y-76257142D01*
X142937571Y-76066666D01*
X142899476Y-75914285D01*
X142861380Y-75838095D01*
X142823285Y-75800000D01*
X142747095Y-75761904D01*
X143699476Y-66401904D02*
X143699476Y-65601904D01*
X143509000Y-65601904D01*
X143394714Y-65640000D01*
X143318523Y-65716190D01*
X143280428Y-65792380D01*
X143242333Y-65944761D01*
X143242333Y-66059047D01*
X143280428Y-66211428D01*
X143318523Y-66287619D01*
X143394714Y-66363809D01*
X143509000Y-66401904D01*
X143699476Y-66401904D01*
X142937571Y-65678095D02*
X142899476Y-65640000D01*
X142823285Y-65601904D01*
X142632809Y-65601904D01*
X142556619Y-65640000D01*
X142518523Y-65678095D01*
X142480428Y-65754285D01*
X142480428Y-65830476D01*
X142518523Y-65944761D01*
X142975666Y-66401904D01*
X142480428Y-66401904D01*
X64150595Y-23209880D02*
X64150595Y-22209880D01*
X63579166Y-23209880D02*
X64007738Y-22638452D01*
X63579166Y-22209880D02*
X64150595Y-22781309D01*
X62626785Y-23209880D02*
X63198214Y-23209880D01*
X62912500Y-23209880D02*
X62912500Y-22209880D01*
X63007738Y-22352738D01*
X63102976Y-22447976D01*
X63198214Y-22495595D01*
X64150595Y-23209880D02*
X64150595Y-22209880D01*
X63579166Y-23209880D02*
X64007738Y-22638452D01*
X63579166Y-22209880D02*
X64150595Y-22781309D01*
X62626785Y-23209880D02*
X63198214Y-23209880D01*
X62912500Y-23209880D02*
X62912500Y-22209880D01*
X63007738Y-22352738D01*
X63102976Y-22447976D01*
X63198214Y-22495595D01*
X83200595Y-23209880D02*
X83200595Y-22209880D01*
X82629166Y-23209880D02*
X83057738Y-22638452D01*
X82629166Y-22209880D02*
X83200595Y-22781309D01*
X82248214Y-22305119D02*
X82200595Y-22257500D01*
X82105357Y-22209880D01*
X81867261Y-22209880D01*
X81772023Y-22257500D01*
X81724404Y-22305119D01*
X81676785Y-22400357D01*
X81676785Y-22495595D01*
X81724404Y-22638452D01*
X82295833Y-23209880D01*
X81676785Y-23209880D01*
X83200595Y-23209880D02*
X83200595Y-22209880D01*
X82629166Y-23209880D02*
X83057738Y-22638452D01*
X82629166Y-22209880D02*
X83200595Y-22781309D01*
X82248214Y-22305119D02*
X82200595Y-22257500D01*
X82105357Y-22209880D01*
X81867261Y-22209880D01*
X81772023Y-22257500D01*
X81724404Y-22305119D01*
X81676785Y-22400357D01*
X81676785Y-22495595D01*
X81724404Y-22638452D01*
X82295833Y-23209880D01*
X81676785Y-23209880D01*
X102250595Y-23209880D02*
X102250595Y-22209880D01*
X101679166Y-23209880D02*
X102107738Y-22638452D01*
X101679166Y-22209880D02*
X102250595Y-22781309D01*
X101345833Y-22209880D02*
X100726785Y-22209880D01*
X101060119Y-22590833D01*
X100917261Y-22590833D01*
X100822023Y-22638452D01*
X100774404Y-22686071D01*
X100726785Y-22781309D01*
X100726785Y-23019404D01*
X100774404Y-23114642D01*
X100822023Y-23162261D01*
X100917261Y-23209880D01*
X101202976Y-23209880D01*
X101298214Y-23162261D01*
X101345833Y-23114642D01*
X102250595Y-23209880D02*
X102250595Y-22209880D01*
X101679166Y-23209880D02*
X102107738Y-22638452D01*
X101679166Y-22209880D02*
X102250595Y-22781309D01*
X101345833Y-22209880D02*
X100726785Y-22209880D01*
X101060119Y-22590833D01*
X100917261Y-22590833D01*
X100822023Y-22638452D01*
X100774404Y-22686071D01*
X100726785Y-22781309D01*
X100726785Y-23019404D01*
X100774404Y-23114642D01*
X100822023Y-23162261D01*
X100917261Y-23209880D01*
X101202976Y-23209880D01*
X101298214Y-23162261D01*
X101345833Y-23114642D01*
D14*
X138354166Y-102687000D02*
X138989166Y-102687000D01*
X139116166Y-102650714D01*
X139200833Y-102578142D01*
X139243166Y-102469285D01*
X139243166Y-102396714D01*
X138650500Y-103376428D02*
X139243166Y-103376428D01*
X138311833Y-103195000D02*
X138946833Y-103013571D01*
X138946833Y-103485285D01*
M02*
