M48
INCH
T1C0.0310
T2C0.0670
T3C0.1260
T4C0.1570
%
G90
G05
T1
X2.9571Y-1.8425
X3.0071Y-1.8425
X3.0571Y-1.8425
X3.1071Y-1.8425
X3.1571Y-1.8425
X2.9551Y-1.7882
X3.0051Y-1.7882
X3.0551Y-1.7882
X3.1051Y-1.7882
X3.1551Y-1.7882
T2
X4.1125Y-3.0
X4.5125Y-3.0
X3.0466Y-1.221
X3.4466Y-1.221
X4.1125Y-3.75
X4.5125Y-3.75
X2.6125Y-4.5
X3.0125Y-4.5
X3.3625Y-3.75
X3.7625Y-3.75
X1.8625Y-3.0
X2.2625Y-3.0
X3.3625Y-4.5
X3.7625Y-4.5
X4.8625Y-3.75
X5.2625Y-3.75
X1.875Y-3.75
X2.275Y-3.75
X3.7966Y-1.221
X4.1966Y-1.221
X4.1125Y-2.25
X4.5125Y-2.25
X4.1125Y-5.25
X4.5125Y-5.25
X3.3625Y-2.25
X3.7625Y-2.25
X4.8625Y-5.25
X5.2625Y-5.25
X1.1125Y-4.5
X1.5125Y-4.5
X1.1125Y-3.0
X1.5125Y-3.0
X1.1125Y-3.75
X1.5125Y-3.75
X4.8625Y-2.25
X5.2625Y-2.25
X4.8625Y-4.5
X5.2625Y-4.5
X2.6125Y-3.0
X3.0125Y-3.0
X4.1125Y-4.5
X4.5125Y-4.5
X1.8625Y-2.25
X2.2625Y-2.25
X5.6125Y-5.25
X6.0125Y-5.25
X2.2966Y-1.221
X2.6966Y-1.221
X2.6125Y-3.75
X3.0125Y-3.75
X3.3625Y-3.0
X3.7625Y-3.0
X1.8625Y-4.5
X2.2625Y-4.5
X2.6125Y-2.25
X3.0125Y-2.25
X1.1125Y-2.25
X1.5125Y-2.25
X4.8625Y-3.0
X5.2625Y-3.0
T3
X5.9012Y-3.8378
X5.9012Y-4.2378
X5.9012Y-4.0876
X5.9012Y-4.4876
T4
X1.3125Y-3.0
X1.3125Y-3.75
X5.0625Y-2.25
X5.0625Y-4.5
X2.8125Y-3.0
X4.3125Y-4.5
X2.0625Y-2.25
X5.8125Y-5.25
X2.4966Y-1.221
X2.8125Y-3.75
X3.5625Y-3.0
X2.0625Y-4.5
X2.8125Y-2.25
X1.3125Y-2.25
X5.0625Y-3.0
X4.3125Y-3.0
X3.2466Y-1.221
X4.3125Y-3.75
X2.8125Y-4.5
X3.5625Y-3.75
X2.0625Y-3.0
X3.5625Y-4.5
X5.0625Y-3.75
X2.075Y-3.75
X3.9966Y-1.221
X4.3125Y-2.25
X4.3125Y-5.25
X3.5625Y-2.25
X5.0625Y-5.25
X1.3125Y-4.5
T0
M30
