G04 #@! TF.GenerationSoftware,KiCad,Pcbnew,(5.1.5-0-10_14)*
G04 #@! TF.CreationDate,2021-05-07T17:03:44+03:00*
G04 #@! TF.ProjectId,Sotka,536f746b-612e-46b6-9963-61645f706362,rev?*
G04 #@! TF.SameCoordinates,Original*
G04 #@! TF.FileFunction,Profile,NP*
%FSLAX46Y46*%
G04 Gerber Fmt 4.6, Leading zero omitted, Abs format (unit mm)*
G04 Created by KiCad (PCBNEW (5.1.5-0-10_14)) date 2021-05-07 17:03:44*
%MOMM*%
%LPD*%
G04 APERTURE LIST*
%ADD10C,0.050000*%
G04 APERTURE END LIST*
D10*
X74430000Y-47780000D02*
G75*
G02X73910000Y-48300000I-520000J0D01*
G01*
X81440000Y-48290000D02*
G75*
G02X80920000Y-47770000I0J520000D01*
G01*
X80860000Y-44370000D02*
G75*
G02X81380000Y-43850000I520000J0D01*
G01*
X73850000Y-43870000D02*
G75*
G02X74370000Y-44390000I0J-520000D01*
G01*
X63720000Y-43840000D02*
G75*
G02X63200000Y-43320000I0J520000D01*
G01*
X34520000Y-24310000D02*
G75*
G02X35040000Y-23790000I520000J0D01*
G01*
X35060000Y-38820000D02*
G75*
G02X34540000Y-38300000I0J520000D01*
G01*
X120490000Y-35290000D02*
G75*
G02X119970000Y-35810000I-520000J0D01*
G01*
X158310000Y-59010000D02*
G75*
G02X158830000Y-59530000I0J-520000D01*
G01*
X155220000Y-140350000D02*
G75*
G02X154700000Y-140870000I-520000J0D01*
G01*
X102470000Y-140890000D02*
G75*
G02X101950000Y-140370000I0J520000D01*
G01*
X26260000Y-121880000D02*
G75*
G02X25740000Y-121360000I0J520000D01*
G01*
X26270000Y-48300000D02*
X73910000Y-48300000D01*
X25750000Y-48920000D02*
X25750000Y-48820000D01*
X25750000Y-48820000D02*
G75*
G02X26270000Y-48300000I520000J0D01*
G01*
X80920000Y-47770000D02*
X80860000Y-44370000D01*
X74370000Y-44390000D02*
X74430000Y-47780000D01*
X89940000Y-48290000D02*
X81440000Y-48290000D01*
X112860000Y-26530000D02*
X109470000Y-23470000D01*
X118660000Y-26530000D02*
X112860000Y-26530000D01*
X120490000Y-27700000D02*
X118660000Y-26530000D01*
X120640000Y-44150000D02*
X120330000Y-43820000D01*
X112260000Y-43820000D02*
X120330000Y-43820000D01*
X111950000Y-44170000D02*
X112260000Y-43820000D01*
X93980000Y-44170000D02*
X111950000Y-44170000D01*
X73850000Y-43870000D02*
X63720000Y-43840000D01*
X93980000Y-44170000D02*
X90190000Y-48050000D01*
X122500000Y-45940000D02*
X120640000Y-44150000D01*
X134090000Y-45930000D02*
X122500000Y-45940000D01*
X141980000Y-53630000D02*
X134090000Y-45930000D01*
X141980000Y-59020000D02*
X141980000Y-53630000D01*
X158310000Y-59010000D02*
X141980000Y-59020000D01*
X158840000Y-95330000D02*
X158830000Y-59530000D01*
X155200000Y-98970000D02*
X158840000Y-95330000D01*
X155210000Y-125780000D02*
X155200000Y-98970000D01*
X155220000Y-140350000D02*
X155210000Y-125780000D01*
X102470000Y-140890000D02*
X154700000Y-140870000D01*
X101950000Y-124830000D02*
X101950000Y-140370000D01*
X98980000Y-121860000D02*
X101950000Y-124830000D01*
X26260000Y-121880000D02*
X98980000Y-121860000D01*
X25750000Y-48920000D02*
X25740000Y-121360000D01*
X90190000Y-48050000D02*
X89940000Y-48290000D01*
X115590000Y-35810000D02*
X119970000Y-35810000D01*
X111800000Y-39900000D02*
X115590000Y-35810000D01*
X93770000Y-39910000D02*
X89800000Y-43850000D01*
X34540000Y-38300000D02*
X34520000Y-24310000D01*
X61640000Y-38810000D02*
X35060000Y-38820000D01*
X63200000Y-41120000D02*
X61640000Y-38810000D01*
X63200000Y-43320000D02*
X63200000Y-41120000D01*
X89800000Y-43850000D02*
X81380000Y-43850000D01*
X111800000Y-39900000D02*
X93770000Y-39910000D01*
X120490000Y-27700000D02*
X120490000Y-35290000D01*
X35040000Y-23790000D02*
X109470000Y-23470000D01*
M02*
