0
SECTION
2
HEADER
9
$INSUNITS
70
4
9
$ACADVER
1
AC1014
9
$HANDSEED
5
FFFF
0
ENDSEC
0
SECTION
2
TABLES
0
TABLE
2
VPORT
5
8
100
AcDbSymbolTable
0
ENDTAB
0
TABLE
2
LTYPE
5
5
100
AcDbSymbolTable
0
LTYPE
5
14
100
AcDbSymbolTableRecord
100
AcDbLinetypeTableRecord
2
BYBLOCK
70
0
0
LTYPE
5
15
100
AcDbSymbolTableRecord
100
AcDbLinetypeTableRecord
2
BYLAYER
70
0
0
ENDTAB
0
TABLE
2
LAYER
5
2
100
AcDbSymbolTable
70
2
0
LAYER
5
50
100
AcDbSymbolTableRecord
100
AcDbLayerTableRecord
2
0
70
0
6
CONTINUOUS
0
ENDTAB
0
TABLE
2
STYLE
5
3
100
AcDbSymbolTable
70
1
0
STYLE
5
11
100
AcDbSymbolTableRecord
100
AcDbTextStyleTableRecord
2
STANDARD
70
0
0
ENDTAB
0
TABLE
2
VIEW
5
6
100
AcDbSymbolTable
70
0
0
ENDTAB
0
TABLE
2
UCS
5
7
100
AcDbSymbolTable
70
0
0
ENDTAB
0
TABLE
2
APPID
5
9
100
AcDbSymbolTable
70
2
0
APPID
5
12
100
AcDbSymbolTableRecord
100
AcDbRegAppTableRecord
2
ACAD
70
0
0
ENDTAB
0
TABLE
2
DIMSTYLE
5
A
100
AcDbSymbolTable
70
1
0
ENDTAB
0
TABLE
2
BLOCK_RECORD
5
1
100
AcDbSymbolTable
70
1
0
BLOCK_RECORD
5
1F
100
AcDbSymbolTableRecord
100
AcDbBlockTableRecord
2
*MODEL_SPACE
0
BLOCK_RECORD
5
1B
100
AcDbSymbolTableRecord
100
AcDbBlockTableRecord
2
*PAPER_SPACE
0
ENDTAB
0
ENDSEC
0
SECTION
2
BLOCKS
0
BLOCK
5
20
100
AcDbEntity
100
AcDbBlockBegin
2
*MODEL_SPACE
0
ENDBLK
5
21
100
AcDbEntity
100
AcDbBlockEnd
0
BLOCK
5
1C
100
AcDbEntity
100
AcDbBlockBegin
2
*PAPER_SPACE
0
ENDBLK
5
1D
100
AcDbEntity
100
AcDbBlockEnd
0
ENDSEC
0
SECTION
2
ENTITIES
0
LWPOLYLINE
5
100
100
AcDbEntity
8
0
100
AcDbPolyline
90
33
70
1
43
0.0
10
194.01502645215257
20
19.025413771809703
10
194.01502645215257
20
26.525413771809152
10
194.01502645215263
20
100.68813529479871
10
194.01502645215265
20
105.18813529479873
42
-0.41421356237309509
10
195.01502645215265
20
106.18813529479873
10
202.51502645215268
20
106.18813529479871
10
262.14224143709112
20
106.18813529479873
10
266.11242348814363
20
110.1952074052939
10
300.45753336979936
20
110.19520740529389
10
302.45753332509588
20
108.31321096649022
10
310.89646508895413
20
108.31321096649023
10
313.85586164914599
20
108.31321096649026
42
-0.41421356237309509
10
314.85586164914599
20
107.31321096649025
10
314.85586164914599
20
98.262158357772975
10
318.57640959224767
20
94.395973027465644
42
-0.19392873660942955
10
318.85586170875064
20
93.702567844626671
10
318.85586170875064
20
90.105584104059204
42
0.41421356237309509
10
319.85586170875069
20
89.105584104059233
10
337.365848482915
20
89.10558410405919
42
-0.41421356237308465
10
338.36584848291511
20
88.105584104059204
10
338.36584848291511
20
24.742495005135368
10
338.36584848291511
20
7.571783739137512
10
338.365848482915
20
0.042496867781096688
42
-0.41421356237308982
10
337.365848482915
20
-0.95750313221889982
10
328.76584848291498
20
-0.95750313221889982
10
279.13325217561851
20
-0.95750313221886429
10
268.68860863228628
20
-0.95750313221884653
42
-0.41421356237309509
10
267.68860863228633
20
0.042496867781132153
10
267.68860863228633
20
8.6424968677811265
10
267.68860863228633
20
17.025413771809674
42
0.41421356237311063
10
266.68860863228633
20
18.025413771809671
10
202.51502645215257
20
18.025413771809706
10
195.01502645215257
20
18.025413771809724
42
-0.41421356237310542
0
CIRCLE
5
101
100
AcDbEntity
8
0
100
AcDbCircle
10
270.87166496437339
20
2.055208284307799
30
0
40
1.1000000000000001
210
0
220
0
230
1
0
CIRCLE
5
102
100
AcDbEntity
8
0
100
AcDbCircle
10
335.05682666178245
20
24.564470383079335
30
0
40
1.1000000000000001
210
0
220
0
230
1
0
CIRCLE
5
103
100
AcDbEntity
8
0
100
AcDbCircle
10
336.7800620452881
20
85.519797666432282
30
0
40
1.1000000000000001
210
0
220
0
230
1
0
CIRCLE
5
104
100
AcDbEntity
8
0
100
AcDbCircle
10
246.34695814075471
20
103.40123337477652
30
0
40
1.1000000000000001
210
0
220
0
230
1
0
CIRCLE
5
105
100
AcDbEntity
8
0
100
AcDbCircle
10
336.7800620452881
20
53.519797666432289
30
0
40
1.1000000000000001
210
0
220
0
230
1
0
CIRCLE
5
106
100
AcDbEntity
8
0
100
AcDbCircle
10
269.41751384127463
20
19.930776060585895
30
0
40
1.1000000000000001
210
0
220
0
230
1
0
CIRCLE
5
107
100
AcDbEntity
8
0
100
AcDbCircle
10
277.96603618564882
20
107.27581570322612
30
0
40
1.1000000000000001
210
0
220
0
230
1
0
CIRCLE
5
108
100
AcDbEntity
8
0
100
AcDbCircle
10
197.28509623592234
20
102.88129291495991
30
0
40
1.1000000000000001
210
0
220
0
230
1
0
CIRCLE
5
109
100
AcDbEntity
8
0
100
AcDbCircle
10
310.74249449576166
20
105.34200478594468
30
0
40
1.1000000000000001
210
0
220
0
230
1
0
CIRCLE
5
110
100
AcDbEntity
8
0
100
AcDbCircle
10
196.84396540187859
20
21.113208089076085
30
0
40
1.1000000000000001
210
0
220
0
230
1
0
CIRCLE
5
111
100
AcDbEntity
8
0
100
AcDbCircle
10
334.82247657989654
20
1.9277052826834051
30
0
40
1.1000000000000001
210
0
220
0
230
1
0
ENDSEC
0
SECTION
2
OBJECTS
0
DICTIONARY
5
C
100
AcDbDictionary
3
ACAD_GROUP
350
D
3
ACAD_MLINESTYLE
350
17
0
DICTIONARY
5
D
100
AcDbDictionary
0
DICTIONARY
5
1A
330
C
100
AcDbDictionary
0
DICTIONARY
5
17
100
AcDbDictionary
0
ENDSEC
0
EOF
