0
SECTION
2
HEADER
9
$INSUNITS
70
4
9
$ACADVER
1
AC1014
9
$HANDSEED
5
FFFF
0
ENDSEC
0
SECTION
2
TABLES
0
TABLE
2
VPORT
5
8
100
AcDbSymbolTable
0
ENDTAB
0
TABLE
2
LTYPE
5
5
100
AcDbSymbolTable
0
LTYPE
5
14
100
AcDbSymbolTableRecord
100
AcDbLinetypeTableRecord
2
BYBLOCK
70
0
0
LTYPE
5
15
100
AcDbSymbolTableRecord
100
AcDbLinetypeTableRecord
2
BYLAYER
70
0
0
ENDTAB
0
TABLE
2
LAYER
5
2
100
AcDbSymbolTable
70
2
0
LAYER
5
50
100
AcDbSymbolTableRecord
100
AcDbLayerTableRecord
2
0
70
0
6
CONTINUOUS
0
ENDTAB
0
TABLE
2
STYLE
5
3
100
AcDbSymbolTable
70
1
0
STYLE
5
11
100
AcDbSymbolTableRecord
100
AcDbTextStyleTableRecord
2
STANDARD
70
0
0
ENDTAB
0
TABLE
2
VIEW
5
6
100
AcDbSymbolTable
70
0
0
ENDTAB
0
TABLE
2
UCS
5
7
100
AcDbSymbolTable
70
0
0
ENDTAB
0
TABLE
2
APPID
5
9
100
AcDbSymbolTable
70
2
0
APPID
5
12
100
AcDbSymbolTableRecord
100
AcDbRegAppTableRecord
2
ACAD
70
0
0
ENDTAB
0
TABLE
2
DIMSTYLE
5
A
100
AcDbSymbolTable
70
1
0
ENDTAB
0
TABLE
2
BLOCK_RECORD
5
1
100
AcDbSymbolTable
70
1
0
BLOCK_RECORD
5
1F
100
AcDbSymbolTableRecord
100
AcDbBlockTableRecord
2
*MODEL_SPACE
0
BLOCK_RECORD
5
1B
100
AcDbSymbolTableRecord
100
AcDbBlockTableRecord
2
*PAPER_SPACE
0
ENDTAB
0
ENDSEC
0
SECTION
2
BLOCKS
0
BLOCK
5
20
100
AcDbEntity
100
AcDbBlockBegin
2
*MODEL_SPACE
0
ENDBLK
5
21
100
AcDbEntity
100
AcDbBlockEnd
0
BLOCK
5
1C
100
AcDbEntity
100
AcDbBlockBegin
2
*PAPER_SPACE
0
ENDBLK
5
1D
100
AcDbEntity
100
AcDbBlockEnd
0
ENDSEC
0
SECTION
2
ENTITIES
0
LWPOLYLINE
5
100
100
AcDbEntity
8
0
100
AcDbPolyline
90
8
70
1
43
0.0
10
179.1555771798468
20
42.101729604372778
10
179.15557717984677
20
103.38249960604658
42
0.41421356237308982
10
178.15557717984674
20
104.38249960604658
10
153.65557717984677
20
104.38249960604658
42
0.41421356237309509
10
152.6555771798468
20
103.38249960604658
10
152.6555771798468
20
42.1017296043728
42
0.41421356237309509
10
153.65557717984677
20
41.101729604372807
10
178.15557717984677
20
41.101729604372785
42
0.414213562373069
0
CIRCLE
5
101
100
AcDbEntity
8
0
100
AcDbCircle
10
175.56979074221988
20
68.79671532908803
30
0
40
1.1000000000000001
210
0
220
0
230
1
0
CIRCLE
5
102
100
AcDbEntity
8
0
100
AcDbCircle
10
175.56979074221988
20
100.79671532908804
30
0
40
1.1000000000000001
210
0
220
0
230
1
0
LWPOLYLINE
5
103
100
AcDbEntity
8
0
100
AcDbPolyline
90
8
70
1
43
0.0
10
169.8726534713104
20
95.62866186221045
10
158.49015879760142
20
100.98277530732837
42
0.41369115126978234
10
157.16038497925433
20
100.50514188196266
10
157.16153596980507
20
100.50489054425908
42
0.41473449530562412
10
157.6400124089233
20
99.172743107733453
10
169.02138236417514
20
93.819030793353591
42
0.41477975538295359
10
170.35274233505919
20
94.300015262068285
10
170.35271731299616
20
94.29986810922054
42
0.4136504595014393
0
LWPOLYLINE
5
104
100
AcDbEntity
8
0
100
AcDbPolyline
90
8
70
1
43
0.0
10
157.64001240892378
20
94.172743107734505
42
-0.41473449530562412
10
157.16153596980507
20
95.504890544259084
10
157.16038497925433
20
95.505141881962658
42
-0.41369115126978234
10
158.49015879760142
20
95.982775307328367
10
169.87265347131071
20
90.628661862211118
42
-0.4136504595014393
10
170.35271731299616
20
89.29986810922054
10
170.35274233505857
20
89.300015262068584
42
-0.41477975538295359
10
169.02138236417514
20
88.819030793353591
0
LWPOLYLINE
5
105
100
AcDbEntity
8
0
100
AcDbPolyline
90
8
70
1
43
0.0
10
157.64001240892378
20
89.172743107734505
42
-0.41473449530562412
10
157.16153596980507
20
90.504890544259084
10
157.16038497925433
20
90.505141881962658
42
-0.41369115126978234
10
158.49015879760142
20
90.982775307328367
10
169.87265347131071
20
85.628661862211118
42
-0.4136504595014393
10
170.35271731299616
20
84.29986810922054
10
170.35274233505857
20
84.300015262068584
42
-0.41477975538295359
10
169.02138236417514
20
83.819030793353591
0
LWPOLYLINE
5
106
100
AcDbEntity
8
0
100
AcDbPolyline
90
8
70
1
43
0.0
10
157.64001240892378
20
84.172743107734505
42
-0.41473449530562412
10
157.16153596980507
20
85.504890544259084
10
157.16038497925433
20
85.505141881962658
42
-0.41369115126978234
10
158.49015879760142
20
85.982775307328367
10
169.87265347131071
20
80.628661862211118
42
-0.4136504595014393
10
170.35271731299616
20
79.29986810922054
10
170.35274233505857
20
79.30001526206857
42
-0.41477975538295359
10
169.02138236417514
20
78.819030793353591
0
LWPOLYLINE
5
107
100
AcDbEntity
8
0
100
AcDbPolyline
90
8
70
1
43
0.0
10
157.64001240892381
20
79.172743107734519
42
-0.41473449530562412
10
157.16153596980507
20
80.504890544259084
10
157.16038497925433
20
80.505141881962658
42
-0.41369115126978234
10
158.49015879760142
20
80.982775307328367
10
169.87265347131071
20
75.628661862211104
42
-0.4136504595014393
10
170.35271731299616
20
74.29986810922054
10
170.35274233505857
20
74.30001526206857
42
-0.41477975538295359
10
169.02138236417514
20
73.819030793353591
0
LWPOLYLINE
5
108
100
AcDbEntity
8
0
100
AcDbPolyline
90
8
70
1
43
0.0
10
157.64001240892381
20
74.172743107734519
42
-0.41473449530562412
10
157.16153596980507
20
75.504890544259084
10
157.16038497925433
20
75.505141881962658
42
-0.41369115126978234
10
158.49015879760142
20
75.982775307328367
10
169.87265347131071
20
70.628661862211104
42
-0.4136504595014393
10
170.35271731299616
20
69.29986810922054
10
170.35274233505857
20
69.30001526206857
42
-0.41477975538295359
10
169.02138236417514
20
68.819030793353591
0
LWPOLYLINE
5
109
100
AcDbEntity
8
0
100
AcDbPolyline
90
8
70
1
43
0.0
10
157.64001240892381
20
69.172743107734519
42
-0.41473449530562412
10
157.16153596980507
20
70.504890544259084
10
157.16038497925433
20
70.505141881962658
42
-0.41369115126978234
10
158.49015879760142
20
70.982775307328367
10
169.87265347131071
20
65.628661862211104
42
-0.4136504595014393
10
170.35271731299616
20
64.29986810922054
10
170.35274233505857
20
64.30001526206857
42
-0.41477975538295359
10
169.02138236417514
20
63.819030793353591
0
LWPOLYLINE
5
110
100
AcDbEntity
8
0
100
AcDbPolyline
90
8
70
1
43
0.0
10
157.64001240892381
20
64.172743107734519
42
-0.41473449530562412
10
157.16153596980507
20
65.504890544259084
10
157.16038497925433
20
65.505141881962658
42
-0.41369115126978234
10
158.49015879760142
20
65.982775307328367
10
169.87265347131074
20
60.628661862211104
42
-0.4136504595014393
10
170.35271731299619
20
59.29986810922054
10
170.35274233505859
20
59.300015262068577
42
-0.41477975538295359
10
169.02138236417517
20
58.819030793353591
0
LWPOLYLINE
5
111
100
AcDbEntity
8
0
100
AcDbPolyline
90
8
70
1
43
0.0
10
157.64001240892381
20
59.172743107734512
42
-0.41473449530562412
10
157.16153596980507
20
60.504890544259084
10
157.16038497925433
20
60.505141881962658
42
-0.41369115126978234
10
158.49015879760142
20
60.982775307328367
10
169.87265347131074
20
55.628661862211104
42
-0.4136504595014393
10
170.35271731299619
20
54.29986810922054
10
170.35274233505859
20
54.300015262068577
42
-0.41477975538295359
10
169.02138236417517
20
53.819030793353591
0
LWPOLYLINE
5
112
100
AcDbEntity
8
0
100
AcDbPolyline
90
8
70
1
43
0.0
10
157.64001240892381
20
54.172743107734519
42
-0.41473449530562412
10
157.16153596980507
20
55.504890544259091
10
157.16038497925433
20
55.505141881962665
42
-0.41369115126978234
10
158.49015879760142
20
55.982775307328374
10
169.87265347131074
20
50.628661862211111
42
-0.4136504595014393
10
170.35271731299619
20
49.299868109220554
10
170.35274233505859
20
49.300015262068584
42
-0.41477975538295359
10
169.02138236417517
20
48.819030793353598
0
LWPOLYLINE
5
113
100
AcDbEntity
8
0
100
AcDbPolyline
90
8
70
1
43
0.0
10
157.64001240892381
20
49.172743107734519
42
-0.41473449530562412
10
157.1615359698051
20
50.504890544259091
10
157.16038497925436
20
50.505141881962665
42
-0.41369115126978234
10
158.49015879760145
20
50.982775307328374
10
169.87265347131074
20
45.628661862211111
42
-0.4136504595014393
10
170.35271731299619
20
44.299868109220554
10
170.35274233505859
20
44.300015262068584
42
-0.41477975538295359
10
169.02138236417517
20
43.819030793353598
0
ENDSEC
0
SECTION
2
OBJECTS
0
DICTIONARY
5
C
100
AcDbDictionary
3
ACAD_GROUP
350
D
3
ACAD_MLINESTYLE
350
17
0
DICTIONARY
5
D
100
AcDbDictionary
0
DICTIONARY
5
1A
330
C
100
AcDbDictionary
0
DICTIONARY
5
17
100
AcDbDictionary
0
ENDSEC
0
EOF
