0
SECTION
2
HEADER
9
$INSUNITS
70
4
9
$ACADVER
1
AC1014
9
$HANDSEED
5
FFFF
0
ENDSEC
0
SECTION
2
TABLES
0
TABLE
2
VPORT
5
8
100
AcDbSymbolTable
0
ENDTAB
0
TABLE
2
LTYPE
5
5
100
AcDbSymbolTable
0
LTYPE
5
14
100
AcDbSymbolTableRecord
100
AcDbLinetypeTableRecord
2
BYBLOCK
70
0
0
LTYPE
5
15
100
AcDbSymbolTableRecord
100
AcDbLinetypeTableRecord
2
BYLAYER
70
0
0
ENDTAB
0
TABLE
2
LAYER
5
2
100
AcDbSymbolTable
70
2
0
LAYER
5
50
100
AcDbSymbolTableRecord
100
AcDbLayerTableRecord
2
0
70
0
6
CONTINUOUS
0
ENDTAB
0
TABLE
2
STYLE
5
3
100
AcDbSymbolTable
70
1
0
STYLE
5
11
100
AcDbSymbolTableRecord
100
AcDbTextStyleTableRecord
2
STANDARD
70
0
0
ENDTAB
0
TABLE
2
VIEW
5
6
100
AcDbSymbolTable
70
0
0
ENDTAB
0
TABLE
2
UCS
5
7
100
AcDbSymbolTable
70
0
0
ENDTAB
0
TABLE
2
APPID
5
9
100
AcDbSymbolTable
70
2
0
APPID
5
12
100
AcDbSymbolTableRecord
100
AcDbRegAppTableRecord
2
ACAD
70
0
0
ENDTAB
0
TABLE
2
DIMSTYLE
5
A
100
AcDbSymbolTable
70
1
0
ENDTAB
0
TABLE
2
BLOCK_RECORD
5
1
100
AcDbSymbolTable
70
1
0
BLOCK_RECORD
5
1F
100
AcDbSymbolTableRecord
100
AcDbBlockTableRecord
2
*MODEL_SPACE
0
BLOCK_RECORD
5
1B
100
AcDbSymbolTableRecord
100
AcDbBlockTableRecord
2
*PAPER_SPACE
0
ENDTAB
0
ENDSEC
0
SECTION
2
BLOCKS
0
BLOCK
5
20
100
AcDbEntity
100
AcDbBlockBegin
2
*MODEL_SPACE
0
ENDBLK
5
21
100
AcDbEntity
100
AcDbBlockEnd
0
BLOCK
5
1C
100
AcDbEntity
100
AcDbBlockBegin
2
*PAPER_SPACE
0
ENDBLK
5
1D
100
AcDbEntity
100
AcDbBlockEnd
0
ENDSEC
0
SECTION
2
ENTITIES
0
LWPOLYLINE
5
100
100
AcDbEntity
8
0
100
AcDbPolyline
90
44
70
1
43
0.0
10
140.05249807711346
20
30.629308485512638
42
-0.4142135623731002
10
139.05249807604366
20
31.629308484442859
10
139.05249807390416
20
33.62928500871071
10
139.05249799413011
20
108.20000097006606
10
139.05249805075442
20
110.19999961275624
42
0.4142135623731002
10
138.05249807906657
20
111.19999964106846
10
136.05249999999984
20
111.19999969769283
10
126.61356832395923
20
111.19999968759529
10
124.61356830439084
20
113.08199623396712
10
90.2684610651892
20
113.08199643021129
10
86.298273566956155
20
109.07491897431359
10
24.671061363198525
20
109.07490781785984
10
21.171061363198433
20
109.07491867776818
10
19.17099275879637
20
109.07492488364295
42
0.4142135623730937
10
18.170989655970239
20
108.07492798647871
10
18.1709834503
20
106.07492529837401
10
18.170975693222623
20
103.57492529837403
10
18.170736270342157
20
26.412203775390857
10
18.170913554738451
20
23.824409517724106
10
18.171044560127086
20
21.912143128072742
42
0.41421356237309437
10
19.171113065698052
20
20.912211638337055
10
21.171061363198444
20
20.912348650630644
10
24.671061363200792
20
20.912588428342957
10
88.844643543332154
20
20.912275834489375
10
90.844285918525728
20
20.912266094096324
42
-0.41421356237309437
10
91.844281047446344
20
19.912261223040609
10
91.844271364462443
20
17.924404598105991
10
91.844287057474062
20
14.529286871370511
10
91.844944733484951
20
4.9292868713573741
10
91.845081738328531
20
2.9294473203276699
42
0.41421356237309209
10
92.845150243899482
20
1.9295158305919835
10
94.844643543333831
20
1.9296528117145886
10
103.28928708668251
20
1.930231336660331
10
155.9218833939602
20
1.9299403024700859
10
159.52188339396164
20
1.9299474625951627
10
161.52190268775271
20
1.929951440480802
42
0.41421356237308826
10
162.52190069882704
20
2.9299534294024365
10
162.52189686294403
20
4.858575992788432
10
162.52188572497616
20
10.458573742713087
10
162.52185151550236
20
27.658567348623532
10
162.52184759576781
20
29.629349199619316
42
0.41421356237309109
10
161.52184560684606
20
30.629347210693787
10
159.52188339396096
20
30.62934323292167
10
142.05250000000004
20
30.629308487652192
0
CIRCLE
5
101
100
AcDbEntity
8
0
100
AcDbCircle
10
21.441131146968161
20
105.76808291853523
30
0
40
1.1000000000000001
210
0
220
0
230
1
0
CIRCLE
5
102
100
AcDbEntity
8
0
100
AcDbCircle
10
158.96782090457702
20
4.8206324398816491
30
0
40
1.1000000000000001
210
0
220
0
230
1
0
CIRCLE
5
103
100
AcDbEntity
8
0
100
AcDbCircle
10
159.1984251079144
20
27.45923489594329
30
0
40
1.1000000000000001
210
0
220
0
230
1
0
LINE
5
104
100
AcDbEntity
8
0
100
AcDbLine
10
138.03179661044592
20
100.25795292860998
30
0
11
138.05250000000001
21
100.23775000000001
31
0
0
CIRCLE
5
105
100
AcDbEntity
8
0
100
AcDbCircle
10
95.018743453808355
20
4.9497043003083618
30
0
40
1.1000000000000001
210
0
220
0
230
1
0
CIRCLE
5
106
100
AcDbEntity
8
0
100
AcDbCircle
10
70.502993051800516
20
106.28802337835188
30
0
40
1.1000000000000001
210
0
220
0
230
1
0
CIRCLE
5
107
100
AcDbEntity
8
0
100
AcDbCircle
10
134.89852940680748
20
108.22879478952005
30
0
40
1.1000000000000001
210
0
220
0
230
1
0
CIRCLE
5
108
100
AcDbEntity
8
0
100
AcDbCircle
10
21.000000312924371
20
23.999998092651378
30
0
40
1.1000000000000001
210
0
220
0
230
1
0
CIRCLE
5
109
100
AcDbEntity
8
0
100
AcDbCircle
10
93.566348852228018
20
22.821018184951072
30
0
40
1.1000000000000001
210
0
220
0
230
1
0
CIRCLE
5
110
100
AcDbEntity
8
0
100
AcDbCircle
10
102.12207109669467
20
110.16260570680146
30
0
40
1.1000000000000001
210
0
220
0
230
1
0
LWPOLYLINE
5
111
100
AcDbEntity
8
0
100
AcDbPolyline
90
8
70
1
43
0.0
10
116.21194087366248
20
10.834263120627288
10
102.71194088111308
20
10.834263120627305
42
-0.41421356237307422
10
102.46194087738779
20
11.084263124352578
10
102.46194087738779
20
24.584263116901983
42
-0.41421356237309509
10
102.71194088111308
20
24.834263120627273
10
116.21194087366248
20
24.834263120627291
42
-0.41421356237307422
10
116.46194087738778
20
24.584263116901983
10
116.46194087738778
20
11.084263124352578
42
-0.4142135623730534
0
LWPOLYLINE
5
112
100
AcDbEntity
8
0
100
AcDbPolyline
90
8
70
1
43
0.0
10
154.56194087738771
20
11.084263124352578
42
-0.41421356237307422
10
154.31194087366239
20
10.834263120627288
10
140.811940881113
20
10.834263120627305
42
-0.41421356237307422
10
140.56194087738771
20
11.084263124352578
10
140.56194087738771
20
24.584263116901983
42
-0.41421356237309509
10
140.811940881113
20
24.834263120627273
10
154.31194087366239
20
24.834263120627273
42
-0.41421356237309509
10
154.56194087738768
20
24.584263116901983
0
LWPOLYLINE
5
113
100
AcDbEntity
8
0
100
AcDbPolyline
90
8
70
1
43
0.0
10
97.411940877387778
20
87.284263124352464
42
-0.41421356237309509
10
97.161940873662488
20
87.034263120627173
10
83.661940881113111
20
87.034263120627173
42
-0.41421356237309509
10
83.411940877387821
20
87.284263124352464
10
83.411940877387821
20
100.78426311690185
42
-0.41421356237309509
10
83.661940881113111
20
101.03426312062714
10
97.161940873662488
20
101.03426312062714
42
-0.41421356237309509
10
97.411940877387778
20
100.78426311690185
0
LWPOLYLINE
5
114
100
AcDbEntity
8
0
100
AcDbPolyline
90
8
70
1
43
0.0
10
40.261940877387886
20
81.7342631169019
10
40.2619408773879
20
68.234263124352481
42
-0.41421356237308465
10
40.011940873662596
20
67.98426312062719
10
26.511940881113208
20
67.98426312062719
42
-0.41421356237308982
10
26.261940877387921
20
68.234263124352481
10
26.261940877387918
20
81.7342631169019
42
-0.41421356237309509
10
26.511940881113208
20
81.98426312062719
10
40.011940873662596
20
81.98426312062719
42
-0.41421356237309509
0
LWPOLYLINE
5
115
100
AcDbEntity
8
0
100
AcDbPolyline
90
8
70
1
43
0.0
10
45.311940877387883
20
68.234263124352481
10
45.311940877387883
20
81.7342631169019
42
-0.41421356237309509
10
45.561940881113173
20
81.98426312062719
10
59.061940873662579
20
81.98426312062719
42
-0.41421356237308465
10
59.311940877387869
20
81.7342631169019
10
59.311940877387855
20
68.234263124352481
42
-0.41421356237306384
10
59.061940873662579
20
67.98426312062719
10
45.561940881113173
20
67.98426312062719
42
-0.41421356237309509
0
LWPOLYLINE
5
116
100
AcDbEntity
8
0
100
AcDbPolyline
90
8
70
1
43
0.0
10
102.46194087738779
20
68.234263124352481
10
102.46194087738779
20
81.7342631169019
42
-0.41421356237309509
10
102.71194088111308
20
81.98426312062719
10
116.21194087366248
20
81.98426312062719
42
-0.4142135623730534
10
116.46194087738778
20
81.7342631169019
10
116.46194087738776
20
68.234263124352481
42
-0.41421356237307422
10
116.21194087366248
20
67.98426312062719
10
102.71194088111308
20
67.98426312062719
42
-0.41421356237309509
0
LWPOLYLINE
5
117
100
AcDbEntity
8
0
100
AcDbPolyline
90
8
70
1
43
0.0
10
78.111940873662533
20
81.98426312062719
42
-0.41421356237309509
10
78.361940877387823
20
81.7342631169019
10
78.361940877387838
20
68.234263124352481
42
-0.41421356237308465
10
78.111940873662533
20
67.98426312062719
10
64.611940881113142
20
67.98426312062719
42
-0.41421356237309509
10
64.361940877387852
20
68.234263124352481
10
64.361940877387852
20
81.7342631169019
42
-0.41421356237309509
10
64.611940881113142
20
81.98426312062719
0
LWPOLYLINE
5
118
100
AcDbEntity
8
0
100
AcDbPolyline
90
8
70
1
43
0.0
10
78.111940873662533
20
43.884263120627239
42
-0.41421356237308465
10
78.361940877387823
20
43.634263116901963
10
78.361940877387823
20
30.134263124352564
42
-0.41421356237309509
10
78.111940873662533
20
29.884263120627274
10
64.611940881113142
20
29.884263120627274
42
-0.41421356237309509
10
64.361940877387852
20
30.134263124352564
10
64.361940877387852
20
43.634263116901948
42
-0.41421356237309509
10
64.611940881113142
20
43.884263120627239
0
LWPOLYLINE
5
119
100
AcDbEntity
8
0
100
AcDbPolyline
90
8
70
1
43
0.0
10
26.261940877387918
20
43.634263116901948
42
-0.41421356237309509
10
26.511940881113208
20
43.884263120627239
10
40.011940873662596
20
43.884263120627239
42
-0.41421356237308465
10
40.261940877387886
20
43.634263116901963
10
40.261940877387886
20
30.134263124352564
42
-0.41421356237309509
10
40.011940873662596
20
29.884263120627274
10
26.511940881113208
20
29.884263120627274
42
-0.41421356237308982
10
26.261940877387921
20
30.134263124352564
0
LWPOLYLINE
5
120
100
AcDbEntity
8
0
100
AcDbPolyline
90
8
70
1
43
0.0
10
45.311940877387883
20
100.78426311690185
42
-0.41421356237309509
10
45.561940881113173
20
101.03426312062714
10
59.061940873662579
20
101.03426312062716
42
-0.41421356237308465
10
59.311940877387869
20
100.78426311690185
10
59.311940877387848
20
87.284263124352464
42
-0.41421356237307422
10
59.061940873662579
20
87.034263120627173
10
45.561940881113173
20
87.034263120627173
42
-0.41421356237309509
10
45.311940877387883
20
87.284263124352464
0
LWPOLYLINE
5
121
100
AcDbEntity
8
0
100
AcDbPolyline
90
8
70
1
43
0.0
10
83.661940881113111
20
62.934263120627207
10
97.161940873662488
20
62.934263120627207
42
-0.41421356237309509
10
97.411940877387778
20
62.684263116901917
10
97.411940877387792
20
49.184263124352519
42
-0.41421356237308465
10
97.161940873662488
20
48.934263120627229
10
83.661940881113111
20
48.934263120627236
42
-0.41421356237308465
10
83.411940877387821
20
49.184263124352519
10
83.411940877387821
20
62.684263116901917
42
-0.41421356237309509
0
LWPOLYLINE
5
122
100
AcDbEntity
8
0
100
AcDbPolyline
90
8
70
1
43
0.0
10
59.311940877387869
20
43.634263116901963
10
59.311940877387848
20
30.134263124352564
42
-0.41421356237307422
10
59.061940873662579
20
29.884263120627274
10
45.561940881113173
20
29.884263120627274
42
-0.41421356237309509
10
45.311940877387883
20
30.134263124352564
10
45.311940877387883
20
43.634263116901948
42
-0.41421356237309509
10
45.561940881113173
20
43.884263120627239
10
59.061940873662579
20
43.884263120627253
42
-0.41421356237307422
0
LWPOLYLINE
5
123
100
AcDbEntity
8
0
100
AcDbPolyline
90
8
70
1
43
0.0
10
135.26194087366244
20
62.934263120627207
42
-0.41421356237309509
10
135.51194087738773
20
62.684263116901917
10
135.51194087738776
20
49.184263124352519
42
-0.41421356237308465
10
135.26194087366244
20
48.934263120627229
10
121.76194088111305
20
48.934263120627236
42
-0.41421356237308465
10
121.51194087738774
20
49.184263124352519
10
121.51194087738774
20
62.684263116901917
42
-0.41421356237309509
10
121.76194088111303
20
62.934263120627207
0
LWPOLYLINE
5
124
100
AcDbEntity
8
0
100
AcDbPolyline
90
8
70
1
43
0.0
10
83.411940877387821
20
43.634263116901948
42
-0.41421356237309509
10
83.661940881113111
20
43.884263120627239
10
97.161940873662473
20
43.884263120627239
42
-0.41421356237308465
10
97.411940877387778
20
43.634263116901963
10
97.411940877387778
20
30.134263124352564
42
-0.41421356237309509
10
97.161940873662488
20
29.884263120627274
10
83.661940881113111
20
29.884263120627274
42
-0.41421356237309509
10
83.411940877387821
20
30.134263124352564
0
LWPOLYLINE
5
125
100
AcDbEntity
8
0
100
AcDbPolyline
90
8
70
1
43
0.0
10
135.26194087366244
20
87.034263120627173
10
121.76194088111303
20
87.034263120627173
42
-0.41421356237309509
10
121.51194087738774
20
87.284263124352464
10
121.51194087738774
20
100.78426311690185
42
-0.41421356237309509
10
121.76194088111303
20
101.03426312062714
10
135.26194087366244
20
101.03426312062714
42
-0.41421356237309509
10
135.51194087738773
20
100.78426311690185
10
135.51194087738773
20
87.284263124352464
42
-0.41421356237309509
0
LWPOLYLINE
5
126
100
AcDbEntity
8
0
100
AcDbPolyline
90
8
70
1
43
0.0
10
102.46194087738779
20
49.184263124352519
10
102.46194087738779
20
62.684263116901917
42
-0.41421356237309509
10
102.71194088111308
20
62.934263120627207
10
116.21194087366248
20
62.934263120627222
42
-0.41421356237307422
10
116.46194087738778
20
62.684263116901917
10
116.46194087738778
20
49.184263124352519
42
-0.41421356237306384
10
116.21194087366248
20
48.934263120627229
10
102.71194088111308
20
48.934263120627236
42
-0.41421356237308465
0
LWPOLYLINE
5
127
100
AcDbEntity
8
0
100
AcDbPolyline
90
8
70
1
43
0.0
10
59.311940877387869
20
62.684263116901917
10
59.311940877387855
20
49.184263124352519
42
-0.41421356237306384
10
59.061940873662579
20
48.934263120627229
10
45.561940881113173
20
48.934263120627236
42
-0.41421356237308465
10
45.311940877387883
20
49.184263124352519
10
45.311940877387883
20
62.684263116901917
42
-0.41421356237309509
10
45.561940881113173
20
62.934263120627207
10
59.061940873662579
20
62.934263120627215
42
-0.41421356237308465
0
LWPOLYLINE
5
128
100
AcDbEntity
8
0
100
AcDbPolyline
90
8
70
1
43
0.0
10
83.661940881113111
20
67.98426312062719
42
-0.41421356237309509
10
83.411940877387821
20
68.234263124352481
10
83.411940877387821
20
81.7342631169019
42
-0.41421356237309509
10
83.661940881113111
20
81.98426312062719
10
97.161940873662488
20
81.98426312062719
42
-0.41421356237309509
10
97.411940877387778
20
81.7342631169019
10
97.411940877387792
20
68.234263124352481
42
-0.41421356237308465
10
97.161940873662488
20
67.98426312062719
0
LWPOLYLINE
5
129
100
AcDbEntity
8
0
100
AcDbPolyline
90
8
70
1
43
0.0
10
135.26194087366244
20
10.834263120627288
10
121.76194088111303
20
10.834263120627305
42
-0.41421356237307422
10
121.51194087738774
20
11.084263124352578
10
121.51194087738774
20
24.584263116901983
42
-0.41421356237309509
10
121.76194088111303
20
24.834263120627273
10
135.26194087366244
20
24.834263120627273
42
-0.41421356237309509
10
135.51194087738773
20
24.584263116901983
10
135.51194087738776
20
11.084263124352578
42
-0.41421356237307422
0
LWPOLYLINE
5
130
100
AcDbEntity
8
0
100
AcDbPolyline
90
8
70
1
43
0.0
10
116.21194087366248
20
29.884263120627274
10
102.71194088111308
20
29.884263120627274
42
-0.41421356237309509
10
102.46194087738779
20
30.134263124352564
10
102.46194087738779
20
43.634263116901948
42
-0.41421356237309509
10
102.71194088111308
20
43.884263120627239
10
116.21194087366248
20
43.88426312062726
42
-0.41421356237306384
10
116.46194087738778
20
43.634263116901963
10
116.46194087738776
20
30.134263124352564
42
-0.41421356237307422
0
LWPOLYLINE
5
131
100
AcDbEntity
8
0
100
AcDbPolyline
90
8
70
1
43
0.0
10
116.21194087366248
20
87.034263120627173
10
102.71194088111308
20
87.034263120627173
42
-0.41421356237309509
10
102.46194087738779
20
87.284263124352464
10
102.46194087738779
20
100.78426311690185
42
-0.41421356237309509
10
102.71194088111308
20
101.03426312062714
10
116.21194087366248
20
101.03426312062716
42
-0.41421356237307422
10
116.46194087738778
20
100.78426311690185
10
116.46194087738776
20
87.284263124352464
42
-0.41421356237307422
0
LWPOLYLINE
5
132
100
AcDbEntity
8
0
100
AcDbPolyline
90
8
70
1
43
0.0
10
40.011940873662596
20
62.934263120627207
42
-0.41421356237309509
10
40.261940877387886
20
62.684263116901917
10
40.2619408773879
20
49.184263124352519
42
-0.41421356237308465
10
40.011940873662596
20
48.934263120627229
10
26.511940881113208
20
48.934263120627236
42
-0.41421356237307944
10
26.261940877387921
20
49.184263124352519
10
26.261940877387918
20
62.684263116901917
42
-0.41421356237309509
10
26.511940881113208
20
62.934263120627207
0
LWPOLYLINE
5
133
100
AcDbEntity
8
0
100
AcDbPolyline
90
8
70
1
43
0.0
10
26.261940877387918
20
100.78426311690185
42
-0.41421356237309509
10
26.511940881113208
20
101.03426312062714
10
40.011940873662596
20
101.03426312062714
42
-0.41421356237309509
10
40.261940877387886
20
100.78426311690185
10
40.261940877387886
20
87.284263124352464
42
-0.41421356237309509
10
40.011940873662596
20
87.034263120627173
10
26.511940881113208
20
87.034263120627173
42
-0.41421356237308982
10
26.261940877387921
20
87.284263124352464
0
LWPOLYLINE
5
134
100
AcDbEntity
8
0
100
AcDbPolyline
90
8
70
1
43
0.0
10
78.361940877387823
20
100.78426311690185
10
78.361940877387823
20
87.284263124352464
42
-0.41421356237309509
10
78.111940873662533
20
87.034263120627173
10
64.611940881113142
20
87.034263120627173
42
-0.41421356237309509
10
64.361940877387852
20
87.284263124352464
10
64.361940877387852
20
100.78426311690185
42
-0.41421356237309509
10
64.611940881113142
20
101.03426312062714
10
78.111940873662533
20
101.03426312062714
42
-0.41421356237309509
0
LWPOLYLINE
5
135
100
AcDbEntity
8
0
100
AcDbPolyline
90
8
70
1
43
0.0
10
135.26194087366244
20
29.884263120627274
10
121.76194088111303
20
29.884263120627274
42
-0.41421356237309509
10
121.51194087738774
20
30.134263124352564
10
121.51194087738774
20
43.634263116901948
42
-0.41421356237309509
10
121.76194088111303
20
43.884263120627239
10
135.26194087366241
20
43.884263120627239
42
-0.41421356237308465
10
135.51194087738773
20
43.634263116901963
10
135.51194087738773
20
30.134263124352564
42
-0.41421356237309509
0
LWPOLYLINE
5
136
100
AcDbEntity
8
0
100
AcDbPolyline
90
8
70
1
43
0.0
10
64.361940877387852
20
62.684263116901917
42
-0.41421356237309509
10
64.611940881113142
20
62.934263120627207
10
78.111940873662533
20
62.934263120627207
42
-0.41421356237309509
10
78.361940877387823
20
62.684263116901917
10
78.361940877387838
20
49.184263124352519
42
-0.41421356237308465
10
78.111940873662533
20
48.934263120627229
10
64.611940881113142
20
48.934263120627236
42
-0.41421356237308465
10
64.361940877387852
20
49.184263124352519
0
LWPOLYLINE
5
137
100
AcDbEntity
8
0
100
AcDbPolyline
90
8
70
1
43
0.0
10
135.51194087738773
20
81.7342631169019
10
135.51194087738773
20
68.234263124352481
42
-0.41421356237309509
10
135.26194087366244
20
67.98426312062719
10
121.76194088111303
20
67.98426312062719
42
-0.41421356237309509
10
121.51194087738774
20
68.234263124352481
10
121.51194087738774
20
81.734263116901872
42
-0.41421356237309509
10
121.76194088111303
20
81.984263120627162
10
135.26194087366244
20
81.984263120627162
42
-0.41421356237307422
0
ENDSEC
0
SECTION
2
OBJECTS
0
DICTIONARY
5
C
100
AcDbDictionary
3
ACAD_GROUP
350
D
3
ACAD_MLINESTYLE
350
17
0
DICTIONARY
5
D
100
AcDbDictionary
0
DICTIONARY
5
1A
330
C
100
AcDbDictionary
0
DICTIONARY
5
17
100
AcDbDictionary
0
ENDSEC
0
EOF
